<?xml version="1.0" encoding="UTF-8" standalone="no"?>
<!-- Creator: CorelDRAW -->

<svg
   xmlns:dc="http://purl.org/dc/elements/1.1/"
   xmlns:cc="http://creativecommons.org/ns#"
   xmlns:rdf="http://www.w3.org/1999/02/22-rdf-syntax-ns#"
   xmlns:svg="http://www.w3.org/2000/svg"
   xmlns="http://www.w3.org/2000/svg"
   xmlns:sodipodi="http://sodipodi.sourceforge.net/DTD/sodipodi-0.dtd"
   xmlns:inkscape="http://www.inkscape.org/namespaces/inkscape"
   xml:space="preserve"
   width="10cm"
   height="7.07071cm"
   style="shape-rendering:geometricPrecision; text-rendering:geometricPrecision; image-rendering:optimizeQuality; fill-rule:evenodd"
   viewBox="0 0 10000 7070"
   version="1.1"
   id="svg231"
   sodipodi:docname="diagramaSnPb.svg"
   inkscape:version="0.92.5 (2060ec1f9f, 2020-04-08)"><metadata
   id="metadata235"><rdf:RDF><cc:Work
       rdf:about=""><dc:format>image/svg+xml</dc:format><dc:type
         rdf:resource="http://purl.org/dc/dcmitype/StillImage" /></cc:Work></rdf:RDF></metadata><sodipodi:namedview
   pagecolor="#ffffff"
   bordercolor="#666666"
   borderopacity="1"
   objecttolerance="10"
   gridtolerance="10"
   guidetolerance="10"
   inkscape:pageopacity="0"
   inkscape:pageshadow="2"
   inkscape:window-width="1920"
   inkscape:window-height="998"
   id="namedview233"
   showgrid="false"
   inkscape:zoom="1.7662064"
   inkscape:cx="195.85823"
   inkscape:cy="102.68386"
   inkscape:window-x="1280"
   inkscape:window-y="28"
   inkscape:window-maximized="1"
   inkscape:current-layer="svg231" />
 <defs
   id="defs4">
  <style
   type="text/css"
   id="style2">
   <![CDATA[
    .str4 {stroke:#00923F;stroke-width:3}
    .str0 {stroke:#1F1A17;stroke-width:24}
    .str3 {stroke:#1F1A17;stroke-width:24}
    .str1 {stroke:#183B86;stroke-width:48}
    .str2 {stroke:#183B86;stroke-width:48;stroke-linejoin:bevel}
    .fil0 {fill:none}
    .fil2 {fill:#00923F}
    .fil1 {fill:#1F1A17}
    .fnt0 {font-weight:normal;font-size:428;font-family:Wingdings}
   ]]>
  </style>
 
  
  
  
  
  
  
  
  
  
  
  
  
  
  
  
  
  
  
  
  
  
  
  
  
  
  
  
  
  
  
  
  
  
  
  
  
  
  
  
  
  
  
  
  
  
  
  
  
  
  
  
  
  
  
  
  
  
  
  
  
  
  
  
  
  
  
  
  
  
  
  
  
  
  
  
  
  
  
  
  
  
  
  
  
  
  
  
  
  
  
  
  
 
   
   
  </defs>
 <path
   style="fill:none;stroke:#1f1a17;stroke-width:24"
   inkscape:connector-curvature="0"
   id="path6"
   d="M 1784,417 V 6082 H 9495 V 417"
   class="fil0 str0" /><g
   id="g12">
   <path
   style="fill:none;stroke:#183b86;stroke-width:48"
   inkscape:connector-curvature="0"
   id="path8"
   d="M 2040,3151 H 8049"
   class="fil0 str1" />
   <path
   style="fill:none;stroke:#183b86;stroke-width:48;stroke-linejoin:bevel"
   inkscape:connector-curvature="0"
   id="path10"
   d="m 9419,6082 c -70,-656 -139,-1282 -476,-1839 -256,-435 -484,-794 -903,-1092 213,-568 396,-1085 699,-1564 219,-314 450,-580 756,-793 -527,282 -1014,570 -1515,824 -614,283 -1210,527 -1825,778 -525,227 -741,315 -1457,755 C 4172,3006 3667,2887 3140,2734 L 1784,2325 c 94,151 174,282 208,450 26,128 48,230 57,376 -31,315 -120,624 -136,945 -59,652 -61,732 -129,1986"
   class="fil0 str2" />
  </g><g
   id="g30">
   <path
   style="fill:none;stroke:#1f1a17;stroke-width:24"
   inkscape:connector-curvature="0"
   id="path14"
   d="m 1676,6082 h 108"
   class="fil0 str3" />
   <path
   style="fill:none;stroke:#1f1a17;stroke-width:24"
   inkscape:connector-curvature="0"
   id="path16"
   d="m 1674,5266 h 108"
   class="fil0 str3" />
   <path
   style="fill:none;stroke:#1f1a17;stroke-width:24"
   inkscape:connector-curvature="0"
   id="path18"
   d="m 1676,4469 h 108"
   class="fil0 str3" />
   <path
   style="fill:none;stroke:#1f1a17;stroke-width:24"
   inkscape:connector-curvature="0"
   id="path20"
   d="m 1676,3643 h 108"
   class="fil0 str3" />
   <path
   style="fill:none;stroke:#1f1a17;stroke-width:24"
   inkscape:connector-curvature="0"
   id="path22"
   d="m 1676,2851 h 108"
   class="fil0 str3" />
   <path
   style="fill:none;stroke:#1f1a17;stroke-width:24"
   inkscape:connector-curvature="0"
   id="path24"
   d="m 1676,2044 h 108"
   class="fil0 str3" />
   <path
   style="fill:none;stroke:#1f1a17;stroke-width:24"
   inkscape:connector-curvature="0"
   id="path26"
   d="m 1676,1241 h 108"
   class="fil0 str3" />
   <path
   style="fill:none;stroke:#1f1a17;stroke-width:24"
   inkscape:connector-curvature="0"
   id="path28"
   d="m 1676,417 h 108"
   class="fil0 str3" />
  </g><g
   id="g48">
   <path
   style="fill:none;stroke:#1f1a17;stroke-width:24"
   inkscape:connector-curvature="0"
   id="path32"
   d="m 9496,6082 h 108"
   class="fil0 str3" />
   <path
   style="fill:none;stroke:#1f1a17;stroke-width:24"
   inkscape:connector-curvature="0"
   id="path34"
   d="m 9495,5266 h 108"
   class="fil0 str3" />
   <path
   style="fill:none;stroke:#1f1a17;stroke-width:24"
   inkscape:connector-curvature="0"
   id="path36"
   d="m 9496,4469 h 108"
   class="fil0 str3" />
   <path
   style="fill:none;stroke:#1f1a17;stroke-width:24"
   inkscape:connector-curvature="0"
   id="path38"
   d="m 9496,3643 h 108"
   class="fil0 str3" />
   <path
   style="fill:none;stroke:#1f1a17;stroke-width:24"
   inkscape:connector-curvature="0"
   id="path40"
   d="m 9496,2851 h 108"
   class="fil0 str3" />
   <path
   style="fill:none;stroke:#1f1a17;stroke-width:24"
   inkscape:connector-curvature="0"
   id="path42"
   d="m 9496,2044 h 108"
   class="fil0 str3" />
   <path
   style="fill:none;stroke:#1f1a17;stroke-width:24"
   inkscape:connector-curvature="0"
   id="path44"
   d="m 9496,1241 h 108"
   class="fil0 str3" />
   <path
   style="fill:none;stroke:#1f1a17;stroke-width:24"
   inkscape:connector-curvature="0"
   id="path46"
   d="m 9496,417 h 108"
   class="fil0 str3" />
  </g><path
   style="fill:none;stroke:#1f1a17;stroke-width:24"
   inkscape:connector-curvature="0"
   id="path50"
   d="m 9497,6164 v -89"
   class="fil0 str3" /><path
   style="fill:none;stroke:#1f1a17;stroke-width:24"
   inkscape:connector-curvature="0"
   id="path52"
   d="m 8728,6171 v -89"
   class="fil0 str3" /><path
   style="fill:none;stroke:#1f1a17;stroke-width:24"
   inkscape:connector-curvature="0"
   id="path54"
   d="m 7952,6171 v -89"
   class="fil0 str3" /><path
   style="fill:none;stroke:#1f1a17;stroke-width:24"
   inkscape:connector-curvature="0"
   id="path56"
   d="m 7183,6171 v -89"
   class="fil0 str3" /><path
   style="fill:none;stroke:#1f1a17;stroke-width:24"
   inkscape:connector-curvature="0"
   id="path58"
   d="m 6414,6171 v -89"
   class="fil0 str3" /><path
   style="fill:none;stroke:#1f1a17;stroke-width:24"
   inkscape:connector-curvature="0"
   id="path60"
   d="m 5636,6171 v -89"
   class="fil0 str3" /><path
   style="fill:none;stroke:#1f1a17;stroke-width:24"
   inkscape:connector-curvature="0"
   id="path62"
   d="m 4870,6171 v -89"
   class="fil0 str3" /><path
   style="fill:none;stroke:#1f1a17;stroke-width:24"
   inkscape:connector-curvature="0"
   id="path64"
   d="m 4101,6171 v -89"
   class="fil0 str3" /><path
   style="fill:none;stroke:#1f1a17;stroke-width:24"
   inkscape:connector-curvature="0"
   id="path66"
   d="m 3326,6171 v -89"
   class="fil0 str3" /><path
   style="fill:none;stroke:#1f1a17;stroke-width:24"
   inkscape:connector-curvature="0"
   id="path68"
   d="m 2549,6171 v -89"
   class="fil0 str3" /><path
   style="fill:none;stroke:#1f1a17;stroke-width:24"
   inkscape:connector-curvature="0"
   id="path70"
   d="m 1780,6171 v -89"
   class="fil0 str3" /><path
   style="fill:#1f1a17"
   inkscape:connector-curvature="0"
   id="path72"
   d="m 231.54866,929.40732 v -180 h -67 v -24 h 162 v 24 h -68 v 180 z"
   class="fil1" /><path
   style="fill:#1f1a17"
   inkscape:connector-curvature="0"
   id="path74"
   d="m 472.54866,989.40732 c -14,-18 -25,-38 -35,-61 -10,-24 -14,-48 -14,-73 0,-22 3,-43 10,-64 9,-23 22,-46 39,-70 h 18 c -11,20 -19,33 -22,42 -6,12 -10,26 -14,40 -4,17 -6,35 -6,52 0,45 14,89 42,134 z"
   class="fil1" /><path
   style="fill:#1f1a17"
   inkscape:connector-curvature="0"
   id="path76"
   d="m 518.54866,760.40732 c 0,-11 4,-20 11,-27 8,-8 17,-12 28,-12 10,0 20,4 27,12 8,7 11,16 11,27 0,11 -3,20 -11,27 -8,8 -17,12 -27,12 -11,0 -20,-4 -28,-12 -7,-7 -11,-16 -11,-27 z m 15,0 c 0,6 3,12 7,17 5,4 10,6 17,6 6,0 12,-2 16,-6 5,-5 7,-11 7,-17 0,-7 -2,-12 -7,-17 -4,-4 -10,-7 -16,-7 -7,0 -12,3 -17,7 -4,5 -7,10 -7,17 z"
   class="fil1" /><path
   style="fill:#1f1a17"
   inkscape:connector-curvature="0"
   id="path78"
   d="m 782.54866,857.40732 27,7 c -6,22 -16,39 -31,51 -14,12 -32,17 -54,17 -22,0 -39,-4 -53,-13 -14,-9 -25,-22 -32,-39 -7,-17 -10,-35 -10,-55 0,-21 4,-39 12,-55 8,-16 19,-28 34,-36 15,-9 32,-13 50,-13 20,0 37,6 51,16 14,10 24,25 29,44 l -26,6 c -5,-15 -12,-26 -21,-32 -9,-7 -20,-11 -34,-11 -15,0 -28,4 -39,12 -11,7 -18,17 -22,30 -5,13 -7,26 -7,39 0,18 3,33 8,46 5,13 13,22 24,29 10,6 22,9 34,9 15,0 28,-4 39,-13 10,-9 17,-22 21,-39 z"
   class="fil1" /><path
   style="fill:#1f1a17"
   inkscape:connector-curvature="0"
   id="path80"
   d="m 855.54866,989.40732 h -18 c 28,-45 42,-89 42,-134 0,-17 -2,-35 -6,-52 -3,-14 -7,-27 -13,-40 -4,-8 -11,-22 -23,-42 h 18 c 18,24 31,47 39,70 7,21 11,42 11,64 0,25 -5,49 -15,73 -9,23 -21,43 -35,61 z"
   class="fil1" /><path
   style="fill:#1f1a17"
   inkscape:connector-curvature="0"
   id="path82"
   d="m 1628,6715 26,-2 c 1,10 4,18 8,25 5,6 12,12 21,16 9,4 20,6 31,6 10,0 20,-2 27,-5 8,-3 14,-7 18,-12 4,-6 6,-12 6,-18 0,-6 -2,-12 -6,-17 -3,-4 -10,-8 -18,-12 -6,-2 -18,-5 -36,-10 -19,-4 -32,-8 -40,-12 -10,-5 -17,-12 -22,-19 -4,-8 -7,-16 -7,-26 0,-10 3,-20 9,-29 6,-9 14,-15 26,-20 11,-5 23,-7 37,-7 15,0 28,2 40,7 12,5 21,12 27,22 6,9 9,20 10,32 l -26,2 c -2,-13 -6,-23 -14,-29 -8,-7 -20,-10 -36,-10 -16,0 -28,3 -36,9 -7,6 -11,13 -11,21 0,8 3,14 8,18 5,5 19,10 41,15 22,5 37,9 45,13 12,6 21,13 26,21 6,8 9,18 9,29 0,11 -3,21 -9,31 -7,9 -16,17 -27,22 -12,5 -25,8 -40,8 -18,0 -34,-3 -46,-8 -12,-5 -22,-14 -29,-24 -7,-11 -11,-23 -12,-37 z"
   class="fil1" /><path
   style="fill:#1f1a17"
   inkscape:connector-curvature="0"
   id="path84"
   d="m 1825,6781 v -148 h 22 v 21 c 11,-17 27,-25 47,-25 9,0 17,2 25,5 7,3 13,8 16,13 4,5 7,11 8,18 1,5 2,13 2,25 v 91 h -25 v -90 c 0,-11 -1,-18 -3,-23 -2,-5 -6,-9 -11,-12 -5,-3 -10,-5 -17,-5 -11,0 -20,3 -28,10 -8,7 -11,20 -11,39 v 81 z"
   class="fil1" /><path
   style="fill:#1f1a17"
   inkscape:connector-curvature="0"
   id="path86"
   d="m 9349,6781 v -205 h 77 c 14,0 24,1 31,2 10,2 19,5 25,10 7,5 13,11 17,20 4,8 6,17 6,27 0,18 -6,33 -17,45 -11,12 -31,18 -59,18 h -53 v 83 z m 27,-108 h 53 c 17,0 30,-3 37,-9 7,-7 11,-16 11,-28 0,-8 -2,-16 -6,-22 -5,-6 -10,-10 -17,-12 -5,-1 -13,-1 -26,-1 h -52 z"
   class="fil1" /><path
   style="fill:#1f1a17"
   inkscape:connector-curvature="0"
   id="path88"
   d="m 9559,6781 h -23 v -205 h 25 v 73 c 11,-13 24,-20 41,-20 9,0 17,2 25,6 9,4 15,9 20,15 6,7 10,15 13,24 3,10 4,20 4,30 0,26 -6,45 -19,59 -12,14 -27,21 -45,21 -17,0 -31,-7 -41,-22 z m 0,-75 c 0,17 2,30 7,38 8,13 19,19 32,19 11,0 21,-4 29,-14 8,-10 12,-24 12,-43 0,-19 -4,-33 -12,-42 -8,-9 -17,-14 -28,-14 -11,0 -20,5 -28,14 -8,10 -12,23 -12,42 z"
   class="fil1" /><path
   style="fill:#1f1a17"
   inkscape:connector-curvature="0"
   id="path110"
   d="m 5356.1048,6635.5927 c 0,-14 4,-26 11,-37 8,-10 18,-15 32,-15 13,0 24,5 32,14 8,9 13,22 13,40 0,17 -5,31 -13,40 -9,9 -19,14 -32,14 -12,0 -22,-5 -30,-14 -9,-9 -13,-23 -13,-42 z m 44,-35 c -6,0 -12,3 -16,8 -4,6 -6,16 -6,30 0,13 2,22 6,28 5,5 10,8 16,8 6,0 11,-3 16,-8 4,-6 6,-16 6,-30 0,-13 -2,-22 -7,-28 -4,-5 -9,-8 -15,-8 z m 0,198 112,-215 h 20 l -111,215 z m 88,-55 c 0,-15 4,-27 11,-38 8,-10 18,-15 32,-15 13,0 24,5 32,14 8,9 13,22 13,40 0,17 -5,31 -13,40 -9,9 -19,14 -32,14 -12,0 -22,-5 -30,-14 -9,-9 -13,-23 -13,-41 z m 44,-36 c -6,0 -12,3 -16,9 -4,5 -6,15 -6,29 0,13 2,22 6,28 5,5 10,8 16,8 6,0 12,-3 16,-8 4,-6 6,-15 6,-30 0,-13 -2,-22 -6,-28 -5,-5 -10,-8 -16,-8 z"
   class="fil1" /><path
   style="fill:#1f1a17"
   inkscape:connector-curvature="0"
   id="path112"
   d="m 5694.1048,6791.5927 v -205 h 77 c 14,0 24,1 31,2 10,2 19,5 26,10 6,5 12,11 16,20 4,8 6,17 6,27 0,18 -5,33 -16,45 -11,12 -31,18 -60,18 h -53 v 83 z m 27,-108 h 53 c 18,0 30,-3 37,-9 8,-7 11,-16 11,-28 0,-8 -2,-16 -6,-22 -4,-6 -10,-10 -17,-12 -5,-1 -13,-1 -25,-1 h -53 z"
   class="fil1" /><path
   style="fill:#1f1a17"
   inkscape:connector-curvature="0"
   id="path114"
   d="m 5904.1048,6791.5927 h -23 v -205 h 25 v 73 c 11,-13 24,-20 41,-20 9,0 17,2 26,6 8,4 14,9 20,15 5,7 9,15 12,24 3,10 4,20 4,30 0,26 -6,45 -18,59 -13,14 -28,21 -45,21 -18,0 -32,-7 -42,-22 z m 0,-75 c 0,17 3,30 7,38 8,13 19,19 32,19 11,0 21,-4 29,-14 8,-10 12,-24 12,-43 0,-19 -4,-33 -12,-42 -7,-9 -17,-14 -27,-14 -11,0 -21,5 -29,14 -8,10 -12,23 -12,42 z"
   class="fil1" /><path
   style="fill:#1f1a17"
   inkscape:connector-curvature="0"
   id="path116"
   d="m 1245,5330 26,-2 c 2,13 7,22 14,29 7,6 15,9 25,9 12,0 23,-4 31,-13 8,-9 13,-21 13,-36 0,-15 -4,-26 -12,-34 -8,-9 -19,-13 -32,-13 -8,0 -15,2 -22,6 -6,4 -11,8 -15,14 l -24,-3 20,-105 h 102 v 24 h -82 l -11,55 c 12,-9 25,-13 39,-13 17,0 33,6 45,19 12,12 18,28 18,47 0,19 -5,35 -16,48 -13,17 -31,25 -54,25 -18,0 -33,-5 -45,-16 -12,-10 -18,-24 -20,-41 z"
   class="fil1" /><path
   style="fill:#1f1a17"
   inkscape:connector-curvature="0"
   id="path118"
   d="m 1403,5283 c 0,-24 3,-44 8,-58 5,-15 12,-26 22,-34 10,-8 22,-12 37,-12 11,0 20,2 29,6 8,5 15,11 20,19 6,9 10,19 13,31 3,12 4,28 4,48 0,24 -2,43 -7,58 -5,15 -12,26 -22,34 -10,8 -22,12 -37,12 -20,0 -35,-7 -46,-21 -14,-17 -21,-45 -21,-83 z m 26,0 c 0,33 4,56 12,67 8,11 17,16 29,16 11,0 21,-5 29,-16 8,-11 12,-34 12,-67 0,-34 -4,-56 -12,-67 -8,-11 -18,-17 -29,-17 -12,0 -21,5 -28,15 -9,12 -13,35 -13,69 z"
   class="fil1" /><path
   style="fill:#1f1a17"
   inkscape:connector-curvature="0"
   id="path120"
   d="m 1185,4580 h -25 v -160 c -6,6 -14,12 -23,18 -10,5 -19,10 -27,12 v -24 c 14,-6 27,-14 37,-24 10,-9 18,-18 22,-27 h 16 z"
   class="fil1" /><path
   style="fill:#1f1a17"
   inkscape:connector-curvature="0"
   id="path122"
   d="m 1250,4479 c 0,-24 2,-43 7,-58 5,-15 12,-26 22,-34 10,-8 22,-12 37,-12 11,0 21,2 29,7 8,4 15,10 20,19 6,8 10,18 13,30 3,12 5,28 5,48 0,24 -3,44 -8,58 -5,15 -12,26 -22,34 -10,8 -22,12 -37,12 -20,0 -35,-7 -46,-21 -14,-17 -20,-44 -20,-83 z m 25,0 c 0,34 4,56 12,67 8,11 18,17 29,17 12,0 21,-6 29,-17 8,-11 12,-33 12,-67 0,-33 -4,-56 -12,-67 -8,-11 -17,-16 -29,-16 -12,0 -21,5 -28,14 -8,13 -13,36 -13,69 z"
   class="fil1" /><path
   style="fill:#1f1a17"
   inkscape:connector-curvature="0"
   id="path124"
   d="m 1408,4479 c 0,-24 3,-43 8,-58 5,-15 12,-26 22,-34 10,-8 22,-12 37,-12 11,0 20,2 29,7 8,4 15,10 20,19 5,8 10,18 13,30 3,12 4,28 4,48 0,24 -2,44 -7,58 -5,15 -12,26 -22,34 -10,8 -22,12 -37,12 -20,0 -35,-7 -47,-21 -13,-17 -20,-44 -20,-83 z m 26,0 c 0,34 4,56 12,67 8,11 17,17 29,17 11,0 21,-6 29,-17 8,-11 11,-33 11,-67 0,-33 -3,-56 -11,-67 -8,-11 -18,-16 -30,-16 -11,0 -20,5 -27,14 -9,13 -13,36 -13,69 z"
   class="fil1" /><path
   style="fill:#1f1a17"
   inkscape:connector-curvature="0"
   id="path126"
   d="m 1184,3751 h -25 v -159 c -6,5 -14,11 -24,17 -9,6 -18,10 -26,13 v -24 c 14,-7 26,-15 37,-24 10,-10 18,-19 22,-28 h 16 z"
   class="fil1" /><path
   style="fill:#1f1a17"
   inkscape:connector-curvature="0"
   id="path128"
   d="m 1248,3698 27,-2 c 2,13 6,22 13,29 7,6 16,9 26,9 12,0 22,-4 31,-13 8,-9 12,-22 12,-37 0,-14 -4,-25 -12,-33 -8,-9 -18,-13 -31,-13 -9,0 -16,2 -22,6 -7,3 -12,8 -16,14 l -23,-3 20,-105 h 101 v 24 h -81 l -11,55 c 12,-9 25,-13 38,-13 18,0 33,6 45,19 13,12 19,28 19,47 0,19 -6,35 -16,48 -14,17 -31,25 -54,25 -19,0 -34,-5 -46,-16 -11,-10 -18,-24 -20,-41 z"
   class="fil1" /><path
   style="fill:#1f1a17"
   inkscape:connector-curvature="0"
   id="path130"
   d="m 1407,3651 c 0,-24 2,-44 7,-59 5,-14 13,-26 23,-34 9,-8 22,-12 36,-12 11,0 21,3 29,7 9,4 15,11 21,19 5,8 9,19 12,31 4,11 5,27 5,48 0,24 -2,43 -7,58 -5,14 -13,26 -22,34 -10,8 -23,12 -38,12 -19,0 -35,-7 -46,-21 -13,-17 -20,-45 -20,-83 z m 26,0 c 0,33 4,56 11,67 8,11 18,16 29,16 12,0 22,-5 29,-16 8,-12 12,-34 12,-67 0,-34 -4,-56 -12,-67 -7,-11 -17,-17 -29,-17 -11,0 -20,5 -27,15 -9,12 -13,35 -13,69 z"
   class="fil1" /><path
   style="fill:#1f1a17"
   inkscape:connector-curvature="0"
   id="path132"
   d="m 1216,2936 v 24 h -135 c 0,-6 1,-12 3,-18 3,-9 9,-18 17,-27 7,-9 18,-19 32,-31 23,-18 38,-32 45,-43 8,-11 12,-21 12,-30 0,-10 -4,-19 -11,-25 -7,-7 -16,-11 -27,-11 -12,0 -22,4 -29,11 -8,8 -11,18 -11,30 l -26,-2 c 2,-20 8,-34 20,-44 11,-10 27,-15 46,-15 20,0 35,5 47,16 11,11 17,24 17,40 0,9 -2,17 -5,24 -4,8 -9,17 -17,25 -8,9 -21,21 -39,36 -15,13 -24,21 -28,26 -5,4 -8,9 -11,14 z"
   class="fil1" /><path
   style="fill:#1f1a17"
   inkscape:connector-curvature="0"
   id="path134"
   d="m 1243,2859 c 0,-24 2,-44 7,-58 5,-15 13,-26 23,-34 9,-8 22,-12 36,-12 11,0 21,2 29,6 9,5 15,11 21,19 5,9 9,19 12,31 3,12 5,28 5,48 0,24 -2,43 -7,58 -5,15 -13,26 -22,34 -10,8 -23,12 -38,12 -19,0 -35,-7 -46,-21 -13,-17 -20,-45 -20,-83 z m 26,0 c 0,33 4,56 11,67 8,11 18,16 29,16 12,0 22,-5 29,-16 8,-11 12,-34 12,-67 0,-34 -4,-56 -12,-67 -7,-11 -17,-17 -29,-17 -11,0 -21,5 -27,15 -9,12 -13,35 -13,69 z"
   class="fil1" /><path
   style="fill:#1f1a17"
   inkscape:connector-curvature="0"
   id="path136"
   d="m 1401,2859 c 0,-24 3,-44 8,-58 5,-15 12,-26 22,-34 10,-8 22,-12 37,-12 11,0 21,2 29,6 8,5 15,11 20,19 6,9 10,19 13,31 3,12 5,28 5,48 0,24 -3,43 -8,58 -5,15 -12,26 -22,34 -10,8 -22,12 -37,12 -20,0 -35,-7 -46,-21 -14,-17 -21,-45 -21,-83 z m 26,0 c 0,33 4,56 12,67 8,11 17,16 29,16 12,0 21,-5 29,-16 8,-11 12,-34 12,-67 0,-34 -4,-56 -12,-67 -8,-11 -18,-17 -29,-17 -12,0 -21,5 -28,15 -8,12 -13,35 -13,69 z"
   class="fil1" /><path
   style="fill:#1f1a17"
   inkscape:connector-curvature="0"
   id="path138"
   d="m 1216,2114 v 24 h -135 c 0,-6 1,-12 3,-17 3,-9 9,-18 17,-27 7,-9 18,-20 32,-31 23,-18 38,-33 45,-43 8,-11 12,-21 12,-31 0,-10 -4,-18 -11,-25 -7,-7 -16,-10 -27,-10 -12,0 -22,4 -29,11 -8,7 -11,17 -11,30 l -26,-3 c 2,-19 8,-34 20,-44 11,-10 27,-15 46,-15 20,0 35,6 47,17 11,10 17,24 17,40 0,8 -2,16 -5,24 -4,8 -9,16 -17,25 -8,9 -21,21 -39,36 -15,13 -24,21 -28,26 -5,4 -8,9 -11,13 z"
   class="fil1" /><path
   style="fill:#1f1a17"
   inkscape:connector-curvature="0"
   id="path140"
   d="m 1243,2085 26,-2 c 2,12 7,22 14,28 7,7 15,10 25,10 13,0 23,-4 31,-14 8,-9 13,-21 13,-36 0,-14 -4,-25 -12,-34 -8,-8 -19,-12 -32,-12 -8,0 -15,2 -22,6 -6,3 -11,8 -15,14 l -24,-3 20,-105 h 102 v 24 h -82 l -11,55 c 12,-9 25,-13 39,-13 18,0 33,6 45,18 12,13 18,29 18,48 0,19 -5,35 -16,48 -13,16 -31,25 -54,25 -18,0 -33,-5 -45,-16 -12,-10 -18,-24 -20,-41 z"
   class="fil1" /><path
   style="fill:#1f1a17"
   inkscape:connector-curvature="0"
   id="path142"
   d="m 1401,2038 c 0,-25 3,-44 8,-59 5,-14 12,-26 22,-34 10,-8 22,-12 37,-12 11,0 21,3 29,7 8,4 15,11 20,19 6,8 10,18 13,30 3,12 5,28 5,49 0,24 -3,43 -8,58 -5,14 -12,26 -22,34 -10,8 -22,12 -37,12 -20,0 -35,-7 -46,-21 -14,-17 -21,-45 -21,-83 z m 26,0 c 0,33 4,55 12,67 8,11 17,16 29,16 12,0 21,-5 29,-17 8,-11 12,-33 12,-66 0,-34 -4,-56 -12,-67 -8,-11 -18,-17 -29,-17 -12,0 -21,5 -28,15 -8,12 -13,35 -13,69 z"
   class="fil1" /><path
   style="fill:#1f1a17"
   inkscape:connector-curvature="0"
   id="path144"
   d="m 1084,1305 26,-4 c 2,15 7,25 14,31 7,6 16,9 25,9 12,0 22,-4 30,-12 8,-8 13,-18 13,-30 0,-12 -4,-21 -12,-29 -7,-7 -17,-11 -28,-11 -5,0 -11,1 -18,3 l 3,-22 c 1,0 3,0 4,0 10,0 20,-3 29,-8 8,-6 12,-14 12,-26 0,-9 -3,-17 -9,-23 -6,-6 -14,-9 -24,-9 -10,0 -18,3 -24,9 -7,7 -11,16 -13,28 l -25,-4 c 3,-17 10,-30 21,-40 11,-9 24,-13 40,-13 12,0 22,2 31,7 10,5 17,11 22,19 5,9 7,17 7,27 0,8 -2,17 -7,24 -5,7 -12,13 -21,17 12,3 21,9 28,17 7,9 10,20 10,33 0,18 -6,33 -19,46 -13,12 -30,18 -50,18 -18,0 -32,-5 -44,-16 -12,-11 -19,-24 -21,-41 z"
   class="fil1" /><path
   style="fill:#1f1a17"
   inkscape:connector-curvature="0"
   id="path146"
   d="m 1243,1258 c 0,-24 2,-44 7,-58 5,-15 13,-26 23,-34 9,-8 22,-12 36,-12 11,0 21,2 29,6 9,5 15,11 21,19 5,9 9,19 12,31 3,12 5,28 5,48 0,24 -2,43 -7,58 -5,15 -13,26 -22,34 -10,8 -23,12 -38,12 -19,0 -35,-7 -46,-21 -13,-17 -20,-45 -20,-83 z m 26,0 c 0,33 4,56 11,67 8,11 18,16 29,16 12,0 22,-5 29,-16 8,-11 12,-34 12,-67 0,-34 -4,-56 -12,-67 -7,-11 -17,-17 -29,-17 -11,0 -21,5 -27,15 -9,12 -13,35 -13,69 z"
   class="fil1" /><path
   style="fill:#1f1a17"
   inkscape:connector-curvature="0"
   id="path148"
   d="m 1401,1258 c 0,-24 3,-44 8,-58 5,-15 12,-26 22,-34 10,-8 22,-12 37,-12 11,0 21,2 29,6 8,5 15,11 20,19 6,9 10,19 13,31 3,12 5,28 5,48 0,24 -3,43 -8,58 -5,15 -12,26 -22,34 -10,8 -22,12 -37,12 -20,0 -35,-7 -46,-21 -14,-17 -21,-45 -21,-83 z m 26,0 c 0,33 4,56 12,67 8,11 17,16 29,16 12,0 21,-5 29,-16 8,-11 12,-34 12,-67 0,-34 -4,-56 -12,-67 -8,-11 -18,-17 -29,-17 -12,0 -21,5 -28,15 -8,12 -13,35 -13,69 z"
   class="fil1" /><path
   style="fill:#1f1a17"
   inkscape:connector-curvature="0"
   id="path150"
   d="m 1090,480 25,-3 c 3,14 8,24 15,30 7,7 15,10 25,10 12,0 22,-4 30,-13 8,-8 12,-18 12,-30 0,-11 -4,-21 -11,-28 -8,-8 -17,-12 -29,-12 -5,0 -11,1 -18,3 l 3,-22 c 2,0 3,1 4,1 11,0 20,-3 29,-9 9,-5 13,-14 13,-26 0,-9 -3,-16 -9,-22 -7,-6 -15,-9 -25,-9 -9,0 -17,3 -24,9 -6,6 -11,15 -12,27 l -25,-4 c 3,-17 10,-30 20,-39 11,-9 25,-14 41,-14 11,0 21,2 31,7 9,5 16,11 21,20 5,8 8,17 8,26 0,9 -3,17 -8,24 -4,7 -11,13 -21,17 13,3 22,9 29,18 6,8 10,19 10,33 0,17 -7,32 -20,45 -13,12 -29,18 -49,18 -18,0 -33,-5 -45,-16 -12,-10 -18,-24 -20,-41 z"
   class="fil1" /><path
   style="fill:#1f1a17"
   inkscape:connector-curvature="0"
   id="path152"
   d="m 1248,480 27,-2 c 2,13 6,23 13,29 7,7 16,10 26,10 12,0 22,-5 31,-14 8,-9 12,-21 12,-36 0,-14 -4,-26 -12,-34 -8,-8 -18,-12 -31,-12 -9,0 -16,2 -22,5 -7,4 -12,9 -16,14 l -23,-3 20,-104 h 101 v 24 h -81 l -11,54 c 12,-8 25,-12 38,-12 18,0 33,6 45,18 13,12 19,28 19,48 0,18 -6,34 -16,48 -14,16 -31,24 -54,24 -19,0 -34,-5 -46,-15 -11,-11 -18,-24 -20,-42 z"
   class="fil1" /><path
   style="fill:#1f1a17"
   inkscape:connector-curvature="0"
   id="path154"
   d="m 1407,433 c 0,-24 2,-43 7,-58 5,-15 13,-26 23,-34 9,-8 22,-12 36,-12 11,0 21,2 29,7 9,4 15,10 21,19 5,8 9,18 12,30 4,12 5,28 5,48 0,24 -2,43 -7,58 -5,15 -13,26 -22,34 -10,8 -23,12 -38,12 -19,0 -35,-7 -46,-21 -13,-17 -20,-44 -20,-83 z m 26,0 c 0,34 4,56 11,67 8,11 18,17 29,17 12,0 22,-6 29,-17 8,-11 12,-33 12,-67 0,-33 -4,-56 -12,-67 -7,-11 -17,-16 -29,-16 -11,0 -20,5 -27,14 -9,13 -13,36 -13,69 z"
   class="fil1" /><path
   style="fill:#1f1a17"
   inkscape:connector-curvature="0"
   id="path156"
   d="m 1699,6323 c 0,-24 2,-43 7,-58 5,-15 12,-26 22,-34 10,-8 22,-12 37,-12 11,0 21,2 29,7 8,4 15,10 20,19 6,8 10,18 13,30 3,12 5,28 5,48 0,24 -3,44 -8,58 -5,15 -12,26 -22,34 -10,8 -22,12 -37,12 -20,0 -35,-7 -46,-21 -14,-17 -20,-44 -20,-83 z m 25,0 c 0,34 4,56 12,67 8,11 18,17 29,17 12,0 21,-6 29,-17 8,-11 12,-33 12,-67 0,-33 -4,-56 -12,-67 -8,-11 -17,-16 -29,-16 -12,0 -21,5 -28,14 -8,13 -13,36 -13,69 z"
   class="fil1" /><path
   style="fill:#1f1a17"
   inkscape:connector-curvature="0"
   id="path158"
   d="m 2505,6424 h -25 v -160 c -6,6 -14,12 -23,18 -10,5 -19,10 -27,12 v -24 c 14,-6 26,-14 37,-24 10,-9 18,-18 22,-27 h 16 z"
   class="fil1" /><path
   style="fill:#1f1a17"
   inkscape:connector-curvature="0"
   id="path160"
   d="m 2570,6323 c 0,-24 2,-43 7,-58 5,-15 12,-26 22,-34 10,-8 22,-12 37,-12 11,0 21,2 29,7 8,4 15,10 20,19 6,8 10,18 13,30 3,12 5,28 5,48 0,24 -3,44 -8,58 -5,15 -12,26 -22,34 -10,8 -22,12 -37,12 -20,0 -35,-7 -46,-21 -14,-17 -20,-44 -20,-83 z m 25,0 c 0,34 4,56 12,67 8,11 18,17 29,17 12,0 21,-6 29,-17 8,-11 12,-33 12,-67 0,-33 -4,-56 -12,-67 -8,-11 -18,-16 -29,-16 -12,0 -21,5 -28,14 -8,13 -13,36 -13,69 z"
   class="fil1" /><path
   style="fill:#1f1a17"
   inkscape:connector-curvature="0"
   id="path162"
   d="m 3305,6400 v 24 h -135 c 0,-6 1,-12 3,-17 3,-10 9,-19 16,-28 8,-9 19,-19 33,-31 22,-18 37,-32 45,-43 8,-10 12,-20 12,-30 0,-10 -4,-18 -11,-25 -7,-7 -16,-10 -28,-10 -12,0 -21,3 -29,11 -7,7 -11,17 -11,30 l -25,-3 c 1,-19 8,-34 19,-44 12,-10 27,-15 47,-15 19,0 35,5 46,16 12,11 17,25 17,41 0,8 -1,16 -5,24 -3,8 -8,16 -16,25 -8,8 -21,20 -39,36 -15,12 -25,21 -29,25 -4,5 -8,9 -10,14 z"
   class="fil1" /><path
   style="fill:#1f1a17"
   inkscape:connector-curvature="0"
   id="path164"
   d="m 3332,6323 c 0,-24 2,-43 7,-58 5,-15 12,-26 22,-34 10,-8 22,-12 37,-12 11,0 21,2 29,7 8,4 15,10 20,19 6,8 10,18 13,30 3,12 5,28 5,48 0,24 -3,44 -8,58 -5,15 -12,26 -22,34 -10,8 -22,12 -37,12 -20,0 -35,-7 -46,-21 -14,-17 -20,-44 -20,-83 z m 25,0 c 0,34 4,56 12,67 8,11 18,17 29,17 12,0 21,-6 29,-17 8,-11 12,-33 12,-67 0,-33 -4,-56 -12,-67 -8,-11 -17,-16 -29,-16 -12,0 -21,5 -28,14 -8,13 -13,36 -13,69 z"
   class="fil1" /><path
   style="fill:#1f1a17"
   inkscape:connector-curvature="0"
   id="path166"
   d="m 3977,6364 25,-3 c 3,14 7,24 14,31 7,6 16,9 26,9 11,0 21,-4 29,-12 9,-8 13,-19 13,-31 0,-11 -4,-21 -12,-28 -7,-8 -17,-11 -28,-11 -5,0 -11,1 -18,2 l 3,-22 c 1,1 3,1 4,1 10,0 20,-3 29,-9 8,-5 12,-14 12,-25 0,-10 -3,-17 -9,-23 -6,-6 -14,-9 -24,-9 -10,0 -18,3 -24,9 -7,6 -11,15 -13,28 l -25,-5 c 3,-17 10,-30 21,-39 11,-9 24,-14 40,-14 12,0 22,3 31,7 10,5 17,12 22,20 5,8 7,17 7,26 0,9 -2,17 -7,24 -5,8 -12,13 -21,18 12,2 22,8 28,17 7,9 10,20 10,33 0,18 -6,33 -19,45 -13,13 -30,19 -50,19 -17,0 -32,-6 -44,-16 -12,-11 -19,-25 -20,-42 z"
   class="fil1" /><path
   style="fill:#1f1a17"
   inkscape:connector-curvature="0"
   id="path168"
   d="m 4135,6317 c 0,-24 2,-43 7,-58 5,-15 13,-26 23,-34 9,-8 22,-12 37,-12 10,0 20,2 28,7 9,4 15,11 21,19 5,8 9,18 12,30 4,12 5,28 5,48 0,24 -2,44 -7,58 -5,15 -13,26 -22,35 -10,8 -23,12 -37,12 -20,0 -36,-7 -47,-22 -13,-17 -20,-44 -20,-83 z m 26,0 c 0,34 4,56 12,67 7,11 17,17 29,17 11,0 21,-6 29,-17 7,-11 11,-33 11,-67 0,-33 -4,-55 -11,-66 -8,-12 -18,-17 -30,-17 -11,0 -20,5 -27,15 -9,12 -13,35 -13,68 z"
   class="fil1" /><path
   style="fill:#1f1a17"
   inkscape:connector-curvature="0"
   id="path170"
   d="m 4797,6424 v -49 h -89 v -23 l 94,-132 h 20 v 132 h 28 v 23 h -28 v 49 z m 0,-72 v -92 l -64,92 z"
   class="fil1" /><path
   style="fill:#1f1a17"
   inkscape:connector-curvature="0"
   id="path172"
   d="m 4875,6323 c 0,-24 3,-43 8,-58 5,-15 12,-26 22,-34 10,-8 22,-12 37,-12 11,0 20,2 29,7 8,4 15,10 20,19 5,8 10,18 13,30 3,12 4,28 4,48 0,24 -2,44 -7,58 -5,15 -12,26 -22,34 -10,8 -22,12 -37,12 -20,0 -35,-7 -47,-21 -13,-17 -20,-44 -20,-83 z m 26,0 c 0,34 4,56 12,67 8,11 17,17 29,17 11,0 21,-6 29,-17 8,-11 12,-33 12,-67 0,-33 -4,-56 -12,-67 -8,-11 -18,-16 -30,-16 -11,0 -20,5 -27,14 -9,13 -13,36 -13,69 z"
   class="fil1" /><path
   style="fill:#1f1a17"
   inkscape:connector-curvature="0"
   id="path174"
   d="m 5494,6370 27,-2 c 2,13 6,23 13,29 7,7 16,10 26,10 12,0 22,-5 31,-14 8,-9 12,-21 12,-36 0,-14 -4,-26 -12,-34 -8,-8 -18,-12 -31,-12 -9,0 -16,2 -22,5 -7,4 -12,9 -16,14 l -23,-3 20,-104 h 101 v 24 h -81 l -11,54 c 12,-8 25,-12 38,-12 18,0 33,6 45,18 13,12 19,28 19,48 0,18 -6,34 -16,48 -14,16 -31,24 -54,24 -19,0 -34,-5 -46,-15 -11,-11 -18,-24 -20,-42 z"
   class="fil1" /><path
   style="fill:#1f1a17"
   inkscape:connector-curvature="0"
   id="path176"
   d="m 5653,6323 c 0,-24 2,-43 7,-58 5,-15 13,-26 23,-34 9,-8 22,-12 36,-12 11,0 21,2 29,7 9,4 15,10 21,19 5,8 9,18 12,30 3,12 5,28 5,48 0,24 -2,44 -7,58 -5,15 -13,26 -22,34 -10,8 -23,12 -38,12 -19,0 -35,-7 -46,-21 -13,-17 -20,-44 -20,-83 z m 26,0 c 0,34 4,56 11,67 8,11 18,17 29,17 12,0 22,-6 29,-17 8,-11 12,-33 12,-67 0,-33 -4,-56 -12,-67 -7,-11 -17,-16 -29,-16 -11,0 -21,5 -27,14 -9,13 -13,36 -13,69 z"
   class="fil1" /><path
   style="fill:#1f1a17"
   inkscape:connector-curvature="0"
   id="path178"
   d="m 6402,6270 -25,2 c -2,-10 -5,-17 -9,-22 -7,-7 -15,-10 -25,-10 -8,0 -15,2 -21,6 -8,6 -14,14 -19,25 -4,11 -7,27 -7,48 6,-10 14,-16 22,-21 9,-4 18,-6 28,-6 16,0 31,6 42,18 12,12 18,28 18,48 0,12 -3,24 -8,35 -6,11 -13,20 -23,26 -10,5 -21,8 -33,8 -21,0 -38,-7 -51,-23 -13,-15 -20,-40 -20,-76 0,-39 7,-68 22,-86 13,-15 30,-23 51,-23 16,0 30,4 40,14 10,8 16,21 18,37 z m -102,88 c 0,8 2,17 6,25 3,7 8,13 15,18 6,4 13,6 21,6 10,0 19,-4 27,-13 8,-9 11,-20 11,-35 0,-14 -3,-25 -11,-33 -7,-8 -17,-12 -28,-12 -12,0 -21,4 -29,12 -8,8 -12,19 -12,32 z"
   class="fil1" /><path
   style="fill:#1f1a17"
   inkscape:connector-curvature="0"
   id="path180"
   d="m 6431,6323 c 0,-24 2,-43 7,-58 5,-15 13,-26 22,-34 10,-8 23,-12 37,-12 11,0 21,2 29,7 8,4 15,10 21,19 5,8 9,18 12,30 3,12 5,28 5,48 0,24 -3,44 -7,58 -5,15 -13,26 -23,34 -9,8 -22,12 -37,12 -19,0 -35,-7 -46,-21 -13,-17 -20,-44 -20,-83 z m 26,0 c 0,34 4,56 11,67 8,11 18,17 29,17 12,0 22,-6 29,-17 8,-11 12,-33 12,-67 0,-33 -4,-56 -12,-67 -7,-11 -17,-16 -29,-16 -11,0 -21,5 -27,14 -9,13 -13,36 -13,69 z"
   class="fil1" /><path
   style="fill:#1f1a17"
   inkscape:connector-curvature="0"
   id="path182"
   d="m 7048,6247 v -25 h 132 v 20 c -12,14 -25,32 -38,55 -13,23 -23,47 -30,71 -5,17 -8,36 -9,56 h -26 c 0,-16 3,-36 9,-58 6,-23 15,-45 26,-66 12,-21 24,-39 36,-53 z"
   class="fil1" /><path
   style="fill:#1f1a17"
   inkscape:connector-curvature="0"
   id="path184"
   d="m 7205,6323 c 0,-24 3,-43 8,-58 5,-15 12,-26 22,-34 10,-8 22,-12 37,-12 11,0 20,2 29,7 8,4 15,10 20,19 5,8 10,18 13,30 3,12 4,28 4,48 0,24 -2,44 -7,58 -5,15 -12,26 -22,34 -10,8 -22,12 -37,12 -20,0 -35,-7 -47,-21 -13,-17 -20,-44 -20,-83 z m 26,0 c 0,34 4,56 12,67 8,11 17,17 29,17 11,0 21,-6 29,-17 8,-11 12,-33 12,-67 0,-33 -4,-56 -12,-67 -8,-11 -18,-16 -29,-16 -12,0 -21,5 -28,14 -9,13 -13,36 -13,69 z"
   class="fil1" /><path
   style="fill:#1f1a17"
   inkscape:connector-curvature="0"
   id="path186"
   d="m 7843,6313 c -10,-4 -18,-9 -23,-16 -5,-7 -7,-16 -7,-25 0,-15 5,-28 16,-38 10,-10 24,-15 42,-15 18,0 32,5 43,16 11,10 16,22 16,37 0,10 -2,18 -7,25 -5,7 -12,12 -23,16 13,4 22,11 29,20 7,9 10,20 10,33 0,17 -6,32 -19,44 -12,11 -28,17 -48,17 -21,0 -37,-6 -49,-18 -12,-11 -19,-26 -19,-44 0,-13 4,-24 10,-33 7,-9 17,-16 29,-19 z m -5,-42 c 0,9 3,17 10,23 6,7 14,10 24,10 9,0 17,-3 24,-9 6,-7 9,-14 9,-23 0,-9 -3,-17 -10,-23 -6,-6 -14,-9 -24,-9 -9,0 -17,3 -23,9 -7,6 -10,13 -10,22 z m -8,94 c 0,7 2,14 5,21 4,6 9,12 15,15 7,4 14,6 22,6 12,0 22,-4 30,-12 7,-7 11,-17 11,-29 0,-12 -4,-22 -12,-30 -8,-8 -18,-12 -30,-12 -12,0 -21,4 -29,12 -8,8 -12,17 -12,29 z"
   class="fil1" /><path
   style="fill:#1f1a17"
   inkscape:connector-curvature="0"
   id="path188"
   d="m 7963,6323 c 0,-24 3,-43 8,-58 5,-15 12,-26 22,-34 10,-8 22,-12 37,-12 11,0 20,2 29,7 8,4 15,10 20,19 5,8 10,18 13,30 3,12 4,28 4,48 0,24 -2,44 -7,58 -5,15 -12,26 -22,34 -10,8 -22,12 -37,12 -20,0 -35,-7 -47,-21 -13,-17 -20,-44 -20,-83 z m 26,0 c 0,34 4,56 12,67 8,11 17,17 29,17 11,0 21,-6 29,-17 8,-11 12,-33 12,-67 0,-33 -4,-56 -12,-67 -8,-11 -18,-16 -30,-16 -11,0 -20,5 -27,14 -9,13 -13,36 -13,69 z"
   class="fil1" /><path
   style="fill:#1f1a17"
   inkscape:connector-curvature="0"
   id="path190"
   d="m 8590,6377 24,-3 c 2,12 6,20 11,25 6,5 14,8 23,8 7,0 14,-2 20,-6 6,-3 10,-8 14,-14 4,-6 7,-14 9,-23 3,-11 4,-21 4,-31 0,-1 0,-3 0,-5 -5,8 -12,14 -20,19 -9,5 -19,8 -29,8 -17,0 -31,-6 -43,-19 -11,-12 -17,-28 -17,-48 0,-21 6,-37 18,-50 12,-13 28,-19 46,-19 13,0 25,4 37,11 10,7 19,17 25,30 5,13 8,33 8,58 0,26 -3,47 -8,62 -6,15 -14,27 -26,35 -11,8 -24,12 -39,12 -16,0 -29,-4 -39,-13 -10,-9 -16,-21 -18,-37 z m 102,-90 c 0,-15 -4,-26 -11,-35 -8,-8 -17,-12 -28,-12 -11,0 -21,4 -29,13 -8,9 -12,21 -12,36 0,13 4,23 11,31 8,9 18,13 29,13 12,0 22,-4 29,-13 8,-8 11,-19 11,-33 z"
   class="fil1" /><path
   style="fill:#1f1a17"
   inkscape:connector-curvature="0"
   id="path192"
   d="m 8744,6323 c 0,-24 3,-43 8,-58 5,-15 12,-26 22,-34 10,-8 22,-12 37,-12 11,0 21,2 29,7 8,4 15,10 20,19 6,8 10,18 13,30 3,12 5,28 5,48 0,24 -3,44 -8,58 -5,15 -12,26 -22,34 -10,8 -22,12 -37,12 -20,0 -35,-7 -46,-21 -14,-17 -21,-44 -21,-83 z m 26,0 c 0,34 4,56 12,67 8,11 18,17 29,17 12,0 21,-6 29,-17 8,-11 12,-33 12,-67 0,-33 -4,-56 -12,-67 -8,-11 -18,-16 -29,-16 -12,0 -21,5 -28,14 -8,13 -13,36 -13,69 z"
   class="fil1" /><path
   style="fill:#1f1a17"
   inkscape:connector-curvature="0"
   id="path194"
   d="m 9361,6424 h -25 v -160 c -6,6 -14,12 -23,18 -10,5 -19,10 -27,12 v -24 c 14,-6 26,-14 37,-24 10,-9 18,-18 22,-27 h 16 z"
   class="fil1" /><path
   style="fill:#1f1a17"
   inkscape:connector-curvature="0"
   id="path196"
   d="m 9426,6323 c 0,-24 2,-43 7,-58 5,-15 12,-26 22,-34 10,-8 22,-12 37,-12 11,0 21,2 29,7 8,4 15,10 20,19 6,8 10,18 13,30 3,12 5,28 5,48 0,24 -3,44 -8,58 -5,15 -12,26 -22,34 -10,8 -22,12 -37,12 -20,0 -35,-7 -46,-21 -14,-17 -20,-44 -20,-83 z m 25,0 c 0,34 4,56 12,67 8,11 18,17 29,17 12,0 21,-6 29,-17 8,-11 12,-33 12,-67 0,-33 -4,-56 -12,-67 -8,-11 -17,-16 -29,-16 -12,0 -21,5 -28,14 -8,13 -13,36 -13,69 z"
   class="fil1" /><path
   style="fill:#1f1a17"
   inkscape:connector-curvature="0"
   id="path198"
   d="m 9584,6323 c 0,-24 3,-43 8,-58 4,-15 12,-26 22,-34 9,-8 22,-12 37,-12 11,0 20,2 28,7 9,4 16,10 21,19 5,8 10,18 13,30 3,12 4,28 4,48 0,24 -2,44 -7,58 -5,15 -13,26 -22,34 -10,8 -22,12 -37,12 -20,0 -36,-7 -47,-21 -13,-17 -20,-44 -20,-83 z m 26,0 c 0,34 4,56 12,67 7,11 17,17 29,17 11,0 21,-6 29,-17 7,-11 11,-33 11,-67 0,-33 -4,-56 -11,-67 -8,-11 -18,-16 -30,-16 -11,0 -20,5 -27,14 -9,13 -13,36 -13,69 z"
   class="fil1" /><text
   style="font-weight:normal;font-size:428px;font-family:Wingdings;fill:none;stroke:#00923f;stroke-width:3"
   id="text202"
   corel-charset="ANSI"
   class="fil0 str4 fnt0"
   y="2274"
   x="4636"></text>

<text
   style="font-weight:normal;font-size:428px;font-family:Wingdings;fill:none;stroke:#00923f;stroke-width:3"
   id="text206"
   corel-charset="ANSI"
   class="fil0 str4 fnt0"
   y="3715"
   x="2330" />

<text
   style="font-weight:normal;font-size:428px;font-family:Wingdings;fill:none;stroke:#00923f;stroke-width:3"
   id="text210"
   corel-charset="ANSI"
   class="fil0 str4 fnt0"
   y="3030"
   x="2320" />

<text
   style="font-weight:normal;font-size:428px;font-family:Wingdings;fill:none;stroke:#00923f;stroke-width:3"
   corel-charset="ANSI"
   class="fil0 str4 fnt0"
   y="3030"
   x="2320"
   id="text83172"></text>

<text
   style="font-weight:normal;font-size:428px;font-family:Wingdings;fill:none;stroke:#00923f;stroke-width:3"
   id="text214"
   corel-charset="ANSI"
   class="fil0 str4 fnt0"
   y="2890"
   x="6764"></text>

<text
   style="font-weight:normal;font-size:428px;font-family:Wingdings;fill:none;stroke:#00923f;stroke-width:3"
   id="text218"
   corel-charset="ANSI"
   class="fil0 str4 fnt0"
   y="3103"
   x="8728"></text>

<text
   style="font-weight:normal;font-size:428px;font-family:Wingdings;fill:none;stroke:#00923f;stroke-width:3"
   id="text222"
   corel-charset="ANSI"
   class="fil0 str4 fnt0"
   y="4195"
   x="4634"></text>

<path
   class="fil2"
   d="m 1932,3255 v 0 l -3,-1 h -2 l -2,-1 h -2 l -3,-1 h -2 -2 -3 -2 -2 -3 -2 l -2,1 h -2 l -3,1 -2,1 -2,1 -2,1 -2,1 -2,1 -2,1 -2,2 -1,1 -2,2 -2,1 -1,2 -2,2 -1,2 -1,2 -2,2 -1,2 -1,2 v 0 l -1,3 v 2 l -1,2 -1,2 v 3 2 l -1,2 v 3 2 l 1,2 v 3 2 l 1,2 v 2 l 1,2 1,3 1,2 1,2 1,2 1,2 1,2 2,1 1,2 2,2 1,2 2,1 2,2 2,1 2,1 2,1 2,2 2,1 v 0 l 2,1 h 3 l 2,1 2,1 h 3 2 2 3 2 2 2 3 l 2,-1 h 2 l 2,-1 2,-1 3,-1 2,-1 2,-1 2,-1 1,-1 2,-2 2,-1 2,-2 1,-1 2,-2 1,-2 2,-2 1,-2 1,-2 1,-2 1,-2 v 0 l 1,-2 1,-3 1,-2 v -2 l 1,-3 v -2 -2 -3 -2 -2 -3 -2 l -1,-2 -1,-2 v -2 l -1,-3 -1,-2 -1,-2 -1,-2 -1,-2 -2,-2 -1,-1 -1,-2 -2,-2 -2,-2 -1,-1 -2,-2 -2,-1 -2,-1 -2,-1 -2,-2 -2,-1 -19,44 z"
   id="path224"
   inkscape:connector-curvature="0"
   style="fill:#c80000;fill-opacity:1" /><path
   class="fil2"
   d="m 2390,3491 -472,-203 -10,22 472,203 z"
   id="path226"
   inkscape:connector-curvature="0"
   style="fill:#c80000;fill-opacity:1" />
<text
   xml:space="preserve"
   style="font-style:normal;font-weight:normal;font-size:317.5px;line-height:1.25;font-family:sans-serif;letter-spacing:0px;word-spacing:0px;fill:#c80000;fill-opacity:1;stroke:none;stroke-width:26.45833206;"
   x="4629.0029"
   y="1996.4592"
   id="text83151"><tspan
     sodipodi:role="line"
     id="tspan83149"
     x="4629.0029"
     y="1996.4592"
     style="fill:#c80000;fill-opacity:1;stroke-width:26.45833206;">L</tspan></text>

<text
   xml:space="preserve"
   style="font-style:normal;font-weight:normal;font-size:317.5px;line-height:1.25;font-family:sans-serif;letter-spacing:0px;word-spacing:0px;fill:#c80000;fill-opacity:1;stroke:none;stroke-width:26.45833206;"
   x="2468.0955"
   y="3627.7327"
   id="text83155"><tspan
     sodipodi:role="line"
     id="tspan83153"
     x="2468.0955"
     y="3627.7327"
     style="fill:#c80000;fill-opacity:1;stroke-width:26.45833206;">α</tspan></text>

<text
   xml:space="preserve"
   style="font-style:normal;font-weight:normal;font-size:317.49999758px;line-height:1.25;font-family:sans-serif;letter-spacing:0px;word-spacing:0px;fill:#c80000;fill-opacity:1;fill-rule:evenodd;stroke:none;stroke-width:26.45833588;image-rendering:optimizeQuality;shape-rendering:geometricPrecision;text-rendering:geometricPrecision;-inkscape-font-specification:'sans-serif, Normal';font-stretch:normal;font-variant:normal;text-anchor:start;text-align:start;writing-mode:lr;font-variant-ligatures:normal;font-variant-caps:normal;font-variant-numeric:normal;font-feature-settings:normal;"
   x="2256.3611"
   y="2973.061"
   id="text83155-5"><tspan
     sodipodi:role="line"
     id="tspan83194">α+L</tspan></text>

<text
   xml:space="preserve"
   style="font-style:normal;font-variant:normal;font-weight:normal;font-stretch:normal;font-size:317.5px;line-height:1.25;font-family:sans-serif;-inkscape-font-specification:'sans-serif, Normal';font-variant-ligatures:normal;font-variant-caps:normal;font-variant-numeric:normal;font-feature-settings:normal;text-align:start;letter-spacing:0px;word-spacing:0px;writing-mode:lr-tb;text-anchor:start;fill:#c80000;fill-opacity:1;stroke:none;stroke-width:26.45833206;"
   x="6885.2446"
   y="2843.874"
   id="text87706"><tspan
     sodipodi:role="line"
     id="tspan87704"
     x="6885.2446"
     y="2843.874"
     style="fill:#c80000;fill-opacity:1;stroke-width:26.45833206;">β+L</tspan></text>

<text
   xml:space="preserve"
   style="font-style:normal;font-variant:normal;font-weight:normal;font-stretch:normal;font-size:317.5px;line-height:1.25;font-family:sans-serif;-inkscape-font-specification:'sans-serif, Normal';font-variant-ligatures:normal;font-variant-caps:normal;font-variant-numeric:normal;font-feature-settings:normal;text-align:start;letter-spacing:0px;word-spacing:0px;writing-mode:lr-tb;text-anchor:start;fill:#c80000;fill-opacity:1;stroke:none;stroke-width:26.45833206;"
   x="8844.8906"
   y="3172.2471"
   id="text87710"><tspan
     sodipodi:role="line"
     id="tspan87712"
     x="8844.8906"
     y="3172.2471">β</tspan></text>

<text
   xml:space="preserve"
   style="font-style:normal;font-variant:normal;font-weight:normal;font-stretch:normal;font-size:317.5px;line-height:1.25;font-family:sans-serif;-inkscape-font-specification:'sans-serif, Normal';font-variant-ligatures:normal;font-variant-caps:normal;font-variant-numeric:normal;font-feature-settings:normal;text-align:start;letter-spacing:0px;word-spacing:0px;writing-mode:lr-tb;text-anchor:start;fill:#c80000;fill-opacity:1;stroke:none;stroke-width:26.45833206;"
   x="5084.4883"
   y="4570.4814"
   id="text87716"><tspan
     sodipodi:role="line"
     id="tspan87714"
     x="5084.4883"
     y="4570.4814"
     style="stroke-width:26.45833206;fill:#c80000;fill-opacity:1;">α+β</tspan></text>

</svg>