<?xml version="1.0" encoding="UTF-8" standalone="no"?>
<!-- Created with Inkscape (http://www.inkscape.org/) -->

<svg
   xmlns:dc="http://purl.org/dc/elements/1.1/"
   xmlns:cc="http://creativecommons.org/ns#"
   xmlns:rdf="http://www.w3.org/1999/02/22-rdf-syntax-ns#"
   xmlns:svg="http://www.w3.org/2000/svg"
   xmlns="http://www.w3.org/2000/svg"
   xmlns:inkscape="http://www.inkscape.org/namespaces/inkscape"
   version="1.1"
   width="240.60797"
   height="232.85001"
   id="svg2">
  <defs
     id="defs4">
    <inkscape:path-effect
       effect="spiro"
       id="path-effect4312" />
    <inkscape:path-effect
       effect="spiro"
       id="path-effect3978" />
    <inkscape:path-effect
       effect="spiro"
       id="path-effect3839" />
    <inkscape:path-effect
       effect="spiro"
       id="path-effect3835" />
    <inkscape:path-effect
       effect="spiro"
       id="path-effect3831" />
    <inkscape:path-effect
       effect="spiro"
       id="path-effect3827" />
    <inkscape:path-effect
       effect="spiro"
       id="path-effect3823" />
    <inkscape:path-effect
       effect="spiro"
       id="path-effect3819" />
    <inkscape:path-effect
       effect="spiro"
       id="path-effect3815" />
    <inkscape:path-effect
       effect="spiro"
       id="path-effect3811" />
    <inkscape:path-effect
       effect="spiro"
       id="path-effect3807" />
    <inkscape:path-effect
       effect="spiro"
       id="path-effect3803" />
    <inkscape:path-effect
       effect="spiro"
       id="path-effect3799" />
    <inkscape:path-effect
       effect="spiro"
       id="path-effect3795" />
  </defs>
  <metadata
     id="metadata7">
    <rdf:RDF>
      <cc:Work
         rdf:about="">
        <dc:format>image/svg+xml</dc:format>
        <dc:type
           rdf:resource="http://purl.org/dc/dcmitype/StillImage" />
        <dc:title></dc:title>
      </cc:Work>
    </rdf:RDF>
  </metadata>
  <g
     transform="translate(-264.64497,-293.33932)"
     id="layer1">
    <g
       transform="matrix(1,0,0,0.95848287,-200.44186,-329.91143)"
       id="g3147">
      <path
         d="m 501.89095,714.33401 c 0,0 33.23948,-11.63914 50.4744,-11.2676 9.03586,0.19479 21.17912,0.27538 26.18336,7.04225 3.79834,5.1362 2.06368,13.59941 -2.38031,18.30986 -3.54544,3.75803 -10.4932,3.19222 -15.86869,4.22535 -7.73321,1.48626 -15.63085,1.93169 -23.45567,2.81691 -8.83692,0.99971 -17.64206,3.10297 -26.53075,2.81689 -8.31462,-0.26761 -17.88595,0.18645 -24.59649,-4.22535 -4.08799,-2.68763 -5.91461,-7.58963 -7.14092,-11.97183 -1.97634,-7.06241 -3.13755,-15.10791 0,-21.83098 1.86075,-3.98716 6.32249,-6.69119 10.31466,-9.15493 5.73279,-3.53796 12.28837,-6.17452 19.04244,-7.74648 6.16118,-1.43397 12.67795,-1.344 19.04245,-1.40845 8.7665,-0.0888 17.60333,0.0419 26.26311,1.40844 9.03799,1.42626 19.09455,4.62133 26.53076,7.04226 9.65755,2.25798 9.20007,5.14341 18.44633,4.22535 4.11253,-0.45078 11.31973,0.371 16.83111,-0.70422 8.20877,-1.60145 16.28399,-4.44277 23.62463,-8.45071 5.40454,-2.95085 9.57454,-7.76457 14.63866,-11.2676 3.66771,-2.53709 7.3965,-5.02862 11.37572,-7.04225 3.92704,-1.98724 7.85051,-5.08692 12.24892,-4.92958 5.88241,0.21043 12.91499,3.07355 15.8687,7.74647 2.84983,4.50859 0.59687,10.47274 -0.79344,15.49296 -2.09,7.54669 -5.01063,16.01556 -11.10808,21.12676 -8.29401,6.95248 -20.54002,6.84556 -30.93453,9.85915 -9.80031,2.84133 -20.09884,4.06455 -29.61527,7.74649 -7.54938,2.92088 -14.41175,7.3802 -21.51195,11.2676 -12.44555,6.81401 -23.27398,17.35945 -36.95352,21.12676 -12.49634,3.44146 -26.11356,-1.29575 -38.87833,0.70423 -11.28388,1.76796 -25.331,1.94755 -32.53083,9.85915 -5.68924,6.25167 -6.1432,16.35188 -3.17375,23.94367 3.18934,8.15396 12.03249,14.27505 20.62931,18.30985 13.80229,6.47791 30.40648,7.84967 46.01924,7.74648 10.52913,-0.0696 20.76207,-3.13425 30.94397,-5.6338 16.12883,-3.95945 31.05596,-13.10135 47.57774,-14.78873 7.17411,-0.7327 14.58569,0.17128 21.53088,2.11267 7.31694,2.04531 15.04637,4.62125 20.54956,9.85916 7.54294,7.17933 16.00172,17.11118 14.8874,27.46479 -1.16046,10.78228 -11.59547,19.67939 -21.23489,24.64789 -11.33232,5.84107 -25.48716,5.3418 -38.08488,3.5211 -12.61665,-1.82344 -24.22605,-7.85704 -34.91115,-14.0845 -6.2608,-3.6489 -11.98829,-8.18564 -16.66214,-13.3803 -9.08913,-10.10196 -12.57936,-23.8155 -21.42275,-33.80278 -4.91207,-5.54745 -10.47454,-10.96908 -17.19739,-14.08451 -7.07252,-3.27747 -15.3795,-5.86478 -23.00017,-4.22535 -10.48346,2.25531 -20.37177,9.47625 -26.45098,18.30986 -3.15128,4.57908 -3.10145,10.70636 -3.96718,16.19718 -1.13634,7.20716 -3.11701,14.69704 -1.58687,21.83097 2.2939,10.6948 6.36133,23.00454 15.59162,28.8733 10.42874,6.63075 24.65626,2.06452 37.01437,2.11268 9.54216,0.0372 19.12576,-2.61022 28.59202,-1.4085 7.05184,0.89522 20.36168,6.33805 20.36168,6.33805"
         id="path3091"
         style="fill:none;stroke:#000000;stroke-width:3.06428456;stroke-miterlimit:4;stroke-opacity:1;stroke-dasharray:none;stroke-dashoffset:0" />
      <path
         d="m 493.65116,688.9819 c 0,0 -3.43082,-9.15056 -0.79344,-12.67606 4.34967,-5.8144 14.53051,-5.5663 22.21618,-7.04225 12.45086,-2.39106 25.41184,-4.01589 38.08489,-2.8169 13.50944,1.27812 25.7502,10.93388 39.31491,10.56338 10.53568,-0.28777 30.04243,-9.85916 30.04243,-9.85916"
         id="path3099"
         style="fill:none;stroke:#000000;stroke-width:3.06428456;stroke-miterlimit:4;stroke-opacity:1;stroke-dasharray:none;stroke-dashoffset:0" />
      <path
         d="m 680.10841,707.99598 c 0,0 1.38409,15.61572 -1.58687,22.53522 -2.0081,4.67694 -5.96629,8.60676 -10.3052,11.2676 -4.49766,2.75819 -10.03336,3.46073 -15.2537,4.22536 -11.25178,1.64806 -22.96566,-1.56768 -34.10825,0.70421 -11.11658,2.26659 -22.56721,5.7947 -31.58734,12.67606 -7.02795,5.36155 -13.80809,12.57052 -16.02823,21.12676 -1.25057,4.81958 -1.75954,11.64689 2.10324,14.78874 5.70805,4.64272 14.90182,0.42181 22.02831,-1.40845 6.42008,-1.64883 11.78251,-6.15389 18.00029,-8.45071 8.29246,-3.0632 16.79073,-5.99254 25.56833,-7.04225 7.58966,-0.90765 15.59468,-1.47761 22.92041,0.70422 9.49689,2.82848 25.37103,15.49296 25.37103,15.49296"
         id="path3101"
         style="fill:none;stroke:#000000;stroke-width:3.06428456;stroke-miterlimit:4;stroke-opacity:1;stroke-dasharray:none;stroke-dashoffset:0" />
      <path
         d="m 485.7168,841.79879 c 0,0 9.40465,3.58236 14.28184,4.9296 9.86163,2.72412 19.82819,6.0291 30.15053,6.338 6.43138,0.19246 12.61326,-2.57333 19.04244,-2.8169 6.62705,-0.25106 13.53889,-0.66184 19.83589,1.4085 10.83896,3.56366 18.4384,13.80335 28.9205,18.30983 14.07623,6.05167 44.56353,11.26765 44.56353,11.26765"
         id="path3103"
         style="fill:none;stroke:#000000;stroke-width:3.06428456;stroke-miterlimit:4;stroke-opacity:1;stroke-dasharray:none;stroke-dashoffset:0" />
      <path
         d="m 304.22536,687.57343 a 6.338028,6.338028 0 1 1 -12.67606,0 6.338028,6.338028 0 1 1 12.67606,0 z"
         transform="translate(195.77464,0.70425028)"
         id="path3907-04"
         style="fill:#ff0000;fill-opacity:1;stroke:#000000;stroke-width:1.02142811;stroke-miterlimit:4;stroke-opacity:1;stroke-dasharray:none;stroke-dashoffset:0" />
      <path
         d="m 304.22536,687.57343 a 6.338028,6.338028 0 1 1 -12.67606,0 6.338028,6.338028 0 1 1 12.67606,0 z"
         transform="translate(381.69014,20.42256)"
         id="path3907-542"
         style="fill:#ff0000;fill-opacity:1;stroke:#000000;stroke-width:1.02142811;stroke-miterlimit:4;stroke-opacity:1;stroke-dasharray:none;stroke-dashoffset:0" />
      <path
         d="m 304.22536,687.57343 a 6.338028,6.338028 0 1 1 -12.67606,0 6.338028,6.338028 0 1 1 12.67606,0 z"
         transform="translate(187.32394,153.52115)"
         id="path3907-63"
         style="fill:#ff0000;fill-opacity:1;stroke:#000000;stroke-width:1.02142811;stroke-miterlimit:4;stroke-opacity:1;stroke-dasharray:none;stroke-dashoffset:0" />
    </g>
  </g>
</svg>
