<?xml version="1.0" encoding="UTF-8" standalone="no"?>
<!-- Created with Inkscape (http://www.inkscape.org/) -->

<svg
   xmlns:dc="http://purl.org/dc/elements/1.1/"
   xmlns:cc="http://creativecommons.org/ns#"
   xmlns:rdf="http://www.w3.org/1999/02/22-rdf-syntax-ns#"
   xmlns:svg="http://www.w3.org/2000/svg"
   xmlns="http://www.w3.org/2000/svg"
   xmlns:sodipodi="http://sodipodi.sourceforge.net/DTD/sodipodi-0.dtd"
   xmlns:inkscape="http://www.inkscape.org/namespaces/inkscape"
   width="227.56738"
   height="218.9046"
   id="svg2"
   version="1.1"
   inkscape:version="0.48.5 r10040"
   sodipodi:docname="Polymerstruktur-weitmaschig vernetzt.svg">
  <defs
     id="defs4">
    <inkscape:path-effect
       effect="spiro"
       id="path-effect4312"
       is_visible="true" />
    <inkscape:path-effect
       effect="spiro"
       id="path-effect3978"
       is_visible="true" />
    <inkscape:path-effect
       effect="spiro"
       id="path-effect3839"
       is_visible="true" />
    <inkscape:path-effect
       effect="spiro"
       id="path-effect3835"
       is_visible="true" />
    <inkscape:path-effect
       effect="spiro"
       id="path-effect3831"
       is_visible="true" />
    <inkscape:path-effect
       effect="spiro"
       id="path-effect3827"
       is_visible="true" />
    <inkscape:path-effect
       effect="spiro"
       id="path-effect3823"
       is_visible="true" />
    <inkscape:path-effect
       effect="spiro"
       id="path-effect3819"
       is_visible="true" />
    <inkscape:path-effect
       effect="spiro"
       id="path-effect3815"
       is_visible="true" />
    <inkscape:path-effect
       effect="spiro"
       id="path-effect3811"
       is_visible="true" />
    <inkscape:path-effect
       effect="spiro"
       id="path-effect3807"
       is_visible="true" />
    <inkscape:path-effect
       effect="spiro"
       id="path-effect3803"
       is_visible="true" />
    <inkscape:path-effect
       effect="spiro"
       id="path-effect3799"
       is_visible="true" />
    <inkscape:path-effect
       effect="spiro"
       id="path-effect3795"
       is_visible="true" />
  </defs>
  <sodipodi:namedview
     id="base"
     pagecolor="#ffffff"
     bordercolor="#666666"
     borderopacity="1.0"
     inkscape:pageopacity="0.0"
     inkscape:pageshadow="2"
     inkscape:zoom="0.48"
     inkscape:cx="250.68057"
     inkscape:cy="360.23763"
     inkscape:document-units="px"
     inkscape:current-layer="layer1"
     showgrid="false"
     inkscape:window-width="1426"
     inkscape:window-height="1026"
     inkscape:window-x="59"
     inkscape:window-y="30"
     inkscape:window-maximized="0"
     fit-margin-top="10"
     fit-margin-left="10"
     fit-margin-right="10"
     fit-margin-bottom="10" />
  <metadata
     id="metadata7">
    <rdf:RDF>
      <cc:Work
         rdf:about="">
        <dc:format>image/svg+xml</dc:format>
        <dc:type
           rdf:resource="http://purl.org/dc/dcmitype/StillImage" />
        <dc:title></dc:title>
      </cc:Work>
    </rdf:RDF>
  </metadata>
  <g
     inkscape:label="Ebene 1"
     inkscape:groupmode="layer"
     id="layer1"
     transform="translate(-182.77963,-385.33733)">
    <g
       id="g4454"
       transform="matrix(0.95488157,0,0,0.97937332,-218.41625,-277.92062)">
      <path
         sodipodi:nodetypes="caaaaaaac"
         inkscape:connector-curvature="0"
         id="path3001-1"
         d="m 472.57679,705.94065 c 0,0 7.19331,11.60789 12.95832,14.65518 4.05175,2.14169 9.06437,1.97728 13.64033,1.72413 4.90304,-0.27125 9.46563,-2.72323 14.32235,-3.44827 4.73033,-0.70617 10.44963,1.94451 14.32234,-0.86207 3.50311,-2.53873 2.05303,-8.70556 4.77413,-12.06897 3.26305,-4.03328 8.21559,-6.51794 12.95831,-8.62069 4.28732,-1.90084 8.95118,-3.52716 13.64033,-3.44827 8.28112,0.13932 23.87058,6.89655 23.87058,6.89655"
         style="fill:none;stroke:#000000;stroke-width:3.10221839;stroke-miterlimit:4;stroke-opacity:1;stroke-dasharray:none;stroke-dashoffset:0" />
      <path
         sodipodi:nodetypes="caaaaaaaaaaaaaaaaaaaaac"
         inkscape:connector-curvature="0"
         id="path3771-7"
         d="m 527.82013,718.00963 c 0,0 -3.40211,16.00613 -0.68201,23.27585 0.82224,2.19751 2.70879,4.05907 4.77412,5.17241 4.66477,2.51463 10.41696,3.14897 15.68637,2.58622 3.88879,-0.41531 7.11045,-5.22761 10.91227,-4.31034 3.34731,0.80761 3.82201,6.06515 6.82016,7.75862 4.22407,2.38592 9.98152,4.75242 14.32236,2.58619 3.16652,-1.58019 3.79745,-6.08128 4.77411,-9.48275 1.354,-4.71564 -1.36322,-10.57687 1.36404,-14.65518 1.71395,-2.563 5.13966,-4.79768 8.18419,-4.31034 3.55229,0.56862 6.56029,4.28661 7.50219,7.75862 1.00662,3.71061 -4.82439,7.98396 -2.72807,11.2069 1.76345,2.71116 6.52296,2.86775 9.54823,1.72413 2.74191,-1.0365 4.49336,-4.12789 5.45613,-6.89655 0.0944,-0.27141 0,-0.57471 0,-0.86207 0,-4.02299 1.03834,-8.18228 0,-12.06896 -0.94125,-3.52323 -4.62238,-5.93255 -5.45613,-9.48276 -0.85564,-3.64342 -1.95688,-8.55306 0.68202,-11.2069 3.0524,-3.06968 8.84488,-2.21106 12.95831,-0.86207 2.5424,0.83378 4.33058,3.19969 6.13815,5.17242 2.13592,2.3311 2.58292,6.43921 5.45613,7.75862 2.69843,1.23915 6.78553,1.25636 8.86622,-0.86207 2.01986,-2.0565 0.68202,-8.62069 0.68202,-8.62069"
         style="fill:none;stroke:#000000;stroke-width:3.10221839;stroke-miterlimit:4;stroke-opacity:1;stroke-dasharray:none;stroke-dashoffset:0" />
      <path
         sodipodi:nodetypes="caaaaaaaaaaaaaaaaaaaaaaaac"
         inkscape:connector-curvature="0"
         id="path3773-1"
         d="m 566.01307,752.49239 c 0,0 -4.77595,14.8718 -2.04605,21.55172 1.34959,3.30237 5.05882,5.17636 8.1842,6.89655 2.50646,1.37954 5.76894,1.05257 8.18419,2.58621 3.96144,2.51545 8.61558,5.74585 9.54824,10.34483 0.66762,3.29208 -1.21171,6.94295 -3.41008,9.48276 -3.20231,3.69967 -10.27544,2.80455 -12.95833,6.89655 -1.5805,2.41061 -2.01788,6.06638 -0.68201,8.62069 1.58567,3.03195 5.68495,3.91281 8.86622,5.17241 4.77143,1.88922 11.70307,-0.48074 15.00436,3.44828 2.77669,3.30466 2.34217,8.94673 0.68202,12.93103 -1.99213,4.78104 -6.82642,8.32135 -11.59428,10.34483 -3.56745,1.51403 -7.85383,1.87595 -11.59429,0.86207 -5.86338,-1.58932 -11.41904,-5.44069 -15.00436,-10.34483 -2.3045,-3.15219 -2.43778,-7.42515 -3.41008,-11.2069 -1.09692,-4.26647 -3.29583,-8.56255 -2.72807,-12.93103 0.4561,-3.5094 5.35105,-5.99119 4.77412,-9.48276 -0.46775,-2.83084 -3.48268,-4.94777 -6.13815,-6.03448 -2.52483,-1.03324 -5.46277,-0.19017 -8.1842,0 -6.18331,0.43208 -13.48032,6.33779 -18.41445,2.5862 -2.7687,-2.10514 -0.20774,-7.06453 -1.36403,-10.34482 -1.4538,-4.12428 -3.88989,-7.96087 -6.82017,-11.2069 -2.86785,-3.17688 -6.17366,-6.39436 -10.23024,-7.75862 -1.50836,-0.50728 -3.52108,0.98099 -4.77413,0 -3.72924,-2.91954 -0.0699,-10.43539 -3.41008,-13.7931 -2.48062,-2.49366 -10.23025,-2.58621 -10.23025,-2.58621"
         style="fill:none;stroke:#000000;stroke-width:3.10221839;stroke-miterlimit:4;stroke-opacity:1;stroke-dasharray:none;stroke-dashoffset:0" />
      <path
         sodipodi:nodetypes="caaaaaaac"
         inkscape:connector-curvature="0"
         id="path3775-0"
         d="m 614.43624,739.56134 c 0,0 14.32426,4.4108 17.73244,10.34483 2.57609,4.48527 0.35846,10.35726 0,15.51724 -0.34183,4.92058 0.87356,10.67966 -2.04605,14.65517 -2.38269,3.24442 -8.38619,2.03834 -10.91227,5.17242 -3.14747,3.90503 -4.79669,9.83509 -3.41008,14.65517 1.24011,4.31085 5.35921,7.87859 9.54823,9.48276 5.31438,2.03513 12.2532,2.19916 17.05041,-0.86207 2.46479,-1.57285 4.0921,-7.75862 4.0921,-7.75862"
         style="fill:none;stroke:#000000;stroke-width:3.10221839;stroke-miterlimit:4;stroke-opacity:1;stroke-dasharray:none;stroke-dashoffset:0" />
      <path
         sodipodi:nodetypes="caaaaaaaaac"
         inkscape:connector-curvature="0"
         id="path3777-9"
         d="m 499.85746,687.83721 c 0,0 -0.90936,3.44827 -1.36404,5.17242 -0.68202,2.58621 -0.55823,5.53601 -2.04605,7.75861 -1.58717,2.37104 -4.14538,4.1792 -6.82016,5.17241 -5.12481,1.90296 -10.94803,0.3096 -16.3684,1.01992 -5.5181,0.72314 -10.8385,3.91705 -16.3684,3.29044 -3.46982,-0.39317 -7.00448,-1.91796 -9.54823,-4.31035 -1.41992,-1.33544 -1.95802,-3.38171 -2.72807,-5.17241 -0.83907,-1.95121 -1.70044,-3.93882 -2.04605,-6.03448 -0.0468,-0.28353 0.0369,-0.5771 0,-0.86207 -0.22924,-1.76829 -1.36403,-5.17242 -1.36403,-5.17242"
         style="fill:none;stroke:#000000;stroke-width:3.10221839;stroke-miterlimit:4;stroke-opacity:1;stroke-dasharray:none;stroke-dashoffset:0" />
      <path
         sodipodi:nodetypes="caaaaaaaaaaaaaaaaaaaaaaaaaaaaaaaaaaaaac"
         inkscape:connector-curvature="0"
         id="path3779-3"
         d="m 633.5327,858.52687 c 0,0 -9.41623,-3.65656 -14.32234,-3.44828 -4.54803,0.19307 -8.98695,2.08544 -12.95831,4.31035 -3.11235,1.74366 -5.75071,4.28788 -8.1842,6.89655 -3.15533,3.38248 -4.26341,8.75237 -8.1842,11.2069 -4.11201,2.57424 -9.47652,2.817 -14.32235,2.5862 -4.24565,-0.20222 -9.12025,-0.6012 -12.2763,-3.44827 -1.37673,-1.24195 -2.5318,-3.38305 -2.04605,-5.17242 1.58812,-5.85021 11.12713,-6.05542 14.32235,-11.20689 3.5571,-5.7349 7.34177,-13.91305 4.0921,-19.82759 -1.17079,-2.13089 -4.42504,-3.00434 -6.82017,-2.58621 -9.13982,1.59559 -13.11325,13.45444 -21.14251,18.10344 -6.68167,3.86874 -14.14057,7.00459 -21.82453,7.75862 -9.83336,0.96495 -20.19801,-0.52975 -29.32671,-4.31034 -4.44951,-1.84273 -9.10094,-4.50038 -11.59429,-8.62069 -2.25933,-3.73359 -3.15189,-8.7095 -2.04605,-12.93104 0.3714,-1.4178 1.32287,-3.03171 2.72807,-3.44827 6.90037,-2.04554 13.32173,5.9814 20.46049,6.89655 4.06888,0.52161 8.43634,0.58104 12.2763,-0.86207 5.34171,-2.00747 11.39345,-5.09932 13.64033,-10.34483 1.5941,-3.72155 2.07507,-9.93268 -1.36403,-12.06895 -4.31176,-2.67836 -9.33252,6.10325 -14.32234,5.17241 -4.73723,-0.88373 -6.39836,-7.7955 -10.91227,-9.48276 -2.98128,-1.11438 -6.3668,-0.0913 -9.54823,0 -5.00764,0.14374 -10.01718,0.38769 -15.00437,0.86207 -4.33792,0.41262 -8.93871,3.40658 -12.95831,1.72414 -6.96977,-2.91726 -12.7421,-10.60136 -13.64033,-18.10345 -0.40927,-3.41826 1.55969,-7.15061 4.09209,-9.48276 2.64709,-2.43778 6.75473,-4.38135 10.23025,-3.44827 3.3256,0.89283 3.6829,6.33935 6.82017,7.75862 3.10694,1.40555 7.43586,1.9545 10.23025,0 3.25884,-2.27936 3.74245,-7.24542 4.0921,-11.2069 0.69261,-7.84711 -0.42666,-16.30296 -4.0921,-23.27586 -2.67009,-5.0794 -6.96537,-9.89556 -12.2763,-12.06897 -3.57684,-1.46376 -7.80608,0.76546 -11.59428,0 -5.80336,-1.17266 -14.30259,-1.34799 -16.3684,-6.89655 -1.78961,-4.80671 8.10891,-8.8286 6.82016,-13.7931 -1.52643,-5.88006 -9.20398,-8.53907 -15.00436,-10.34483 -2.60476,-0.81091 -8.1842,0 -8.1842,0"
         style="fill:none;stroke:#000000;stroke-width:3.10221839;stroke-miterlimit:4;stroke-opacity:1;stroke-dasharray:none;stroke-dashoffset:0" />
      <path
         sodipodi:nodetypes="caaaaaaac"
         inkscape:connector-curvature="0"
         id="path3783-0"
         d="m 458.25445,745.59583 c 0,0 0.69953,11.88931 4.09209,16.37931 1.73866,2.30111 6.95752,1.47816 7.50219,4.31034 0.55358,2.87855 -3.16228,5.07155 -5.45614,6.89656 -3.15001,2.50617 -6.89155,4.97915 -10.91226,5.17242 -3.38004,0.16247 -6.80205,-1.47104 -9.54823,-3.44828 -2.08148,-1.49867 -3.32077,-3.92111 -4.77412,-6.03448 -2.27199,-3.3038 -2.65384,-8.36076 -6.13815,-10.34483 -0.59267,-0.33748 -2.04605,0 -2.04605,0"
         style="fill:none;stroke:#000000;stroke-width:3.10221839;stroke-miterlimit:4;stroke-opacity:1;stroke-dasharray:none;stroke-dashoffset:0" />
      <path
         sodipodi:nodetypes="caaaaaaaaaaac"
         inkscape:connector-curvature="0"
         id="path3785-7"
         d="m 434.38387,806.80272 c 0,0 10.56404,8.03928 16.36839,11.20691 5.84674,3.19075 16.0405,1.5353 18.41445,7.75861 1.13369,2.97198 -1.79348,6.422 -4.0921,8.62069 -3.20887,3.06938 -8.87301,2.32012 -12.2763,5.17241 -2.88584,2.41861 -5.07141,5.87169 -6.13814,9.48276 -0.48845,1.6535 -0.61954,3.56343 0,5.17241 0.97444,2.53067 3.63263,4.02733 5.45613,6.03449 3.40117,3.74374 5.86209,8.65683 10.23024,11.20689 4.4319,2.58727 10.03109,4.71408 15.00437,3.44828 2.94173,-0.74873 4.06681,-4.75641 6.82016,-6.03448 5.41808,-2.51501 12.69181,0.61894 17.73243,-2.58621 1.74266,-1.10809 3.41009,-5.17241 3.41009,-5.17241"
         style="fill:none;stroke:#000000;stroke-width:3.10221839;stroke-miterlimit:4;stroke-opacity:1;stroke-dasharray:none;stroke-dashoffset:0" />
      <path
         sodipodi:nodetypes="caaaaaaac"
         inkscape:connector-curvature="0"
         id="path3787-8"
         d="m 463.7772,872.4778 c 0,0 -3.03296,10.66408 -7.56881,11.91113 -2.4563,0.67532 -4.65071,-2.11301 -6.82016,-3.44828 -2.88653,-1.77662 -6.3684,-3.17242 -8.1842,-6.03448 -3.13848,-4.94686 -2.99281,-11.3978 -3.41008,-17.24138 -0.30743,-4.30537 -0.29237,-8.72611 0.68201,-12.93103 0.91662,-3.95566 3.76701,-7.27331 4.77412,-11.2069 0.57296,-2.23788 1.45376,-4.71921 0.68202,-6.89655 -0.54006,-1.52368 -3.41008,-3.44828 -3.41008,-3.44828"
         style="fill:none;stroke:#000000;stroke-width:3.10221839;stroke-miterlimit:4;stroke-opacity:1;stroke-dasharray:none;stroke-dashoffset:0" />
      <path
         d="m 304.22536,687.57343 c 0,3.50039 -2.83763,6.33802 -6.33803,6.33802 -3.5004,0 -6.33803,-2.83763 -6.33803,-6.33802 0,-3.5004 2.83763,-6.33803 6.33803,-6.33803 3.5004,0 6.33803,2.83763 6.33803,6.33803 z"
         sodipodi:ry="6.338028"
         sodipodi:rx="6.338028"
         sodipodi:cy="687.57343"
         sodipodi:cx="297.88733"
         id="path3907-6"
         style="fill:#ff0000;fill-opacity:1;stroke:#000000;stroke-width:1.03407276;stroke-miterlimit:4;stroke-opacity:1;stroke-dasharray:none;stroke-dashoffset:0"
         sodipodi:type="arc"
         transform="translate(176.05633,20.42256)" />
      <path
         d="m 304.22536,687.57343 c 0,3.50039 -2.83763,6.33802 -6.33803,6.33802 -3.5004,0 -6.33803,-2.83763 -6.33803,-6.33802 0,-3.5004 2.83763,-6.33803 6.33803,-6.33803 3.5004,0 6.33803,2.83763 6.33803,6.33803 z"
         sodipodi:ry="6.338028"
         sodipodi:rx="6.338028"
         sodipodi:cy="687.57343"
         sodipodi:cx="297.88733"
         id="path3907-2"
         style="fill:#ff0000;fill-opacity:1;stroke:#000000;stroke-width:1.03407276;stroke-miterlimit:4;stroke-opacity:1;stroke-dasharray:none;stroke-dashoffset:0"
         sodipodi:type="arc"
         transform="translate(229.57746,30.281715)" />
      <path
         d="m 304.22536,687.57343 c 0,3.50039 -2.83763,6.33802 -6.33803,6.33802 -3.5004,0 -6.33803,-2.83763 -6.33803,-6.33802 0,-3.5004 2.83763,-6.33803 6.33803,-6.33803 3.5004,0 6.33803,2.83763 6.33803,6.33803 z"
         sodipodi:ry="6.338028"
         sodipodi:rx="6.338028"
         sodipodi:cy="687.57343"
         sodipodi:cx="297.88733"
         id="path3907-60"
         style="fill:#ff0000;fill-opacity:1;stroke:#000000;stroke-width:1.03407276;stroke-miterlimit:4;stroke-opacity:1;stroke-dasharray:none;stroke-dashoffset:0"
         sodipodi:type="arc"
         transform="translate(267.60563,64.788757)" />
      <path
         d="m 304.22536,687.57343 c 0,3.50039 -2.83763,6.33802 -6.33803,6.33802 -3.5004,0 -6.33803,-2.83763 -6.33803,-6.33802 0,-3.5004 2.83763,-6.33803 6.33803,-6.33803 3.5004,0 6.33803,2.83763 6.33803,6.33803 z"
         sodipodi:ry="6.338028"
         sodipodi:rx="6.338028"
         sodipodi:cy="687.57343"
         sodipodi:cx="297.88733"
         id="path3907-7"
         style="fill:#ff0000;fill-opacity:1;stroke:#000000;stroke-width:1.03407276;stroke-miterlimit:4;stroke-opacity:1;stroke-dasharray:none;stroke-dashoffset:0"
         sodipodi:type="arc"
         transform="translate(316.9014,51.408476)" />
      <path
         d="m 304.22536,687.57343 c 0,3.50039 -2.83763,6.33802 -6.33803,6.33802 -3.5004,0 -6.33803,-2.83763 -6.33803,-6.33802 0,-3.5004 2.83763,-6.33803 6.33803,-6.33803 3.5004,0 6.33803,2.83763 6.33803,6.33803 z"
         sodipodi:ry="6.338028"
         sodipodi:rx="6.338028"
         sodipodi:cy="687.57343"
         sodipodi:cx="297.88733"
         id="path3907-1"
         style="fill:#ff0000;fill-opacity:1;stroke:#000000;stroke-width:1.03407276;stroke-miterlimit:4;stroke-opacity:1;stroke-dasharray:none;stroke-dashoffset:0"
         sodipodi:type="arc"
         transform="translate(192.25352,71.126785)" />
      <path
         d="m 304.22536,687.57343 c 0,3.50039 -2.83763,6.33802 -6.33803,6.33802 -3.5004,0 -6.33803,-2.83763 -6.33803,-6.33802 0,-3.5004 2.83763,-6.33803 6.33803,-6.33803 3.5004,0 6.33803,2.83763 6.33803,6.33803 z"
         sodipodi:ry="6.338028"
         sodipodi:rx="6.338028"
         sodipodi:cy="687.57343"
         sodipodi:cx="297.88733"
         id="path3907-5"
         style="fill:#ff0000;fill-opacity:1;stroke:#000000;stroke-width:1.03407276;stroke-miterlimit:4;stroke-opacity:1;stroke-dasharray:none;stroke-dashoffset:0"
         sodipodi:type="arc"
         transform="translate(160.56338,57.042278)" />
      <path
         d="m 304.22536,687.57343 c 0,3.50039 -2.83763,6.33802 -6.33803,6.33802 -3.5004,0 -6.33803,-2.83763 -6.33803,-6.33802 0,-3.5004 2.83763,-6.33803 6.33803,-6.33803 3.5004,0 6.33803,2.83763 6.33803,6.33803 z"
         sodipodi:ry="6.338028"
         sodipodi:rx="6.338028"
         sodipodi:cy="687.57343"
         sodipodi:cx="297.88733"
         id="path3907-61"
         style="fill:#ff0000;fill-opacity:1;stroke:#000000;stroke-width:1.03407276;stroke-miterlimit:4;stroke-opacity:1;stroke-dasharray:none;stroke-dashoffset:0"
         sodipodi:type="arc"
         transform="translate(166.19718,184.50707)" />
      <path
         d="m 304.22536,687.57343 c 0,3.50039 -2.83763,6.33802 -6.33803,6.33802 -3.5004,0 -6.33803,-2.83763 -6.33803,-6.33802 0,-3.5004 2.83763,-6.33803 6.33803,-6.33803 3.5004,0 6.33803,2.83763 6.33803,6.33803 z"
         sodipodi:ry="6.338028"
         sodipodi:rx="6.338028"
         sodipodi:cy="687.57343"
         sodipodi:cx="297.88733"
         id="path3907-57"
         style="fill:#ff0000;fill-opacity:1;stroke:#000000;stroke-width:1.03407276;stroke-miterlimit:4;stroke-opacity:1;stroke-dasharray:none;stroke-dashoffset:0"
         sodipodi:type="arc"
         transform="translate(209.85915,176.05636)" />
      <path
         sodipodi:nodetypes="caaaaaaaaac"
         inkscape:connector-curvature="0"
         id="path4434"
         d="m 629.57746,810.81289 c 0,0 -2.37314,7.6371 -4.92957,10.56338 -2.57039,2.94225 -8.10218,2.84851 -9.85916,6.33803 -1.58702,3.15195 -0.2204,7.15772 0.70423,10.56338 0.13753,0.50656 0.62999,0.88883 0.70422,1.40845 0.37116,2.59812 0.16625,5.64689 -1.40845,7.74648 -3.14939,4.19919 -9.57483,4.35624 -14.0845,7.04225 -4.92361,2.93256 -9.35264,6.62632 -14.08451,9.85915 -9.78385,6.68436 -18.01403,17.13157 -29.57747,19.71831 -10.88552,2.43509 -22.50599,-8.42545 -33.09858,-4.92958 -4.72876,1.56063 -10.56338,10.56339 -10.56338,10.56339"
         style="fill:none;stroke:#000000;stroke-width:3.10221839;stroke-miterlimit:4;stroke-opacity:1;stroke-dasharray:none;stroke-dashoffset:0" />
      <path
         transform="translate(333.80282,123.23947)"
         d="m 304.22536,687.57343 c 0,3.50039 -2.83763,6.33802 -6.33803,6.33802 -3.5004,0 -6.33803,-2.83763 -6.33803,-6.33802 0,-3.5004 2.83763,-6.33803 6.33803,-6.33803 3.5004,0 6.33803,2.83763 6.33803,6.33803 z"
         sodipodi:ry="6.338028"
         sodipodi:rx="6.338028"
         sodipodi:cy="687.57343"
         sodipodi:cx="297.88733"
         id="path3907-31"
         style="fill:#ff0000;fill-opacity:1;stroke:#000000;stroke-width:1.03407276;stroke-miterlimit:4;stroke-opacity:1;stroke-dasharray:none;stroke-dashoffset:0"
         sodipodi:type="arc" />
    </g>
  </g>
</svg>
