<?xml version="1.0" encoding="UTF-8" standalone="no"?>
<!-- Created with Inkscape (http://www.inkscape.org/) -->

<svg
   xmlns:dc="http://purl.org/dc/elements/1.1/"
   xmlns:cc="http://creativecommons.org/ns#"
   xmlns:rdf="http://www.w3.org/1999/02/22-rdf-syntax-ns#"
   xmlns:svg="http://www.w3.org/2000/svg"
   xmlns="http://www.w3.org/2000/svg"
   xmlns:inkscape="http://www.inkscape.org/namespaces/inkscape"
   version="1.1"
   width="239.60837"
   height="237.29599"
   id="svg2">
  <defs
     id="defs4">
    <inkscape:path-effect
       effect="spiro"
       id="path-effect4312" />
    <inkscape:path-effect
       effect="spiro"
       id="path-effect3978" />
    <inkscape:path-effect
       effect="spiro"
       id="path-effect3839" />
    <inkscape:path-effect
       effect="spiro"
       id="path-effect3835" />
    <inkscape:path-effect
       effect="spiro"
       id="path-effect3831" />
    <inkscape:path-effect
       effect="spiro"
       id="path-effect3827" />
    <inkscape:path-effect
       effect="spiro"
       id="path-effect3823" />
    <inkscape:path-effect
       effect="spiro"
       id="path-effect3819" />
    <inkscape:path-effect
       effect="spiro"
       id="path-effect3815" />
    <inkscape:path-effect
       effect="spiro"
       id="path-effect3811" />
    <inkscape:path-effect
       effect="spiro"
       id="path-effect3807" />
    <inkscape:path-effect
       effect="spiro"
       id="path-effect3803" />
    <inkscape:path-effect
       effect="spiro"
       id="path-effect3799" />
    <inkscape:path-effect
       effect="spiro"
       id="path-effect3795" />
  </defs>
  <metadata
     id="metadata7">
    <rdf:RDF>
      <cc:Work
         rdf:about="">
        <dc:format>image/svg+xml</dc:format>
        <dc:type
           rdf:resource="http://purl.org/dc/dcmitype/StillImage" />
        <dc:title></dc:title>
      </cc:Work>
    </rdf:RDF>
  </metadata>
  <g
     transform="translate(-188.6627,-364.8716)"
     id="layer1">
    <g
       transform="matrix(0.93406395,0,0,0.94484032,47.870647,-334.41068)"
       id="g4365">
      <g
         id="g4346"
         style="fill:none;stroke-width:3;stroke-miterlimit:4;stroke-dasharray:none">
        <path
           d="m 207.04225,838.19317 c -2.60341,-0.6626 -5.03366,-1.994 -6.9935,-3.83134 -1.95984,-1.83735 -3.44509,-4.17674 -4.2741,-6.73204 -0.56327,-1.7362 -0.82587,-3.55722 -1.36114,-5.30225 -0.53528,-1.74503 -1.39649,-3.4718 -2.86421,-4.55691 -1.18347,-0.87496 -2.67028,-1.25991 -4.13912,-1.35302 -1.46884,-0.0931 -2.9394,0.086 -4.40326,0.23864 -1.46385,0.15261 -2.94524,0.27871 -4.40363,0.0805 -1.45838,-0.19818 -2.90921,-0.74785 -3.9554,-1.78306 -1.1386,-1.12665 -1.70466,-2.74906 -1.75321,-4.35013 -0.0486,-1.60106 0.38353,-3.1857 1.01417,-4.65813 1.26128,-2.94486 3.31813,-5.53541 4.26016,-8.59737 0.57384,-1.8652 0.71081,-3.83691 1.18725,-5.72934 0.23822,-0.94621 0.56392,-1.87697 1.05523,-2.71999 0.49131,-0.84302 1.15486,-1.59786 1.98288,-2.11405 0.7234,-0.45097 1.55714,-0.71039 2.40357,-0.81156 0.84643,-0.10117 1.7064,-0.0476 2.5467,0.0958 1.6806,0.28686 3.27701,0.92629 4.90888,1.41997 3.33693,1.0095 6.9338,1.40624 10.31709,0.56506 1.69165,-0.42058 3.31337,-1.15039 4.70601,-2.19877 1.39264,-1.04839 2.55169,-2.41951 3.28676,-4.00009 1.32403,-2.84701 1.1892,-6.24902 0,-9.15493 -0.76395,-1.86677 -1.93057,-3.54779 -2.69316,-5.41511 -0.38129,-0.93367 -0.66057,-1.91798 -0.71791,-2.92486 -0.0573,-1.00689 0.11575,-2.03981 0.59417,-2.92763 0.68715,-1.27517 1.97997,-2.173 3.38721,-2.51636 1.40725,-0.34337 2.9132,-0.16181 4.26227,0.36568 2.69815,1.05497 4.68287,3.36467 6.43503,5.6718 1.65109,2.17405 3.20876,4.43695 4.37776,6.90393 1.16901,2.46698 1.94239,5.15492 1.96026,7.8848 0.0309,4.72181 -2.15541,9.13626 -4.22535,13.38029 -1.17469,2.40849 -2.34553,4.88796 -2.62236,7.55331 -0.13842,1.33267 -0.0449,2.7 0.37782,3.97141 0.42272,1.27142 1.18535,2.44347 2.24454,3.26401 1.53248,1.1872 3.54164,1.55723 5.4766,1.67502 1.93496,0.11779 3.89737,0.0228 5.79101,0.43765 2.37898,0.52111 4.50419,1.81259 6.6182,3.02176 2.114,1.20917 4.33792,2.37842 6.76208,2.61205 2.34284,0.2258 4.73375,-0.46609 6.69719,-1.76407 1.96345,-1.29799 3.50945,-3.17717 4.57041,-5.27819 2.1657,-4.28874 2.3056,-9.36447 1.40846,-14.0845 -0.46818,-2.46322 -1.20214,-4.86848 -1.71846,-7.32206 -0.51632,-2.45358 -0.81317,-4.99461 -0.39422,-7.46668 0.38042,-2.24472 1.35722,-4.38619 2.8067,-6.14189 1.44948,-1.7557 3.36845,-3.1209 5.50406,-3.90996 2.13562,-0.78906 4.48258,-0.99943 6.72362,-0.59795 2.24105,0.40147 4.37012,1.41427 6.09238,2.90333 1.46029,1.26257 2.61039,2.83679 3.88695,4.28487 1.27657,1.44807 2.74526,2.8138 4.56375,3.4616 1.2733,0.45359 2.66079,0.52936 4.00186,0.36038 1.34107,-0.16898 2.64204,-0.5756 3.90212,-1.06469 2.52018,-0.97818 4.93533,-2.30081 7.58898,-2.81681 2.3497,-0.45689 4.8277,-0.2478 7.06091,0.61394 2.23321,0.86174 4.21315,2.37548 5.61515,4.31564 1.43838,1.9905 2.25595,4.40214 2.45612,6.84977 0.20016,2.44764 -0.20446,4.92822 -1.04767,7.23473 -0.76695,2.09792 -1.91254,4.08398 -3.52113,5.6338 -1.74159,1.67797 -3.96598,2.78924 -6.27349,3.5132 -2.3075,0.72396 -4.71174,1.08108 -7.10679,1.41638 -2.34398,0.32815 -4.69802,0.63943 -6.98495,1.24923 -2.28694,0.6098 -4.52027,1.53179 -6.39533,2.97612 -1.64876,1.27002 -3.00671,2.93004 -4.82369,3.94489 -0.90849,0.50743 -1.93447,0.84231 -2.97471,0.81545 -1.04025,-0.0269 -2.09301,-0.44467 -2.76498,-1.23921 -0.65408,-0.77339 -0.89273,-1.80602 -1.09618,-2.79827 -0.20344,-0.99225 -0.40871,-2.02526 -1.0165,-2.83553 -0.48637,-0.6484 -1.2033,-1.10336 -1.97449,-1.35285 -0.7712,-0.24948 -1.59564,-0.30287 -2.40416,-0.2456 -1.61704,0.11453 -3.17234,0.65905 -4.77628,0.89422 -1.64628,0.24138 -3.35717,0.1601 -4.92957,0.70423 -1.43699,0.49727 -2.66473,1.49541 -3.61534,2.68223 -0.95062,1.18682 -1.64225,2.55977 -2.23359,3.96068 -1.18267,2.80181 -2.03533,5.83311 -4.01023,8.14582 -0.84887,0.99407 -1.87932,1.82043 -2.7318,2.81139 -0.42624,0.49549 -0.80838,1.03406 -1.08158,1.62781 -0.2732,0.59376 -0.43502,1.24564 -0.41197,1.89883 0.0276,0.78219 0.32199,1.54416 0.7809,2.17818 0.4589,0.63402 1.07707,1.14371 1.75932,1.52725 1.36451,0.76709 2.94893,1.0287 4.50203,1.22415 3.35223,0.42187 6.82799,0.62022 9.85916,2.11267 3.6134,1.77912 6.12619,5.16155 8.4507,8.45071 2.12226,3.00297 4.24065,6.06893 7.04225,8.4507 2.25622,1.91812 4.91821,3.34752 7.74648,4.22535 2.83491,0.87989 5.90591,1.2036 8.77823,0.45477 1.43616,-0.37442 2.80839,-1.01629 3.97909,-1.92853 1.1707,-0.91225 2.13592,-2.09821 2.73564,-3.45581 0.86912,-1.96744 0.94273,-4.20044 0.70423,-6.33803 -0.092,-0.82418 -0.2281,-1.64425 -0.27307,-2.47232 -0.045,-0.82807 0.004,-1.67282 0.27307,-2.45726 0.34641,-1.01009 1.05356,-1.88162 1.93521,-2.48409 0.88166,-0.60247 1.93077,-0.94188 2.99436,-1.03704 1.77847,-0.15912 3.53929,0.34355 5.28447,0.7212 0.87259,0.18883 1.75561,0.34771 2.6479,0.37731 0.8923,0.0296 1.79785,-0.0735 2.63101,-0.39428 0.84549,-0.32555 1.60161,-0.87271 2.19263,-1.55938 0.59103,-0.68668 1.01769,-1.51065 1.25957,-2.38376 0.48376,-1.74623 0.21387,-3.65759 -0.58104,-5.28592 -0.79492,-1.62832 -2.08834,-2.98325 -3.58299,-4.00763 -1.49464,-1.02439 -3.18752,-1.73183 -4.92197,-2.25627 -1.93835,-0.58609 -3.93766,-0.95084 -5.88034,-1.52241 -1.94268,-0.57156 -3.86117,-1.37188 -5.38726,-2.70294 -1.73684,-1.51488 -2.88954,-3.73248 -2.94869,-6.03639 -0.0296,-1.15195 0.21006,-2.31277 0.71546,-3.34836 0.50539,-1.03559 1.27779,-1.94287 2.23323,-2.58708 1.19368,-0.80484 2.63836,-1.1823 4.07573,-1.26346 1.43738,-0.0812 2.87627,0.12012 4.2897,0.39369 2.82687,0.54713 5.70388,1.38919 8.53597,0.86977 1.91939,-0.35203 3.66844,-1.30876 5.34829,-2.30177 1.67985,-0.99301 3.35211,-2.04706 5.21509,-2.62781 1.52896,-0.47662 3.16439,-0.61922 4.74875,-0.38536 1.58435,0.23386 3.11495,0.84639 4.40618,1.79381 1.69453,1.24333 2.92206,3.00162 4.25699,4.62496 1.33493,1.62335 2.8932,3.19464 4.89794,3.82575 1.55673,0.49007 3.27712,0.35753 4.79694,-0.23722 1.51982,-0.59476 2.84434,-1.63238 3.89967,-2.87732 2.11066,-2.48987 3.12768,-5.70629 3.97945,-8.8573 0.56905,-2.10514 1.09132,-4.27005 0.91398,-6.44352 -0.0887,-1.08673 -0.35611,-2.16609 -0.85661,-3.13478 -0.5005,-0.96869 -1.24044,-1.82373 -2.17005,-2.39353 -0.90552,-0.55504 -1.95156,-0.8235 -2.95456,-1.17284 -1.00299,-0.34933 -2.01527,-0.8151 -2.67924,-1.64406 -0.48534,-0.60594 -0.75009,-1.378 -0.77467,-2.15396 -0.0246,-0.77596 0.18595,-1.55304 0.56745,-2.22918 0.76302,-1.35228 2.17545,-2.25661 3.67545,-2.65768 1.5,-0.40107 3.08728,-0.34413 4.62449,-0.12543 1.53722,0.2187 3.04824,0.59514 4.58334,0.82822 2.34424,0.35594 4.74386,0.37776 7.04273,0.95858 1.14943,0.29041 2.27179,0.72337 3.26155,1.37599 0.98977,0.65261 1.84433,1.53324 2.37177,2.59501 0.79277,1.5959 0.79752,3.46005 0.67577,5.23784 -0.12175,1.7778 -0.35114,3.58448 0.0285,5.32554 0.45574,2.0903 1.74348,3.88666 2.63555,5.83122 0.44603,0.97227 0.79804,2.00171 0.88219,3.0681 0.0842,1.06639 -0.11582,2.17696 -0.70084,3.07251 -0.49673,0.76039 -1.24273,1.32942 -2.04105,1.76257 -0.79832,0.43315 -1.65625,0.7429 -2.49688,1.08681 -0.84063,0.34391 -1.67573,0.72864 -2.39003,1.28963 -0.7143,0.56099 -1.3056,1.3171 -1.52274,2.19902 -0.2434,0.9886 0.006,2.05145 0.50346,2.93979 0.49743,0.88833 1.22589,1.62435 1.98762,2.29989 0.76173,0.67554 1.56768,1.30445 2.27136,2.04025 0.70369,0.7358 1.31004,1.59634 1.57558,2.57923 0.34133,1.26345 0.0778,2.65638 -0.61475,3.76686 -0.69258,1.11048 -1.78924,1.94266 -3.01029,2.4137 -1.22104,0.47103 -2.56059,0.59359 -3.86276,0.46259 -1.30218,-0.131 -2.57041,-0.50915 -3.7798,-1.00935 -3.61986,-1.49715 -6.68183,-4.04688 -9.85916,-6.33803 -2.30645,-1.66316 -4.76202,-3.26693 -6.33802,-5.6338 -0.77551,-1.16468 -1.31216,-2.48081 -2.14667,-3.60396 -0.41726,-0.56158 -0.91146,-1.07422 -1.50275,-1.44819 -0.59129,-0.37397 -1.28512,-0.60399 -1.98439,-0.58166 -0.61706,0.0197 -1.22215,0.23641 -1.72944,0.58828 -0.50729,0.35187 -0.91792,0.83556 -1.21048,1.37922 -0.58511,1.08732 -0.69006,2.38192 -0.52245,3.60525 0.33524,2.44665 1.68531,4.66146 2.05392,7.10331 0.28457,1.88511 -0.03,3.80104 -0.16866,5.70245 -0.0693,0.95071 -0.0944,1.90887 0.0216,2.85502 0.11599,0.94614 0.37696,1.8833 0.85128,2.71014 0.86375,1.50571 2.36872,2.54052 3.9392,3.27999 1.57048,0.73948 3.24684,1.23382 4.82138,1.96462 1.57454,0.73079 3.08878,1.74696 3.97735,3.23817 0.44428,0.7456 0.71875,1.6007 0.72855,2.46858 0.01,0.86788 -0.25425,1.74641 -0.79043,2.42892 -0.3928,0.5 -0.92237,0.88624 -1.50603,1.1385 -0.58366,0.25225 -1.22021,0.3729 -1.85592,0.3856 -1.27142,0.0254 -2.51685,-0.37375 -3.67325,-0.90279 -1.15641,-0.52905 -2.24815,-1.19 -3.39751,-1.73418 -1.14936,-0.54418 -2.38035,-0.97512 -3.65179,-0.99981 -1.68913,-0.0328 -3.2972,0.6459 -4.90431,1.16688 -0.80356,0.26049 -1.62448,0.48468 -2.46569,0.5616 -0.84121,0.0769 -1.70796,0.001 -2.48916,-0.32003 -0.75246,-0.30955 -1.40178,-0.83746 -1.93183,-1.45476 -0.53005,-0.6173 -0.94696,-1.32355 -1.31803,-2.04765 -0.74212,-1.4482 -1.32706,-3.00671 -2.38394,-4.24407 -1.19075,-1.39409 -2.9535,-2.2842 -4.78224,-2.41483 -1.82874,-0.13062 -3.70012,0.49992 -5.07692,1.71061"
           id="path4310"
           style="fill:none;stroke:#000000;stroke-width:3.19340301;stroke-miterlimit:4;stroke-opacity:1;stroke-dasharray:none;stroke-dashoffset:0" />
        <path
           d="m 223.23944,807.20725 c 0,0 -1.238,12.33939 -4.92958,16.90141 -2.18022,2.6943 -7.05236,2.17425 -9.15493,4.92958 -1.8999,2.48975 -3.28843,6.25216 -2.11268,9.15493 1.78441,4.40549 9.09646,3.96167 11.97183,7.74648 2.38042,3.13332 0.69742,8.52702 3.52113,11.2676 4.37318,4.24444 11.51429,5.11764 17.60564,4.92958 5.71361,-0.1764 12.46803,-1.30137 16.19718,-5.6338 2.4929,-2.89619 0.83959,-7.66459 2.11267,-11.26761 1.15468,-3.26792 4.92958,-9.15493 4.92958,-9.15493"
           id="path4314"
           style="fill:none;stroke:#000000;stroke-width:3.19340301;stroke-miterlimit:4;stroke-opacity:1;stroke-dasharray:none;stroke-dashoffset:0" />
        <path
           d="m 223.94366,766.36218 c 0,0 11.58981,-8.2896 16.90141,-5.6338 3.31975,1.65988 1.21884,7.65212 3.52113,10.56338 3.59629,4.54753 14.78873,9.15493 14.78873,9.15493"
           id="path4316"
           style="fill:none;stroke:#000000;stroke-width:3.19340301;stroke-miterlimit:4;stroke-opacity:1;stroke-dasharray:none;stroke-dashoffset:0" />
        <path
           d="m 318.30986,781.15092 c 0,0 13.90357,-3.45555 20.42253,-6.33803 4.23437,-1.8723 7.34242,-7.10448 11.97184,-7.04226 6.64305,0.0893 16.9014,10.56338 16.9014,10.56338"
           id="path4318"
           style="fill:none;stroke:#000000;stroke-width:3.19340301;stroke-miterlimit:4;stroke-opacity:1;stroke-dasharray:none;stroke-dashoffset:0" />
        <path
           d="m 380.98592,822.70021 c 0,0 6.87823,7.84741 8.4507,12.67606 1.74601,5.36156 1.75968,11.36238 0.70423,16.90141 -1.731,9.08431 -2.31782,23.02356 -11.26761,25.35211 -5.67946,1.47768 -10.62581,-5.82237 -14.08451,-10.56338 -3.80646,-5.2177 0.0941,-17.72549 -6.33803,-18.30986 -6.17637,-0.56114 -5.46565,11.21205 -9.15493,16.19718 -3.85218,5.20525 -8.21251,10.1822 -13.38027,14.08451 -4.44099,3.35351 -9.58793,5.76661 -14.78874,7.74648 -3.61815,1.37738 -7.42515,2.34387 -11.26761,2.8169 -5.59159,0.68836 -12.16465,3.05006 -16.9014,0 -4.76954,-3.07117 -6.18816,-9.88483 -7.04226,-15.49296 -0.85484,-5.61293 2.11268,-16.90141 2.11268,-16.90141"
           id="path4320"
           style="fill:none;stroke:#000000;stroke-width:3.19340301;stroke-miterlimit:4;stroke-opacity:1;stroke-dasharray:none;stroke-dashoffset:0" />
        <path
           d="m 195.07042,786.78472 c 0,0 -0.9754,-7.79054 -4.22535,-11.97184 -3.24995,-4.1813 -15.59657,-5.65417 -16.90141,-9.85915 -1.30484,-4.20498 2.8169,-7.74648 2.8169,-7.74648"
           id="path4322"
           style="fill:none;stroke:#000000;stroke-width:3.19340301;stroke-miterlimit:4;stroke-opacity:1;stroke-dasharray:none;stroke-dashoffset:0" />
        <path
           d="m 240.84507,862.13683 c 0,0 8.26607,8.68084 11.97183,13.38028 2.29822,2.91447 6.23805,5.44468 6.33803,9.15493 0.0965,3.58188 -3.96348,5.98488 -5.6338,9.15493 -2.15544,4.09076 -6.55615,8.1451 -5.63381,12.67606 0.96077,4.7197 11.66817,5.17107 10.56338,9.85915 -1.51627,6.43414 -12.53462,4.3247 -19.01408,5.63381 -4.16715,0.84193 -9.13646,3.76329 -12.67606,1.40845 -3.46323,-2.30403 -2.77644,-7.8794 -3.52112,-11.97183 -1.13777,-6.25272 -2.42365,-12.7403 -1.40845,-19.01409 0.48746,-3.01246 4.01338,-5.43902 3.52112,-8.4507 -0.40253,-2.46266 -2.73913,-4.43853 -4.92957,-5.63381 -5.62432,-3.0691 -13.98675,1.15527 -19.01409,-2.8169 -3.96752,-3.13479 -5.69545,-9.02839 -5.6338,-14.0845 0.0436,-3.57522 1.30755,-7.79265 4.22535,-9.85916 2.87983,-2.03962 8.40129,2.08482 10.56338,-0.70423 2.34122,-3.02012 1.33524,-9.62009 -2.11268,-11.2676 -6.2545,-2.98858 -12.66689,5.83331 -18.30985,9.85915 -3.38081,2.41196 -5.00939,8.20181 -9.15493,8.45071 -5.20275,0.31237 -7.94079,-11.33285 -12.67606,-9.15493 -5.13612,2.36228 -3.72437,11.74421 -1.40845,16.90141 1.44245,3.21211 7.29856,3.01073 8.4507,6.33803 1.1924,3.44357 -2.13276,6.984 -2.8169,10.56338 -0.75434,3.94669 -2.72624,8.17594 -1.40845,11.97183 2.1775,6.27228 7.78573,11.98491 14.08451,14.0845 6.29878,2.09959 13.10917,-3.45116 19.71831,-2.8169 6.42906,0.61698 17.21242,-0.0267 18.30986,6.33803 1.02161,5.92489 -10.87267,6.18508 -14.08451,11.26761 -2.19004,3.46559 -1.21586,8.1978 -2.8169,11.97183 -1.52578,3.59663 -4.65084,6.33536 -6.33803,9.85915 -1.60286,3.34766 -1.50711,7.44574 -3.52113,10.56338 -2.25354,3.48841 -5.38849,6.70101 -9.15493,8.45071 -3.43277,1.59469 -7.60931,2.37996 -11.2676,1.40845 -3.40317,-0.90376 -8.45071,-6.33803 -8.45071,-6.33803"
           id="path4324"
           style="fill:none;stroke:#000000;stroke-width:3.19340301;stroke-miterlimit:4;stroke-opacity:1;stroke-dasharray:none;stroke-dashoffset:0" />
        <path
           d="m 172.53521,895.93965 c 0,0 -1.59826,11.95892 0,17.60563 0.97585,3.44773 5.28877,5.5884 5.6338,9.15493 0.19313,1.99631 -1.2132,3.84117 -2.11267,5.6338 -1.75212,3.49196 -7.6659,6.18486 -6.33803,9.85916 1.58969,4.39876 8.81089,3.22695 13.38028,4.22535 5.54679,1.21196 11.80109,-0.3818 16.90141,2.11268 5.96436,2.91707 10.20233,8.69826 14.08451,14.0845 2.76222,3.83238 1.7722,11.46354 6.33803,12.67606 4.0901,1.08619 6.68525,-5.34851 10.56338,-7.04225 5.53072,-2.4155 11.9355,-2.15819 17.60563,-4.22536 4.93148,-1.79788 11.86872,-2.28388 14.08451,-7.04225 2.54768,-5.47109 -3.28674,-11.64387 -4.22536,-17.60563 -0.95202,-6.04683 -3.00275,-12.39981 -1.40845,-18.30986 2.15378,-7.98404 7.03374,-16.10162 14.08451,-20.42254 3.02879,-1.85613 7.12304,-0.52368 10.56338,-1.40845 4.39074,-1.1292 8.21852,-5.75667 12.67606,-4.92958 6.86225,1.27328 15.54473,7.10533 15.49295,14.08451 -0.0395,5.32182 -7.43957,7.77375 -11.97182,10.56338 -5.38271,3.31309 -13.73038,2.049 -17.60564,7.04225 -3.33828,4.30136 -2.79368,10.79515 -2.11268,16.19719 0.31622,2.50839 0.77168,5.55596 2.81691,7.04225 5.70949,4.14915 14.19233,0.0942 21.12676,1.40845 5.32464,1.00917 10.13768,4.09814 15.49295,4.92958 5.79907,0.90034 13.29367,3.98079 17.60564,0 4.32575,-3.99351 -1.71606,-12.61587 1.40845,-17.60563 2.45715,-3.924 11.49062,-2.4375 11.97183,-7.04226 0.75989,-7.27139 -9.1763,-12.74968 -16.19718,-14.78873 -3.89147,-1.13019 -8.03244,1.16289 -11.97183,2.11268 -3.10389,0.74835 -5.96324,2.73147 -9.15493,2.8169 -4.8376,0.12948 -14.08452,-3.52113 -14.08452,-3.52113"
           id="path4326"
           style="fill:none;stroke:#000000;stroke-width:3.19340301;stroke-miterlimit:4;stroke-opacity:1;stroke-dasharray:none;stroke-dashoffset:0" />
        <path
           d="m 336.61972,879.74246 c 0,0 12.01238,0.53469 16.19719,4.22536 3.79236,3.34456 4.0108,9.29556 5.6338,14.0845 1.9561,5.77179 -12.14805,-0.14461 -14.0845,5.63381 -1.96921,5.87618 5.44115,17.1625 4.22534,23.23944 -1.01104,5.05348 5.57978,8.70423 7.74648,13.38027 2.93429,6.33259 0.41693,17.5236 7.04226,19.71831 6.4275,2.12918 13.57752,-5.36861 16.9014,-11.2676 2.6529,-4.70819 0.68327,-10.79306 0.70422,-16.19718 0.0255,-6.57691 2.81727,-14.16353 -0.70422,-19.71831 -4.38466,-6.91635 -21.78824,-3.07863 -21.83098,-11.26761 -0.0236,-4.51529 7.52716,-5.5422 11.97183,-6.33803 3.49667,-0.62608 7.28344,0.0444 10.56338,1.40845 3.55489,1.47841 9.15493,7.04226 9.15493,7.04226"
           id="path4328"
           style="fill:none;stroke:#000000;stroke-width:3.19340301;stroke-miterlimit:4;stroke-opacity:1;stroke-dasharray:none;stroke-dashoffset:0" />
        <path
           d="m 381.69014,932.55937 c 0,0 8.30234,5.0808 10.56338,9.15493 2.19109,3.9481 3.50902,9.08626 2.11268,13.38028 -0.92395,2.84132 -4.54806,3.94579 -6.33803,6.33803 -1.76213,2.35503 -4.22535,7.74647 -4.22535,7.74647"
           id="path4330"
           style="fill:none;stroke:#000000;stroke-width:3.19340301;stroke-miterlimit:4;stroke-opacity:1;stroke-dasharray:none;stroke-dashoffset:0" />
        <path
           d="m 378.87324,878.33401 c 0,0 9.53405,4.99633 12.67606,9.15493 1.65632,2.19222 2.8169,7.74648 2.8169,7.74648"
           id="path4332"
           style="fill:none;stroke:#000000;stroke-width:3.19340301;stroke-miterlimit:4;stroke-opacity:1;stroke-dasharray:none;stroke-dashoffset:0" />
        <path
           d="m 202.11268,875.51711 c 0,0 0.40287,9.2776 -1.40845,13.38028 -1.14165,2.58586 -2.91169,5.57637 -5.63381,6.33803 -3.07474,0.86033 -5.96213,-2.83216 -9.15493,-2.8169 -5.41937,0.0259 -15.49295,4.92958 -15.49295,4.92958"
           id="path4334"
           style="fill:none;stroke:#000000;stroke-width:3.19340301;stroke-miterlimit:4;stroke-opacity:1;stroke-dasharray:none;stroke-dashoffset:0" />
        <path
           d="m 230.98592,964.95373 c 0,0 16.77522,9.54583 26.05633,9.85916 8.08973,0.27311 15.33259,-5.31021 23.23944,-7.04226 6.71279,-1.47048 15.70436,2.17937 20.42254,-2.8169 4.04212,-4.28036 1.40845,-17.60563 1.40845,-17.60563"
           id="path4336"
           style="fill:none;stroke:#000000;stroke-width:3.19340301;stroke-miterlimit:4;stroke-opacity:1;stroke-dasharray:none;stroke-dashoffset:0" />
        <path
           d="m 241.5493,861.43261 c 0,0 -6.0666,-7.03062 -7.74648,-11.26761 -1.13797,-2.87019 -1.75945,-6.0874 -1.40845,-9.15493 0.28742,-2.51185 2.8169,-7.04225 2.8169,-7.04225"
           id="path4338"
           style="fill:none;stroke:#000000;stroke-width:3.19340301;stroke-miterlimit:4;stroke-opacity:1;stroke-dasharray:none;stroke-dashoffset:0" />
        <path
           d="m 366.90141,961.43261 c 0,0 -13.56242,16.70948 -23.23944,17.60563 -5.22662,0.48401 -10.83743,-2.91814 -14.08451,-7.04225 -1.93739,-2.46068 -2.6541,-6.07024 -2.11267,-9.15493 0.82173,-4.68159 7.74648,-11.97184 7.74648,-11.97184"
           id="path4340"
           style="fill:none;stroke:#000000;stroke-width:3.19340301;stroke-miterlimit:4;stroke-opacity:1;stroke-dasharray:none;stroke-dashoffset:0" />
        <path
           d="m 169.71831,846.64388 c 0,0 6.49821,-5.70717 7.74648,-9.15494 0.95894,-2.64865 1.41388,-6.01434 0,-8.4507 -0.94992,-1.63688 -4.02815,-1.15282 -4.92958,-2.8169 -1.90403,-3.51493 0.70423,-11.97183 0.70423,-11.97183"
           id="path4342"
           style="fill:none;stroke:#000000;stroke-width:3.19340301;stroke-miterlimit:4;stroke-opacity:1;stroke-dasharray:none;stroke-dashoffset:0" />
        <path
           d="m 318.30986,780.44669 c 0,0 3.61294,-8.89247 2.8169,-13.38028 -0.38677,-2.18051 -1.60604,-4.52176 -3.52113,-5.6338 -5.07905,-2.94927 -11.74904,-0.26229 -17.60563,-0.70423 -4.2393,-0.3199 -8.64212,-0.0663 -12.67606,-1.40845 -4.39306,-1.46162 -11.97183,-7.04225 -11.97183,-7.04225"
           id="path4344"
           style="fill:none;stroke:#000000;stroke-width:3.19340301;stroke-miterlimit:4;stroke-opacity:1;stroke-dasharray:none;stroke-dashoffset:0" />
      </g>
      <g
         transform="translate(-268.30986,-134.59155)"
         id="g4271">
        <path
           d="m 304.22536,687.57343 a 6.338028,6.338028 0 1 1 -12.67606,0 6.338028,6.338028 0 1 1 12.67606,0 z"
           transform="translate(145.07042,261.26763)"
           id="path3907-16"
           style="fill:#ff0000;fill-opacity:1;stroke:#000000;stroke-width:1.06446767;stroke-miterlimit:4;stroke-opacity:1;stroke-dasharray:none;stroke-dashoffset:0" />
        <path
           d="m 304.22536,687.57343 a 6.338028,6.338028 0 1 1 -12.67606,0 6.338028,6.338028 0 1 1 12.67606,0 z"
           transform="translate(178.16901,284.50707)"
           id="path3907-76"
           style="fill:#ff0000;fill-opacity:1;stroke:#000000;stroke-width:1.06446767;stroke-miterlimit:4;stroke-opacity:1;stroke-dasharray:none;stroke-dashoffset:0" />
        <path
           d="m 304.22536,687.57343 a 6.338028,6.338028 0 1 1 -12.67606,0 6.338028,6.338028 0 1 1 12.67606,0 z"
           transform="translate(193.66197,255.63383)"
           id="path3907-0"
           style="fill:#ff0000;fill-opacity:1;stroke:#000000;stroke-width:1.06446767;stroke-miterlimit:4;stroke-opacity:1;stroke-dasharray:none;stroke-dashoffset:0" />
        <path
           d="m 304.22536,687.57343 a 6.338028,6.338028 0 1 1 -12.67606,0 6.338028,6.338028 0 1 1 12.67606,0 z"
           transform="translate(165.49295,234.50707)"
           id="path3907-8"
           style="fill:#ff0000;fill-opacity:1;stroke:#000000;stroke-width:1.06446767;stroke-miterlimit:4;stroke-opacity:1;stroke-dasharray:none;stroke-dashoffset:0" />
        <path
           d="m 304.22536,687.57343 a 6.338028,6.338028 0 1 1 -12.67606,0 6.338028,6.338028 0 1 1 12.67606,0 z"
           transform="translate(232.39436,254.22538)"
           id="path3907-15"
           style="fill:#ff0000;fill-opacity:1;stroke:#000000;stroke-width:1.06446767;stroke-miterlimit:4;stroke-opacity:1;stroke-dasharray:none;stroke-dashoffset:0" />
        <path
           d="m 304.22536,687.57343 a 6.338028,6.338028 0 1 1 -12.67606,0 6.338028,6.338028 0 1 1 12.67606,0 z"
           transform="translate(233.80281,283.09862)"
           id="path3907-4"
           style="fill:#ff0000;fill-opacity:1;stroke:#000000;stroke-width:1.06446767;stroke-miterlimit:4;stroke-opacity:1;stroke-dasharray:none;stroke-dashoffset:0" />
        <path
           d="m 304.22536,687.57343 a 6.338028,6.338028 0 1 1 -12.67606,0 6.338028,6.338028 0 1 1 12.67606,0 z"
           transform="translate(257.04225,304.22538)"
           id="path3907-84"
           style="fill:#ff0000;fill-opacity:1;stroke:#000000;stroke-width:1.06446767;stroke-miterlimit:4;stroke-opacity:1;stroke-dasharray:none;stroke-dashoffset:0" />
        <path
           d="m 304.22536,687.57343 a 6.338028,6.338028 0 1 1 -12.67606,0 6.338028,6.338028 0 1 1 12.67606,0 z"
           transform="translate(289.43661,285.21129)"
           id="path3907-66"
           style="fill:#ff0000;fill-opacity:1;stroke:#000000;stroke-width:1.06446767;stroke-miterlimit:4;stroke-opacity:1;stroke-dasharray:none;stroke-dashoffset:0" />
        <path
           d="m 304.22536,687.57343 a 6.338028,6.338028 0 1 1 -12.67606,0 6.338028,6.338028 0 1 1 12.67606,0 z"
           transform="translate(272.53521,252.81693)"
           id="path3907-13"
           style="fill:#ff0000;fill-opacity:1;stroke:#000000;stroke-width:1.06446767;stroke-miterlimit:4;stroke-opacity:1;stroke-dasharray:none;stroke-dashoffset:0" />
        <path
           d="m 304.22536,687.57343 a 6.338028,6.338028 0 1 1 -12.67606,0 6.338028,6.338028 0 1 1 12.67606,0 z"
           transform="translate(228.87323,226.05636)"
           id="path3907-28"
           style="fill:#ff0000;fill-opacity:1;stroke:#000000;stroke-width:1.06446767;stroke-miterlimit:4;stroke-opacity:1;stroke-dasharray:none;stroke-dashoffset:0" />
        <path
           d="m 304.22536,687.57343 a 6.338028,6.338028 0 1 1 -12.67606,0 6.338028,6.338028 0 1 1 12.67606,0 z"
           transform="translate(211.97183,308.45073)"
           id="path3907-9"
           style="fill:#ff0000;fill-opacity:1;stroke:#000000;stroke-width:1.06446767;stroke-miterlimit:4;stroke-opacity:1;stroke-dasharray:none;stroke-dashoffset:0" />
        <path
           d="m 304.22536,687.57343 a 6.338028,6.338028 0 1 1 -12.67606,0 6.338028,6.338028 0 1 1 12.67606,0 z"
           transform="translate(306.33802,326.05636)"
           id="path3907-11"
           style="fill:#ff0000;fill-opacity:1;stroke:#000000;stroke-width:1.06446767;stroke-miterlimit:4;stroke-opacity:1;stroke-dasharray:none;stroke-dashoffset:0" />
        <path
           d="m 304.22536,687.57343 a 6.338028,6.338028 0 1 1 -12.67606,0 6.338028,6.338028 0 1 1 12.67606,0 z"
           transform="translate(319.7183,258.45073)"
           id="path3907-80"
           style="fill:#ff0000;fill-opacity:1;stroke:#000000;stroke-width:1.06446767;stroke-miterlimit:4;stroke-opacity:1;stroke-dasharray:none;stroke-dashoffset:0" />
        <path
           d="m 304.22536,687.57343 a 6.338028,6.338028 0 1 1 -12.67606,0 6.338028,6.338028 0 1 1 12.67606,0 z"
           transform="translate(288.73239,227.46481)"
           id="path3907-00"
           style="fill:#ff0000;fill-opacity:1;stroke:#000000;stroke-width:1.06446767;stroke-miterlimit:4;stroke-opacity:1;stroke-dasharray:none;stroke-dashoffset:0" />
        <path
           d="m 304.22536,687.57343 a 6.338028,6.338028 0 1 1 -12.67606,0 6.338028,6.338028 0 1 1 12.67606,0 z"
           transform="translate(329.57746,295.77467)"
           id="path3907-51"
           style="fill:#ff0000;fill-opacity:1;stroke:#000000;stroke-width:1.06446767;stroke-miterlimit:4;stroke-opacity:1;stroke-dasharray:none;stroke-dashoffset:0" />
        <path
           d="m 304.22536,687.57343 a 6.338028,6.338028 0 1 1 -12.67606,0 6.338028,6.338028 0 1 1 12.67606,0 z"
           transform="translate(264.78873,335.21129)"
           id="path3907-12"
           style="fill:#ff0000;fill-opacity:1;stroke:#000000;stroke-width:1.06446767;stroke-miterlimit:4;stroke-opacity:1;stroke-dasharray:none;stroke-dashoffset:0" />
        <path
           d="m 304.22536,687.57343 a 6.338028,6.338028 0 1 1 -12.67606,0 6.338028,6.338028 0 1 1 12.67606,0 z"
           transform="translate(223.94366,340.14087)"
           id="path3907-121"
           style="fill:#ff0000;fill-opacity:1;stroke:#000000;stroke-width:1.06446767;stroke-miterlimit:4;stroke-opacity:1;stroke-dasharray:none;stroke-dashoffset:0" />
        <path
           d="m 304.22536,687.57343 a 6.338028,6.338028 0 1 1 -12.67606,0 6.338028,6.338028 0 1 1 12.67606,0 z"
           transform="translate(171.83098,323.23946)"
           id="path3907-02"
           style="fill:#ff0000;fill-opacity:1;stroke:#000000;stroke-width:1.06446767;stroke-miterlimit:4;stroke-opacity:1;stroke-dasharray:none;stroke-dashoffset:0" />
        <path
           d="m 304.22536,687.57343 a 6.338028,6.338028 0 1 1 -12.67606,0 6.338028,6.338028 0 1 1 12.67606,0 z"
           transform="translate(140.14084,293.662)"
           id="path3907-88"
           style="fill:#ff0000;fill-opacity:1;stroke:#000000;stroke-width:1.06446767;stroke-miterlimit:4;stroke-opacity:1;stroke-dasharray:none;stroke-dashoffset:0" />
        <path
           d="m 304.22536,687.57343 a 6.338028,6.338028 0 1 1 -12.67606,0 6.338028,6.338028 0 1 1 12.67606,0 z"
           transform="translate(142.95774,343.662)"
           id="path3907-22"
           style="fill:#ff0000;fill-opacity:1;stroke:#000000;stroke-width:1.06446767;stroke-miterlimit:4;stroke-opacity:1;stroke-dasharray:none;stroke-dashoffset:0" />
        <path
           d="m 304.22536,687.57343 a 6.338028,6.338028 0 1 1 -12.67606,0 6.338028,6.338028 0 1 1 12.67606,0 z"
           transform="translate(194.36619,357.7465)"
           id="path3907-48"
           style="fill:#ff0000;fill-opacity:1;stroke:#000000;stroke-width:1.06446767;stroke-miterlimit:4;stroke-opacity:1;stroke-dasharray:none;stroke-dashoffset:0" />
        <path
           d="m 304.22536,687.57343 a 6.338028,6.338028 0 1 1 -12.67606,0 6.338028,6.338028 0 1 1 12.67606,0 z"
           transform="translate(171.12676,391.54932)"
           id="path3907-805"
           style="fill:#ff0000;fill-opacity:1;stroke:#000000;stroke-width:1.06446767;stroke-miterlimit:4;stroke-opacity:1;stroke-dasharray:none;stroke-dashoffset:0" />
        <path
           d="m 304.22536,687.57343 a 6.338028,6.338028 0 1 1 -12.67606,0 6.338028,6.338028 0 1 1 12.67606,0 z"
           transform="translate(233.09859,399.2958)"
           id="path3907-3"
           style="fill:#ff0000;fill-opacity:1;stroke:#000000;stroke-width:1.06446767;stroke-miterlimit:4;stroke-opacity:1;stroke-dasharray:none;stroke-dashoffset:0" />
        <path
           d="m 304.22536,687.57343 a 6.338028,6.338028 0 1 1 -12.67606,0 6.338028,6.338028 0 1 1 12.67606,0 z"
           transform="translate(227.46478,363.38031)"
           id="path3907-34"
           style="fill:#ff0000;fill-opacity:1;stroke:#000000;stroke-width:1.06446767;stroke-miterlimit:4;stroke-opacity:1;stroke-dasharray:none;stroke-dashoffset:0" />
        <path
           d="m 304.22536,687.57343 a 6.338028,6.338028 0 1 1 -12.67606,0 6.338028,6.338028 0 1 1 12.67606,0 z"
           transform="translate(269.01408,361.26763)"
           id="path3907-87"
           style="fill:#ff0000;fill-opacity:1;stroke:#000000;stroke-width:1.06446767;stroke-miterlimit:4;stroke-opacity:1;stroke-dasharray:none;stroke-dashoffset:0" />
        <path
           d="m 304.22536,687.57343 a 6.338028,6.338028 0 1 1 -12.67606,0 6.338028,6.338028 0 1 1 12.67606,0 z"
           transform="translate(304.22535,399.2958)"
           id="path3907-10"
           style="fill:#ff0000;fill-opacity:1;stroke:#000000;stroke-width:1.06446767;stroke-miterlimit:4;stroke-opacity:1;stroke-dasharray:none;stroke-dashoffset:0" />
        <path
           d="m 304.22536,687.57343 a 6.338028,6.338028 0 1 1 -12.67606,0 6.338028,6.338028 0 1 1 12.67606,0 z"
           transform="translate(319.01408,373.23946)"
           id="path3907-33"
           style="fill:#ff0000;fill-opacity:1;stroke:#000000;stroke-width:1.06446767;stroke-miterlimit:4;stroke-opacity:1;stroke-dasharray:none;stroke-dashoffset:0" />
        <path
           d="m 304.22536,687.57343 a 6.338028,6.338028 0 1 1 -12.67606,0 6.338028,6.338028 0 1 1 12.67606,0 z"
           transform="translate(328.16901,347.88735)"
           id="path3907-68"
           style="fill:#ff0000;fill-opacity:1;stroke:#000000;stroke-width:1.06446767;stroke-miterlimit:4;stroke-opacity:1;stroke-dasharray:none;stroke-dashoffset:0" />
        <path
           d="m 304.22536,687.57343 a 6.338028,6.338028 0 1 1 -12.67606,0 6.338028,6.338028 0 1 1 12.67606,0 z"
           transform="translate(350.70422,268.30988)"
           id="path3907-54"
           style="fill:#ff0000;fill-opacity:1;stroke:#000000;stroke-width:1.06446767;stroke-miterlimit:4;stroke-opacity:1;stroke-dasharray:none;stroke-dashoffset:0" />
        <path
           d="m 304.22536,687.57343 a 6.338028,6.338028 0 1 1 -12.67606,0 6.338028,6.338028 0 1 1 12.67606,0 z"
           transform="translate(337.32394,225.35214)"
           id="path3907-08"
           style="fill:#ff0000;fill-opacity:1;stroke:#000000;stroke-width:1.06446767;stroke-miterlimit:4;stroke-opacity:1;stroke-dasharray:none;stroke-dashoffset:0" />
        <path
           d="m 304.22536,687.57343 a 6.338028,6.338028 0 1 1 -12.67606,0 6.338028,6.338028 0 1 1 12.67606,0 z"
           transform="translate(348.59154,325.35214)"
           id="path3907-93"
           style="fill:#ff0000;fill-opacity:1;stroke:#000000;stroke-width:1.06446767;stroke-miterlimit:4;stroke-opacity:1;stroke-dasharray:none;stroke-dashoffset:0" />
        <path
           d="m 304.22536,687.57343 a 6.338028,6.338028 0 1 1 -12.67606,0 6.338028,6.338028 0 1 1 12.67606,0 z"
           transform="translate(352.8169,380.28172)"
           id="path3907-848"
           style="fill:#ff0000;fill-opacity:1;stroke:#000000;stroke-width:1.06446767;stroke-miterlimit:4;stroke-opacity:1;stroke-dasharray:none;stroke-dashoffset:0" />
        <path
           d="m 304.22536,687.57343 a 6.338028,6.338028 0 1 1 -12.67606,0 6.338028,6.338028 0 1 1 12.67606,0 z"
           transform="translate(272.53521,392.95777)"
           id="path3907-334"
           style="fill:#ff0000;fill-opacity:1;stroke:#000000;stroke-width:1.06446767;stroke-miterlimit:4;stroke-opacity:1;stroke-dasharray:none;stroke-dashoffset:0" />
        <path
           d="m 304.22536,687.57343 a 6.338028,6.338028 0 1 1 -12.67606,0 6.338028,6.338028 0 1 1 12.67606,0 z"
           transform="translate(138.73239,385.21129)"
           id="path3907-75"
           style="fill:#ff0000;fill-opacity:1;stroke:#000000;stroke-width:1.06446767;stroke-miterlimit:4;stroke-opacity:1;stroke-dasharray:none;stroke-dashoffset:0" />
        <path
           d="m 304.22536,687.57343 a 6.338028,6.338028 0 1 1 -12.67606,0 6.338028,6.338028 0 1 1 12.67606,0 z"
           transform="translate(335.91549,408.45073)"
           id="path3907-021"
           style="fill:#ff0000;fill-opacity:1;stroke:#000000;stroke-width:1.06446767;stroke-miterlimit:4;stroke-opacity:1;stroke-dasharray:none;stroke-dashoffset:0" />
        <path
           d="m 304.22536,687.57343 a 6.338028,6.338028 0 1 1 -12.67606,0 6.338028,6.338028 0 1 1 12.67606,0 z"
           transform="translate(200.70422,410.56341)"
           id="path3907-81"
           style="fill:#ff0000;fill-opacity:1;stroke:#000000;stroke-width:1.06446767;stroke-miterlimit:4;stroke-opacity:1;stroke-dasharray:none;stroke-dashoffset:0" />
        <path
           d="m 304.22536,687.57343 a 6.338028,6.338028 0 1 1 -12.67606,0 6.338028,6.338028 0 1 1 12.67606,0 z"
           transform="translate(195.07042,213.38031)"
           id="path3907-518"
           style="fill:#ff0000;fill-opacity:1;stroke:#000000;stroke-width:1.06446767;stroke-miterlimit:4;stroke-opacity:1;stroke-dasharray:none;stroke-dashoffset:0" />
      </g>
    </g>
  </g>
</svg>
