<?xml version="1.0" encoding="UTF-8"?>
<svg width="518pt" xmlns:xlink="http://www.w3.org/1999/xlink" xmlns="http://www.w3.org/2000/svg" height="211pt" viewBox="0 0 518 211" >
 <g transform="translate(42.01, 26.7683)" style="fill:#161413; fill-rule:evenodd; stroke:none; stroke-width:0.01; stroke-linecap:butt; stroke-linejoin:miter; stroke-dasharray:none;" >
  <path d="M14.4902 5.58408 C13.8064 1.83021 11.6352 0 7.8583 0 C5.54584 0 3.68188 0.727547 2.40657 2.13571 C0.848932 3.82456 0 6.2648 0 9.03353 C0 11.8489 0.872926 14.2653 2.50166 15.9312 C3.823 17.2927 5.52184 17.9257 7.76419 17.9257 C11.9655 17.9257 14.325 15.6734 14.8445 11.1453 C14.8445 11.1453 12.5791 11.1453 12.5791 11.1453 C12.39 12.3186 12.1537 13.1158 11.8003 13.7965 C11.0916 15.2038 9.62903 16.0019 7.78819 16.0019 C4.36561 16.0019 2.19436 13.28 2.19436 9.00958 C2.19436 4.62269 4.27151 1.92377 7.59899 1.92377 C8.99142 1.92377 10.2897 2.34669 10.9975 3.00355 C11.6352 3.58973 11.9886 4.31718 12.2488 5.58408 C12.2488 5.58408 14.4902 5.58408 14.4902 5.58408 Z" />
 </g>
 <g transform="translate(59.7988, 27.05)" style="fill:#161413; fill-rule:evenodd; stroke:none; stroke-width:0.01; stroke-linecap:butt; stroke-linejoin:miter; stroke-dasharray:none;" >
  <path d="M11.0445 9.31508 C11.0445 9.31508 11.0445 17.1046 11.0445 17.1046 C11.0445 17.1046 13.2398 17.1046 13.2398 17.1046 C13.2398 17.1046 13.2398 0 13.2398 0 C13.2398 0 11.0445 0 11.0445 0 C11.0445 0 11.0445 7.39141 11.0445 7.39141 C11.0445 7.39141 2.19426 7.39141 2.19426 7.39141 C2.19426 7.39141 2.19426 0 2.19426 0 C2.19426 0 0 0 0 0 C0 0 0 17.1046 0 17.1046 C0 17.1046 2.21826 17.1046 2.21826 17.1046 C2.21826 17.1046 2.21826 9.31508 2.21826 9.31508 C2.21826 9.31508 11.0445 9.31508 11.0445 9.31508 Z" />
 </g>
 <g transform="translate(75.4048, 36.0777)" style="fill:#161413; fill-rule:evenodd; stroke:none; stroke-width:0.01; stroke-linecap:butt; stroke-linejoin:miter; stroke-dasharray:none;" >
  <path d="M8.3547 10.9448 C8.3547 10.9448 1.75165 10.9448 1.75165 10.9448 C1.91106 9.92414 2.47757 9.27305 4.0179 8.37569 C4.0179 8.37569 5.78774 7.42573 5.78774 7.42573 C7.54038 6.47577 8.443 5.19079 8.443 3.66032 C8.443 2.62159 8.0176 1.65355 7.27438 0.985248 C6.53106 0.316945 5.61113 0 4.42511 0 C2.83197 0 1.64594 0.563306 0.955528 1.61826 C0.512821 2.28744 0.317821 3.06172 0.283305 4.32862 C0.283305 4.32862 1.84094 4.32862 1.84094 4.32862 C1.89375 3.48376 2.00034 2.97393 2.21255 2.56909 C2.61976 1.81202 3.4331 1.35469 4.37132 1.35469 C5.78774 1.35469 6.84987 2.35812 6.84987 3.69473 C6.84987 4.68096 6.26605 5.52484 5.15013 6.15883 C5.15013 6.15883 3.52238 7.07339 3.52238 7.07339 C0.902722 8.55224 0.14121 9.73135 0 12.4761 C0 12.4761 8.3547 12.4761 8.3547 12.4761 C8.3547 12.4761 8.3547 10.9448 8.3547 10.9448 Z" />
 </g>
 <g transform="translate(101.257, 26.7683)" style="fill:#161413; fill-rule:evenodd; stroke:none; stroke-width:0.01; stroke-linecap:butt; stroke-linejoin:miter; stroke-dasharray:none;" >
  <path d="M14.4905 5.58408 C13.806 1.83021 11.6348 0 7.85869 0 C5.54584 0 3.68139 0.727547 2.40696 2.13571 C0.848932 3.82456 0 6.2648 0 9.03353 C0 11.8489 0.872926 14.2653 2.50136 15.9312 C3.823 17.2927 5.52224 17.9257 7.76429 17.9257 C11.9652 17.9257 14.3252 15.6734 14.8445 11.1453 C14.8445 11.1453 12.5788 11.1453 12.5788 11.1453 C12.39 12.3186 12.154 13.1158 11.8 13.7965 C11.092 15.2038 9.62874 16.0019 7.78789 16.0019 C4.36581 16.0019 2.19456 13.28 2.19456 9.00958 C2.19456 4.62269 4.27141 1.92377 7.59909 1.92377 C8.99152 1.92377 10.2896 2.34669 10.9976 3.00355 C11.6348 3.58973 11.9888 4.31718 12.2484 5.58408 C12.2484 5.58408 14.4905 5.58408 14.4905 5.58408 Z" />
 </g>
 <g transform="translate(119.046, 27.05)" style="fill:#161413; fill-rule:evenodd; stroke:none; stroke-width:0.01; stroke-linecap:butt; stroke-linejoin:miter; stroke-dasharray:none;" >
  <path d="M11.0451 9.31508 C11.0451 9.31508 11.0451 17.1046 11.0451 17.1046 C11.0451 17.1046 13.2399 17.1046 13.2399 17.1046 C13.2399 17.1046 13.2399 0 13.2399 0 C13.2399 0 11.0451 0 11.0451 0 C11.0451 0 11.0451 7.39141 11.0451 7.39141 C11.0451 7.39141 2.19485 7.39141 2.19485 7.39141 C2.19485 7.39141 2.19485 0 2.19485 0 C2.19485 0 0 0 0 0 C0 0 0 17.1046 0 17.1046 C0 17.1046 2.21845 17.1046 2.21845 17.1046 C2.21845 17.1046 2.21845 9.31508 2.21845 9.31508 C2.21845 9.31508 11.0451 9.31508 11.0451 9.31508 Z" />
 </g>
 <g transform="translate(85.9144, 34.0843)" style="fill:#161413; fill-rule:nonzero; stroke:none; stroke-width:1.66683; stroke-linecap:butt; stroke-linejoin:miter; stroke-dasharray:none;" >
  <path d="M13.1274 0 C13.1274 0 13.1274 1.66215 13.1274 1.66215 C13.1274 1.66215 0 1.66215 0 1.66215 C0 1.66215 0 0 0 0 C0 0 13.1274 0 13.1274 0 Z" />
 </g>
 <g transform="translate(107.695, 46.5986)" style="fill:#161413; fill-rule:nonzero; stroke:none; stroke-width:1.66683; stroke-linecap:butt; stroke-linejoin:miter; stroke-dasharray:none;" >
  <path d="M1.67171 44.5305 C1.67171 44.5305 0.836837 45.0193 0.836837 45.0193 C0.836837 45.0193 0 44.5305 0 44.5305 C0 44.5305 0 0 0 0 C0 0 1.67171 0 1.67171 0 C1.67171 0 1.67171 44.5305 1.67171 44.5305 Z" />
 </g>
 <g transform="translate(156.079, 26.7683)" style="fill:#161413; fill-rule:evenodd; stroke:none; stroke-width:1.66683; stroke-linecap:butt; stroke-linejoin:miter; stroke-dasharray:none;" >
  <path d="M14.4907 5.58408 C13.8063 1.83021 11.6351 0 7.85899 0 C5.54613 0 3.68169 0.727547 2.40726 2.13571 C0.84962 3.82456 0 6.2648 0 9.03353 C0 11.8489 0.873221 14.2653 2.50166 15.9312 C3.82329 17.2927 5.52253 17.9257 7.76459 17.9257 C11.9655 17.9257 14.3255 15.6734 14.8448 11.1453 C14.8448 11.1453 12.5791 11.1453 12.5791 11.1453 C12.3903 12.3186 12.1543 13.1158 11.8003 13.7965 C11.0923 15.2038 9.62903 16.0019 7.78819 16.0019 C4.3661 16.0019 2.19485 13.28 2.19485 9.00958 C2.19485 4.62269 4.2717 1.92377 7.59938 1.92377 C8.99181 1.92377 10.2898 2.34669 10.9979 3.00355 C11.6351 3.58973 11.9891 4.31718 12.2487 5.58408 C12.2487 5.58408 14.4907 5.58408 14.4907 5.58408 Z" />
 </g>
 <g transform="translate(173.868, 27.05)" style="fill:#161413; fill-rule:evenodd; stroke:none; stroke-width:1.66683; stroke-linecap:butt; stroke-linejoin:miter; stroke-dasharray:none;" >
  <path d="M11.0451 9.31508 C11.0451 9.31508 11.0451 17.1046 11.0451 17.1046 C11.0451 17.1046 13.2399 17.1046 13.2399 17.1046 C13.2399 17.1046 13.2399 0 13.2399 0 C13.2399 0 11.0451 0 11.0451 0 C11.0451 0 11.0451 7.39141 11.0451 7.39141 C11.0451 7.39141 2.19485 7.39141 2.19485 7.39141 C2.19485 7.39141 2.19485 0 2.19485 0 C2.19485 0 0 0 0 0 C0 0 0 17.1046 0 17.1046 C0 17.1046 2.21845 17.1046 2.21845 17.1046 C2.21845 17.1046 2.21845 9.31508 2.21845 9.31508 C2.21845 9.31508 11.0451 9.31508 11.0451 9.31508 Z" />
 </g>
 <g transform="translate(189.474, 36.0777)" style="fill:#161413; fill-rule:evenodd; stroke:none; stroke-width:1.66683; stroke-linecap:butt; stroke-linejoin:miter; stroke-dasharray:none;" >
  <path d="M8.3546 10.9448 C8.3546 10.9448 1.75234 10.9448 1.75234 10.9448 C1.91165 9.92414 2.47806 9.27305 4.018 8.37569 C4.018 8.37569 5.78804 7.42573 5.78804 7.42573 C7.54038 6.47577 8.4431 5.19079 8.4431 3.66032 C8.4431 2.62159 8.01829 1.65355 7.27487 0.985248 C6.53146 0.316945 5.61103 0 4.42511 0 C2.83207 0 1.64614 0.563306 0.955823 1.61826 C0.513312 2.28744 0.318608 3.06172 0.283207 4.32862 C0.283207 4.32862 1.84084 4.32862 1.84084 4.32862 C1.89395 3.48376 2.00015 2.97393 2.21255 2.56909 C2.61966 1.81202 3.43388 1.35469 4.372 1.35469 C5.78804 1.35469 6.85006 2.35812 6.85006 3.69473 C6.85006 4.68096 6.26595 5.52484 5.15082 6.15883 C5.15082 6.15883 3.52238 7.07339 3.52238 7.07339 C0.902722 8.55224 0.141603 9.73135 0 12.4761 C0 12.4761 8.3546 12.4761 8.3546 12.4761 C8.3546 12.4761 8.3546 10.9448 8.3546 10.9448 Z" />
 </g>
 <g transform="translate(134.394, 34.0843)" style="fill:#161413; fill-rule:nonzero; stroke:none; stroke-width:1.66683; stroke-linecap:butt; stroke-linejoin:miter; stroke-dasharray:none;" >
  <path d="M19.4695 0 C19.4695 0 19.4695 1.66215 19.4695 1.66215 C19.4695 1.66215 0 1.66215 0 1.66215 C0 1.66215 0 0 0 0 C0 0 19.4695 0 19.4695 0 Z" />
 </g>
 <g transform="translate(7, 34.0843)" style="fill:#161413; fill-rule:nonzero; stroke:none; stroke-width:1.66683; stroke-linecap:butt; stroke-linejoin:miter; stroke-dasharray:none;" >
  <path d="M0 1.66215 C0 1.66215 0 0 0 0 C0 0 32.7946 0 32.7946 0 C32.7946 0 32.7946 1.66215 32.7946 1.66215 C32.7946 1.66215 0 1.66215 0 1.66215 Z" />
 </g>
 <g transform="translate(215.326, 26.7683)" style="fill:#161413; fill-rule:evenodd; stroke:none; stroke-width:1.66683; stroke-linecap:butt; stroke-linejoin:miter; stroke-dasharray:none;" >
  <path d="M14.4907 5.58408 C13.8063 1.83021 11.6351 0 7.85899 0 C5.54613 0 3.68169 0.727547 2.40726 2.13571 C0.84962 3.82456 0 6.2648 0 9.03353 C0 11.8489 0.873221 14.2653 2.50166 15.9312 C3.82329 17.2927 5.52253 17.9257 7.76459 17.9257 C11.9655 17.9257 14.3255 15.6734 14.8448 11.1453 C14.8448 11.1453 12.5791 11.1453 12.5791 11.1453 C12.3903 12.3186 12.1543 13.1158 11.8003 13.7965 C11.0923 15.2038 9.62903 16.0019 7.78819 16.0019 C4.3661 16.0019 2.19485 13.28 2.19485 9.00958 C2.19485 4.62269 4.2717 1.92377 7.59938 1.92377 C8.99181 1.92377 10.2898 2.34669 10.9979 3.00355 C11.6351 3.58973 11.9891 4.31718 12.2487 5.58408 C12.2487 5.58408 14.4907 5.58408 14.4907 5.58408 Z" />
 </g>
 <g transform="translate(233.115, 27.05)" style="fill:#161413; fill-rule:evenodd; stroke:none; stroke-width:1.66683; stroke-linecap:butt; stroke-linejoin:miter; stroke-dasharray:none;" >
  <path d="M11.0451 9.31508 C11.0451 9.31508 11.0451 17.1046 11.0451 17.1046 C11.0451 17.1046 13.2399 17.1046 13.2399 17.1046 C13.2399 17.1046 13.2399 0 13.2399 0 C13.2399 0 11.0451 0 11.0451 0 C11.0451 0 11.0451 7.39141 11.0451 7.39141 C11.0451 7.39141 2.19485 7.39141 2.19485 7.39141 C2.19485 7.39141 2.19485 0 2.19485 0 C2.19485 0 0 0 0 0 C0 0 0 17.1046 0 17.1046 C0 17.1046 2.21845 17.1046 2.21845 17.1046 C2.21845 17.1046 2.21845 9.31508 2.21845 9.31508 C2.21845 9.31508 11.0451 9.31508 11.0451 9.31508 Z" />
 </g>
 <g transform="translate(199.984, 34.0843)" style="fill:#161413; fill-rule:nonzero; stroke:none; stroke-width:1.66683; stroke-linecap:butt; stroke-linejoin:miter; stroke-dasharray:none;" >
  <path d="M13.1268 0 C13.1268 0 13.1268 1.66215 13.1268 1.66215 C13.1268 1.66215 0 1.66215 0 1.66215 C0 1.66215 0 0 0 0 C0 0 13.1268 0 13.1268 0 Z" />
 </g>
 <g transform="translate(221.814, 46.5986)" style="fill:#161413; fill-rule:nonzero; stroke:none; stroke-width:1.66683; stroke-linecap:butt; stroke-linejoin:miter; stroke-dasharray:none;" >
  <path d="M1.67072 44.5305 C1.67072 44.5305 0.835853 45.0193 0.835853 45.0193 C0.835853 45.0193 0 44.5305 0 44.5305 C0 44.5305 0 0 0 0 C0 0 1.67072 0 1.67072 0 C1.67072 0 1.67072 44.5305 1.67072 44.5305 Z" />
 </g>
 <g transform="translate(270.148, 26.7683)" style="fill:#161413; fill-rule:evenodd; stroke:none; stroke-width:1.66683; stroke-linecap:butt; stroke-linejoin:miter; stroke-dasharray:none;" >
  <path d="M14.4907 5.58408 C13.8063 1.83021 11.6351 0 7.85899 0 C5.54613 0 3.68169 0.727547 2.40726 2.13571 C0.84962 3.82456 0 6.2648 0 9.03353 C0 11.8489 0.873221 14.2653 2.50166 15.9312 C3.82329 17.2927 5.52253 17.9257 7.76459 17.9257 C11.9655 17.9257 14.3255 15.6734 14.8448 11.1453 C14.8448 11.1453 12.5791 11.1453 12.5791 11.1453 C12.3903 12.3186 12.1543 13.1158 11.8003 13.7965 C11.0923 15.2038 9.62903 16.0019 7.78819 16.0019 C4.3661 16.0019 2.19485 13.28 2.19485 9.00958 C2.19485 4.62269 4.2717 1.92377 7.59938 1.92377 C8.99181 1.92377 10.2898 2.34669 10.9979 3.00355 C11.6351 3.58973 11.9891 4.31718 12.2487 5.58408 C12.2487 5.58408 14.4907 5.58408 14.4907 5.58408 Z" />
 </g>
 <g transform="translate(287.937, 27.05)" style="fill:#161413; fill-rule:evenodd; stroke:none; stroke-width:1.66683; stroke-linecap:butt; stroke-linejoin:miter; stroke-dasharray:none;" >
  <path d="M11.0451 9.31508 C11.0451 9.31508 11.0451 17.1046 11.0451 17.1046 C11.0451 17.1046 13.2399 17.1046 13.2399 17.1046 C13.2399 17.1046 13.2399 0 13.2399 0 C13.2399 0 11.0451 0 11.0451 0 C11.0451 0 11.0451 7.39141 11.0451 7.39141 C11.0451 7.39141 2.19485 7.39141 2.19485 7.39141 C2.19485 7.39141 2.19485 0 2.19485 0 C2.19485 0 0 0 0 0 C0 0 0 17.1046 0 17.1046 C0 17.1046 2.21845 17.1046 2.21845 17.1046 C2.21845 17.1046 2.21845 9.31508 2.21845 9.31508 C2.21845 9.31508 11.0451 9.31508 11.0451 9.31508 Z" />
 </g>
 <g transform="translate(303.543, 36.0777)" style="fill:#161413; fill-rule:evenodd; stroke:none; stroke-width:1.66683; stroke-linecap:butt; stroke-linejoin:miter; stroke-dasharray:none;" >
  <path d="M8.3546 10.9448 C8.3546 10.9448 1.75234 10.9448 1.75234 10.9448 C1.91165 9.92414 2.47806 9.27305 4.018 8.37569 C4.018 8.37569 5.78804 7.42573 5.78804 7.42573 C7.54038 6.47577 8.4431 5.19079 8.4431 3.66032 C8.4431 2.62159 8.01829 1.65355 7.27487 0.985248 C6.53146 0.316945 5.61103 0 4.42511 0 C2.83207 0 1.64614 0.563306 0.955823 1.61826 C0.513312 2.28744 0.318608 3.06172 0.283207 4.32862 C0.283207 4.32862 1.84084 4.32862 1.84084 4.32862 C1.89395 3.48376 2.00015 2.97393 2.21255 2.56909 C2.61966 1.81202 3.43388 1.35469 4.372 1.35469 C5.78804 1.35469 6.85006 2.35812 6.85006 3.69473 C6.85006 4.68096 6.26595 5.52484 5.15082 6.15883 C5.15082 6.15883 3.52238 7.07339 3.52238 7.07339 C0.902722 8.55224 0.141603 9.73135 0 12.4761 C0 12.4761 8.3546 12.4761 8.3546 12.4761 C8.3546 12.4761 8.3546 10.9448 8.3546 10.9448 Z" />
 </g>
 <g transform="translate(248.463, 34.0843)" style="fill:#161413; fill-rule:nonzero; stroke:none; stroke-width:1.66683; stroke-linecap:butt; stroke-linejoin:miter; stroke-dasharray:none;" >
  <path d="M19.4695 0 C19.4695 0 19.4695 1.66215 19.4695 1.66215 C19.4695 1.66215 0 1.66215 0 1.66215 C0 1.66215 0 0 0 0 C0 0 19.4695 0 19.4695 0 Z" />
 </g>
 <g transform="translate(329.396, 26.7683)" style="fill:#161413; fill-rule:evenodd; stroke:none; stroke-width:1.66683; stroke-linecap:butt; stroke-linejoin:miter; stroke-dasharray:none;" >
  <path d="M14.4907 5.58408 C13.8063 1.83021 11.6351 0 7.85899 0 C5.54613 0 3.68169 0.727547 2.40726 2.13571 C0.84962 3.82456 0 6.2648 0 9.03353 C0 11.8489 0.873221 14.2653 2.50166 15.9312 C3.82329 17.2927 5.52253 17.9257 7.76459 17.9257 C11.9655 17.9257 14.3255 15.6734 14.8448 11.1453 C14.8448 11.1453 12.5791 11.1453 12.5791 11.1453 C12.3903 12.3186 12.1543 13.1158 11.8003 13.7965 C11.0923 15.2038 9.62903 16.0019 7.78819 16.0019 C4.3661 16.0019 2.19485 13.28 2.19485 9.00958 C2.19485 4.62269 4.2717 1.92377 7.59938 1.92377 C8.99181 1.92377 10.2898 2.34669 10.9979 3.00355 C11.6351 3.58973 11.9891 4.31718 12.2487 5.58408 C12.2487 5.58408 14.4907 5.58408 14.4907 5.58408 Z" />
 </g>
 <g transform="translate(347.185, 27.05)" style="fill:#161413; fill-rule:evenodd; stroke:none; stroke-width:1.66683; stroke-linecap:butt; stroke-linejoin:miter; stroke-dasharray:none;" >
  <path d="M11.0451 9.31508 C11.0451 9.31508 11.0451 17.1046 11.0451 17.1046 C11.0451 17.1046 13.2399 17.1046 13.2399 17.1046 C13.2399 17.1046 13.2399 0 13.2399 0 C13.2399 0 11.0451 0 11.0451 0 C11.0451 0 11.0451 7.39141 11.0451 7.39141 C11.0451 7.39141 2.19485 7.39141 2.19485 7.39141 C2.19485 7.39141 2.19485 0 2.19485 0 C2.19485 0 0 0 0 0 C0 0 0 17.1046 0 17.1046 C0 17.1046 2.21845 17.1046 2.21845 17.1046 C2.21845 17.1046 2.21845 9.31508 2.21845 9.31508 C2.21845 9.31508 11.0451 9.31508 11.0451 9.31508 Z" />
 </g>
 <g transform="translate(314.103, 34.0843)" style="fill:#161413; fill-rule:nonzero; stroke:none; stroke-width:1.66683; stroke-linecap:butt; stroke-linejoin:miter; stroke-dasharray:none;" >
  <path d="M13.0777 0 C13.0777 0 13.0777 1.66215 13.0777 1.66215 C13.0777 1.66215 0 1.66215 0 1.66215 C0 1.66215 0 0 0 0 C0 0 13.0777 0 13.0777 0 Z" />
 </g>
 <g transform="translate(335.884, 46.5986)" style="fill:#161413; fill-rule:nonzero; stroke:none; stroke-width:1.66683; stroke-linecap:butt; stroke-linejoin:miter; stroke-dasharray:none;" >
  <path d="M1.67072 44.5305 C1.67072 44.5305 0.835853 45.0193 0.835853 45.0193 C0.835853 45.0193 0 44.5305 0 44.5305 C0 44.5305 0 0 0 0 C0 0 1.67072 0 1.67072 0 C1.67072 0 1.67072 44.5305 1.67072 44.5305 Z" />
 </g>
 <g transform="translate(384.218, 26.7683)" style="fill:#161413; fill-rule:evenodd; stroke:none; stroke-width:1.66683; stroke-linecap:butt; stroke-linejoin:miter; stroke-dasharray:none;" >
  <path d="M14.4907 5.58408 C13.8063 1.83021 11.6351 0 7.85899 0 C5.54613 0 3.68169 0.727547 2.40726 2.13571 C0.84962 3.82456 0 6.2648 0 9.03353 C0 11.8489 0.873221 14.2653 2.50166 15.9312 C3.82329 17.2927 5.52253 17.9257 7.76459 17.9257 C11.9655 17.9257 14.3255 15.6734 14.8448 11.1453 C14.8448 11.1453 12.5791 11.1453 12.5791 11.1453 C12.3903 12.3186 12.1543 13.1158 11.8003 13.7965 C11.0923 15.2038 9.62903 16.0019 7.78819 16.0019 C4.3661 16.0019 2.19485 13.28 2.19485 9.00958 C2.19485 4.62269 4.2717 1.92377 7.59938 1.92377 C8.99181 1.92377 10.2898 2.34669 10.9979 3.00355 C11.6351 3.58973 11.9891 4.31718 12.2487 5.58408 C12.2487 5.58408 14.4907 5.58408 14.4907 5.58408 Z" />
 </g>
 <g transform="translate(402.007, 27.05)" style="fill:#161413; fill-rule:evenodd; stroke:none; stroke-width:1.66683; stroke-linecap:butt; stroke-linejoin:miter; stroke-dasharray:none;" >
  <path d="M11.0451 9.31508 C11.0451 9.31508 11.0451 17.1046 11.0451 17.1046 C11.0451 17.1046 13.2399 17.1046 13.2399 17.1046 C13.2399 17.1046 13.2399 0 13.2399 0 C13.2399 0 11.0451 0 11.0451 0 C11.0451 0 11.0451 7.39141 11.0451 7.39141 C11.0451 7.39141 2.19485 7.39141 2.19485 7.39141 C2.19485 7.39141 2.19485 0 2.19485 0 C2.19485 0 0 0 0 0 C0 0 0 17.1046 0 17.1046 C0 17.1046 2.21845 17.1046 2.21845 17.1046 C2.21845 17.1046 2.21845 9.31508 2.21845 9.31508 C2.21845 9.31508 11.0451 9.31508 11.0451 9.31508 Z" />
 </g>
 <g transform="translate(417.613, 36.0777)" style="fill:#161413; fill-rule:evenodd; stroke:none; stroke-width:1.66683; stroke-linecap:butt; stroke-linejoin:miter; stroke-dasharray:none;" >
  <path d="M8.3546 10.9448 C8.3546 10.9448 1.75234 10.9448 1.75234 10.9448 C1.91165 9.92414 2.47806 9.27305 4.018 8.37569 C4.018 8.37569 5.78804 7.42573 5.78804 7.42573 C7.54038 6.47577 8.4431 5.19079 8.4431 3.66032 C8.4431 2.62159 8.01829 1.65355 7.27487 0.985248 C6.53146 0.316945 5.61103 0 4.42511 0 C2.83207 0 1.64614 0.563306 0.955823 1.61826 C0.513312 2.28744 0.318608 3.06172 0.283207 4.32862 C0.283207 4.32862 1.84084 4.32862 1.84084 4.32862 C1.89395 3.48376 2.00015 2.97393 2.21255 2.56909 C2.61966 1.81202 3.43388 1.35469 4.372 1.35469 C5.78804 1.35469 6.85006 2.35812 6.85006 3.69473 C6.85006 4.68096 6.26595 5.52484 5.15082 6.15883 C5.15082 6.15883 3.52238 7.07339 3.52238 7.07339 C0.902722 8.55224 0.141603 9.73135 0 12.4761 C0 12.4761 8.3546 12.4761 8.3546 12.4761 C8.3546 12.4761 8.3546 10.9448 8.3546 10.9448 Z" />
 </g>
 <g transform="translate(362.581, 34.0843)" style="fill:#161413; fill-rule:nonzero; stroke:none; stroke-width:1.66683; stroke-linecap:butt; stroke-linejoin:miter; stroke-dasharray:none;" >
  <path d="M19.4213 0 C19.4213 0 19.4213 1.66215 19.4213 1.66215 C19.4213 1.66215 0 1.66215 0 1.66215 C0 1.66215 0 0 0 0 C0 0 19.4213 0 19.4213 0 Z" />
 </g>
 <g transform="translate(443.465, 26.7683)" style="fill:#161413; fill-rule:evenodd; stroke:none; stroke-width:1.66683; stroke-linecap:butt; stroke-linejoin:miter; stroke-dasharray:none;" >
  <path d="M14.4907 5.58408 C13.8063 1.83021 11.6351 0 7.85899 0 C5.54613 0 3.68169 0.727547 2.40726 2.13571 C0.84962 3.82456 0 6.2648 0 9.03353 C0 11.8489 0.873221 14.2653 2.50166 15.9312 C3.82329 17.2927 5.52253 17.9257 7.76459 17.9257 C11.9655 17.9257 14.3255 15.6734 14.8448 11.1453 C14.8448 11.1453 12.5791 11.1453 12.5791 11.1453 C12.3903 12.3186 12.1543 13.1158 11.8003 13.7965 C11.0923 15.2038 9.62903 16.0019 7.78819 16.0019 C4.3661 16.0019 2.19485 13.28 2.19485 9.00958 C2.19485 4.62269 4.2717 1.92377 7.59938 1.92377 C8.99181 1.92377 10.2898 2.34669 10.9979 3.00355 C11.6351 3.58973 11.9891 4.31718 12.2487 5.58408 C12.2487 5.58408 14.4907 5.58408 14.4907 5.58408 Z" />
 </g>
 <g transform="translate(461.254, 27.05)" style="fill:#161413; fill-rule:evenodd; stroke:none; stroke-width:1.66683; stroke-linecap:butt; stroke-linejoin:miter; stroke-dasharray:none;" >
  <path d="M11.0451 9.31508 C11.0451 9.31508 11.0451 17.1046 11.0451 17.1046 C11.0451 17.1046 13.2399 17.1046 13.2399 17.1046 C13.2399 17.1046 13.2399 0 13.2399 0 C13.2399 0 11.0451 0 11.0451 0 C11.0451 0 11.0451 7.39141 11.0451 7.39141 C11.0451 7.39141 2.19485 7.39141 2.19485 7.39141 C2.19485 7.39141 2.19485 0 2.19485 0 C2.19485 0 0 0 0 0 C0 0 0 17.1046 0 17.1046 C0 17.1046 2.21845 17.1046 2.21845 17.1046 C2.21845 17.1046 2.21845 9.31508 2.21845 9.31508 C2.21845 9.31508 11.0451 9.31508 11.0451 9.31508 Z" />
 </g>
 <g transform="translate(428.172, 34.0843)" style="fill:#161413; fill-rule:nonzero; stroke:none; stroke-width:1.66683; stroke-linecap:butt; stroke-linejoin:miter; stroke-dasharray:none;" >
  <path d="M13.0777 0 C13.0777 0 13.0777 1.66215 13.0777 1.66215 C13.0777 1.66215 0 1.66215 0 1.66215 C0 1.66215 0 0 0 0 C0 0 13.0777 0 13.0777 0 Z" />
 </g>
 <g transform="translate(449.953, 46.5986)" style="fill:#161413; fill-rule:nonzero; stroke:none; stroke-width:1.66683; stroke-linecap:butt; stroke-linejoin:miter; stroke-dasharray:none;" >
  <path d="M1.67072 44.5305 C1.67072 44.5305 0.835853 45.0193 0.835853 45.0193 C0.835853 45.0193 0 44.5305 0 44.5305 C0 44.5305 0 0 0 0 C0 0 1.67072 0 1.67072 0 C1.67072 0 1.67072 44.5305 1.67072 44.5305 Z" />
 </g>
 <g transform="translate(476.65, 34.0843)" style="fill:#161413; fill-rule:nonzero; stroke:none; stroke-width:1.66683; stroke-linecap:butt; stroke-linejoin:miter; stroke-dasharray:none;" >
  <path d="M31.1734 0 C31.1734 0 31.1734 1.66215 31.1734 1.66215 C31.1734 1.66215 0 1.66215 0 1.66215 C0 1.66215 0 0 0 0 C0 0 31.1734 0 31.1734 0 Z" />
 </g>
 <g transform="translate(58.3314, 91.1291)" style="fill:#161413; fill-rule:nonzero; stroke:none; stroke-width:1.66683; stroke-linecap:butt; stroke-linejoin:miter; stroke-dasharray:none;" >
  <path d="M1.67092 29.3289 C1.67092 29.3289 0 28.3513 0 28.3513 C0 28.3513 49.3635 0 49.3635 0 C49.3635 0 50.2004 0.488811 50.2004 0.488811 C50.2004 0.488811 50.2004 1.46643 50.2004 1.46643 C50.2004 1.46643 1.67092 29.3289 1.67092 29.3289 Z" />
 </g>
 <g transform="translate(64.5753, 97.6297)" style="fill:#161413; fill-rule:nonzero; stroke:none; stroke-width:1.66683; stroke-linecap:butt; stroke-linejoin:miter; stroke-dasharray:none;" >
  <path d="M0.83546 26.3956 C0.83546 26.3956 0 24.979 0 24.979 C0 24.979 43.5621 0 43.5621 0 C43.5621 0 44.399 1.41775 44.399 1.41775 C44.399 1.41775 0.83546 26.3956 0.83546 26.3956 Z" />
 </g>
 <g transform="translate(58.3314, 119.48)" style="fill:#161413; fill-rule:nonzero; stroke:none; stroke-width:1.66683; stroke-linecap:butt; stroke-linejoin:miter; stroke-dasharray:none;" >
  <path d="M1.67092 56.7021 C1.67092 56.7021 0 57.6797 0 57.6797 C0 57.6797 0 0 0 0 C0 0 1.67092 0.977623 1.67092 0.977623 C1.67092 0.977623 1.67092 56.7021 1.67092 56.7021 Z" />
 </g>
 <g transform="translate(58.3314, 176.183)" style="fill:#161413; fill-rule:nonzero; stroke:none; stroke-width:1.66683; stroke-linecap:butt; stroke-linejoin:miter; stroke-dasharray:none;" >
  <path d="M50.2004 27.8622 C50.2004 27.8622 50.2004 29.8175 50.2004 29.8175 C50.2004 29.8175 0 0.977623 0 0.977623 C0 0.977623 1.67092 0 1.67092 0 C1.67092 0 50.2004 27.8622 50.2004 27.8622 Z" />
 </g>
 <g transform="translate(64.5753, 172.613)" style="fill:#161413; fill-rule:nonzero; stroke:none; stroke-width:1.66683; stroke-linecap:butt; stroke-linejoin:miter; stroke-dasharray:none;" >
  <path d="M44.399 24.9783 C44.399 24.9783 43.5621 26.3958 43.5621 26.3958 C43.5621 26.3958 0 1.41853 0 1.41853 C0 1.41853 0.83546 0 0.83546 0 C0.83546 0 44.399 24.9783 44.399 24.9783 Z" />
 </g>
 <g transform="translate(108.532, 176.183)" style="fill:#161413; fill-rule:nonzero; stroke:none; stroke-width:1.66683; stroke-linecap:butt; stroke-linejoin:miter; stroke-dasharray:none;" >
  <path d="M48.5768 0 C48.5768 0 50.2486 0.977623 50.2486 0.977623 C50.2486 0.977623 0 29.8175 0 29.8175 C0 29.8175 0 27.8622 0 27.8622 C0 27.8622 48.5768 0 48.5768 0 Z" />
 </g>
 <g transform="translate(157.109, 119.48)" style="fill:#161413; fill-rule:nonzero; stroke:none; stroke-width:1.66683; stroke-linecap:butt; stroke-linejoin:miter; stroke-dasharray:none;" >
  <path d="M0 0.977623 C0 0.977623 1.67171 0 1.67171 0 C1.67171 0 1.67171 57.6797 1.67171 57.6797 C1.67171 57.6797 0 56.7021 0 56.7021 C0 56.7021 0 0.977623 0 0.977623 Z" />
 </g>
 <g transform="translate(151.259, 123.342)" style="fill:#161413; fill-rule:nonzero; stroke:none; stroke-width:1.66683; stroke-linecap:butt; stroke-linejoin:miter; stroke-dasharray:none;" >
  <path d="M0 0 C0 0 1.67072 0 1.67072 0 C1.67072 0 1.67072 49.9565 1.67072 49.9565 C1.67072 49.9565 0 49.9565 0 49.9565 C0 49.9565 0 0 0 0 Z" />
 </g>
 <g transform="translate(108.532, 91.1291)" style="fill:#161413; fill-rule:nonzero; stroke:none; stroke-width:1.66683; stroke-linecap:butt; stroke-linejoin:miter; stroke-dasharray:none;" >
  <path d="M0 1.46643 C0 1.46643 0 0.488811 0 0.488811 C0 0.488811 0.83487 0 0.83487 0 C0.83487 0 50.2486 28.3513 50.2486 28.3513 C50.2486 28.3513 48.5768 29.3289 48.5768 29.3289 C48.5768 29.3289 0 1.46643 0 1.46643 Z" />
 </g>
 <g transform="translate(172.401, 91.1291)" style="fill:#161413; fill-rule:nonzero; stroke:none; stroke-width:1.66683; stroke-linecap:butt; stroke-linejoin:miter; stroke-dasharray:none;" >
  <path d="M1.67072 29.3289 C1.67072 29.3289 0 28.3513 0 28.3513 C0 28.3513 49.4137 0 49.4137 0 C49.4137 0 50.2495 0.488811 50.2495 0.488811 C50.2495 0.488811 50.2495 1.46643 50.2495 1.46643 C50.2495 1.46643 1.67072 29.3289 1.67072 29.3289 Z" />
 </g>
 <g transform="translate(178.645, 97.6297)" style="fill:#161413; fill-rule:nonzero; stroke:none; stroke-width:1.66683; stroke-linecap:butt; stroke-linejoin:miter; stroke-dasharray:none;" >
  <path d="M0.83487 26.3956 C0.83487 26.3956 0 24.979 0 24.979 C0 24.979 43.5617 0 43.5617 0 C43.5617 0 44.3986 1.41775 44.3986 1.41775 C44.3986 1.41775 0.83487 26.3956 0.83487 26.3956 Z" />
 </g>
 <g transform="translate(172.401, 119.48)" style="fill:#161413; fill-rule:nonzero; stroke:none; stroke-width:1.66683; stroke-linecap:butt; stroke-linejoin:miter; stroke-dasharray:none;" >
  <path d="M1.67072 56.7021 C1.67072 56.7021 0 57.6797 0 57.6797 C0 57.6797 0 0 0 0 C0 0 1.67072 0.977623 1.67072 0.977623 C1.67072 0.977623 1.67072 56.7021 1.67072 56.7021 Z" />
 </g>
 <g transform="translate(172.401, 176.183)" style="fill:#161413; fill-rule:nonzero; stroke:none; stroke-width:1.66683; stroke-linecap:butt; stroke-linejoin:miter; stroke-dasharray:none;" >
  <path d="M50.2495 27.8622 C50.2495 27.8622 50.2495 29.8175 50.2495 29.8175 C50.2495 29.8175 0 0.977623 0 0.977623 C0 0.977623 1.67072 0 1.67072 0 C1.67072 0 50.2495 27.8622 50.2495 27.8622 Z" />
 </g>
 <g transform="translate(178.645, 172.613)" style="fill:#161413; fill-rule:nonzero; stroke:none; stroke-width:1.66683; stroke-linecap:butt; stroke-linejoin:miter; stroke-dasharray:none;" >
  <path d="M44.3986 24.9783 C44.3986 24.9783 43.5617 26.3958 43.5617 26.3958 C43.5617 26.3958 0 1.41853 0 1.41853 C0 1.41853 0.83487 0 0.83487 0 C0.83487 0 44.3986 24.9783 44.3986 24.9783 Z" />
 </g>
 <g transform="translate(222.65, 176.183)" style="fill:#161413; fill-rule:nonzero; stroke:none; stroke-width:1.66683; stroke-linecap:butt; stroke-linejoin:miter; stroke-dasharray:none;" >
  <path d="M48.5277 0 C48.5277 0 50.1994 0.977623 50.1994 0.977623 C50.1994 0.977623 0 29.8175 0 29.8175 C0 29.8175 0 27.8622 0 27.8622 C0 27.8622 48.5277 0 48.5277 0 Z" />
 </g>
 <g transform="translate(271.178, 119.48)" style="fill:#161413; fill-rule:nonzero; stroke:none; stroke-width:1.66683; stroke-linecap:butt; stroke-linejoin:miter; stroke-dasharray:none;" >
  <path d="M0 0.977623 C0 0.977623 1.67171 0 1.67171 0 C1.67171 0 1.67171 57.6797 1.67171 57.6797 C1.67171 57.6797 0 56.7021 0 56.7021 C0 56.7021 0 0.977623 0 0.977623 Z" />
 </g>
 <g transform="translate(265.328, 123.342)" style="fill:#161413; fill-rule:nonzero; stroke:none; stroke-width:1.66683; stroke-linecap:butt; stroke-linejoin:miter; stroke-dasharray:none;" >
  <path d="M0 0 C0 0 1.67072 0 1.67072 0 C1.67072 0 1.67072 49.9565 1.67072 49.9565 C1.67072 49.9565 0 49.9565 0 49.9565 C0 49.9565 0 0 0 0 Z" />
 </g>
 <g transform="translate(222.65, 91.1291)" style="fill:#161413; fill-rule:nonzero; stroke:none; stroke-width:1.66683; stroke-linecap:butt; stroke-linejoin:miter; stroke-dasharray:none;" >
  <path d="M0 1.46643 C0 1.46643 0 0.488811 0 0.488811 C0 0.488811 0.83487 0 0.83487 0 C0.83487 0 50.1994 28.3513 50.1994 28.3513 C50.1994 28.3513 48.5277 29.3289 48.5277 29.3289 C48.5277 29.3289 0 1.46643 0 1.46643 Z" />
 </g>
 <g transform="translate(286.47, 91.1291)" style="fill:#161413; fill-rule:nonzero; stroke:none; stroke-width:1.66683; stroke-linecap:butt; stroke-linejoin:miter; stroke-dasharray:none;" >
  <path d="M1.67072 29.3289 C1.67072 29.3289 0 28.3513 0 28.3513 C0 28.3513 49.4137 0 49.4137 0 C49.4137 0 50.2495 0.488811 50.2495 0.488811 C50.2495 0.488811 50.2495 1.46643 50.2495 1.46643 C50.2495 1.46643 1.67072 29.3289 1.67072 29.3289 Z" />
 </g>
 <g transform="translate(292.763, 97.6297)" style="fill:#161413; fill-rule:nonzero; stroke:none; stroke-width:1.66683; stroke-linecap:butt; stroke-linejoin:miter; stroke-dasharray:none;" >
  <path d="M0.836837 26.3956 C0.836837 26.3956 0 24.979 0 24.979 C0 24.979 43.5135 0 43.5135 0 C43.5135 0 44.3504 1.41775 44.3504 1.41775 C44.3504 1.41775 0.836837 26.3956 0.836837 26.3956 Z" />
 </g>
 <g transform="translate(286.47, 119.48)" style="fill:#161413; fill-rule:nonzero; stroke:none; stroke-width:1.66683; stroke-linecap:butt; stroke-linejoin:miter; stroke-dasharray:none;" >
  <path d="M1.67072 56.7021 C1.67072 56.7021 0 57.6797 0 57.6797 C0 57.6797 0 0 0 0 C0 0 1.67072 0.977623 1.67072 0.977623 C1.67072 0.977623 1.67072 56.7021 1.67072 56.7021 Z" />
 </g>
 <g transform="translate(286.47, 176.183)" style="fill:#161413; fill-rule:nonzero; stroke:none; stroke-width:1.66683; stroke-linecap:butt; stroke-linejoin:miter; stroke-dasharray:none;" >
  <path d="M50.2495 27.8622 C50.2495 27.8622 50.2495 29.8175 50.2495 29.8175 C50.2495 29.8175 0 0.977623 0 0.977623 C0 0.977623 1.67072 0 1.67072 0 C1.67072 0 50.2495 27.8622 50.2495 27.8622 Z" />
 </g>
 <g transform="translate(292.763, 172.613)" style="fill:#161413; fill-rule:nonzero; stroke:none; stroke-width:1.66683; stroke-linecap:butt; stroke-linejoin:miter; stroke-dasharray:none;" >
  <path d="M44.3504 24.9783 C44.3504 24.9783 43.5135 26.3958 43.5135 26.3958 C43.5135 26.3958 0 1.41853 0 1.41853 C0 1.41853 0.836837 0 0.836837 0 C0.836837 0 44.3504 24.9783 44.3504 24.9783 Z" />
 </g>
 <g transform="translate(336.72, 176.183)" style="fill:#161413; fill-rule:nonzero; stroke:none; stroke-width:1.66683; stroke-linecap:butt; stroke-linejoin:miter; stroke-dasharray:none;" >
  <path d="M48.5277 0 C48.5277 0 50.1994 0.977623 50.1994 0.977623 C50.1994 0.977623 0 29.8175 0 29.8175 C0 29.8175 0 27.8622 0 27.8622 C0 27.8622 48.5277 0 48.5277 0 Z" />
 </g>
 <g transform="translate(385.247, 119.48)" style="fill:#161413; fill-rule:nonzero; stroke:none; stroke-width:1.66683; stroke-linecap:butt; stroke-linejoin:miter; stroke-dasharray:none;" >
  <path d="M0 0.977623 C0 0.977623 1.67171 0 1.67171 0 C1.67171 0 1.67171 57.6797 1.67171 57.6797 C1.67171 57.6797 0 56.7021 0 56.7021 C0 56.7021 0 0.977623 0 0.977623 Z" />
 </g>
 <g transform="translate(379.397, 123.342)" style="fill:#161413; fill-rule:nonzero; stroke:none; stroke-width:1.66683; stroke-linecap:butt; stroke-linejoin:miter; stroke-dasharray:none;" >
  <path d="M0 0 C0 0 1.67072 0 1.67072 0 C1.67072 0 1.67072 49.9565 1.67072 49.9565 C1.67072 49.9565 0 49.9565 0 49.9565 C0 49.9565 0 0 0 0 Z" />
 </g>
 <g transform="translate(336.72, 91.1291)" style="fill:#161413; fill-rule:nonzero; stroke:none; stroke-width:1.66683; stroke-linecap:butt; stroke-linejoin:miter; stroke-dasharray:none;" >
  <path d="M0 1.46643 C0 1.46643 0 0.488811 0 0.488811 C0 0.488811 0.83487 0 0.83487 0 C0.83487 0 50.1994 28.3513 50.1994 28.3513 C50.1994 28.3513 48.5277 29.3289 48.5277 29.3289 C48.5277 29.3289 0 1.46643 0 1.46643 Z" />
 </g>
 <g transform="translate(400.54, 91.1291)" style="fill:#161413; fill-rule:nonzero; stroke:none; stroke-width:1.66683; stroke-linecap:butt; stroke-linejoin:miter; stroke-dasharray:none;" >
  <path d="M1.67072 29.3289 C1.67072 29.3289 0 28.3513 0 28.3513 C0 28.3513 49.4137 0 49.4137 0 C49.4137 0 50.2495 0.488811 50.2495 0.488811 C50.2495 0.488811 50.2495 1.46643 50.2495 1.46643 C50.2495 1.46643 1.67072 29.3289 1.67072 29.3289 Z" />
 </g>
 <g transform="translate(406.832, 97.6297)" style="fill:#161413; fill-rule:nonzero; stroke:none; stroke-width:1.66683; stroke-linecap:butt; stroke-linejoin:miter; stroke-dasharray:none;" >
  <path d="M0.836837 26.3956 C0.836837 26.3956 0 24.979 0 24.979 C0 24.979 43.5135 0 43.5135 0 C43.5135 0 44.3504 1.41775 44.3504 1.41775 C44.3504 1.41775 0.836837 26.3956 0.836837 26.3956 Z" />
 </g>
 <g transform="translate(400.54, 119.48)" style="fill:#161413; fill-rule:nonzero; stroke:none; stroke-width:1.66683; stroke-linecap:butt; stroke-linejoin:miter; stroke-dasharray:none;" >
  <path d="M1.67072 56.7021 C1.67072 56.7021 0 57.6797 0 57.6797 C0 57.6797 0 0 0 0 C0 0 1.67072 0.977623 1.67072 0.977623 C1.67072 0.977623 1.67072 56.7021 1.67072 56.7021 Z" />
 </g>
 <g transform="translate(400.54, 176.183)" style="fill:#161413; fill-rule:nonzero; stroke:none; stroke-width:1.66683; stroke-linecap:butt; stroke-linejoin:miter; stroke-dasharray:none;" >
  <path d="M50.2495 27.8622 C50.2495 27.8622 50.2495 29.8175 50.2495 29.8175 C50.2495 29.8175 0 0.977623 0 0.977623 C0 0.977623 1.67072 0 1.67072 0 C1.67072 0 50.2495 27.8622 50.2495 27.8622 Z" />
 </g>
 <g transform="translate(406.832, 172.613)" style="fill:#161413; fill-rule:nonzero; stroke:none; stroke-width:1.66683; stroke-linecap:butt; stroke-linejoin:miter; stroke-dasharray:none;" >
  <path d="M44.3504 24.9783 C44.3504 24.9783 43.5135 26.3958 43.5135 26.3958 C43.5135 26.3958 0 1.41853 0 1.41853 C0 1.41853 0.836837 0 0.836837 0 C0.836837 0 44.3504 24.9783 44.3504 24.9783 Z" />
 </g>
 <g transform="translate(450.789, 176.183)" style="fill:#161413; fill-rule:nonzero; stroke:none; stroke-width:1.66683; stroke-linecap:butt; stroke-linejoin:miter; stroke-dasharray:none;" >
  <path d="M48.5778 0 C48.5778 0 50.2486 0.977623 50.2486 0.977623 C50.2486 0.977623 0 29.8175 0 29.8175 C0 29.8175 0 27.8622 0 27.8622 C0 27.8622 48.5778 0 48.5778 0 Z" />
 </g>
 <g transform="translate(499.367, 119.48)" style="fill:#161413; fill-rule:nonzero; stroke:none; stroke-width:1.66683; stroke-linecap:butt; stroke-linejoin:miter; stroke-dasharray:none;" >
  <path d="M0 0.977623 C0 0.977623 1.67072 0 1.67072 0 C1.67072 0 1.67072 57.6797 1.67072 57.6797 C1.67072 57.6797 0 56.7021 0 56.7021 C0 56.7021 0 0.977623 0 0.977623 Z" />
 </g>
 <g transform="translate(493.467, 123.342)" style="fill:#161413; fill-rule:nonzero; stroke:none; stroke-width:1.66683; stroke-linecap:butt; stroke-linejoin:miter; stroke-dasharray:none;" >
  <path d="M0 0 C0 0 1.67072 0 1.67072 0 C1.67072 0 1.67072 49.9565 1.67072 49.9565 C1.67072 49.9565 0 49.9565 0 49.9565 C0 49.9565 0 0 0 0 Z" />
 </g>
 <g transform="translate(450.789, 91.1291)" style="fill:#161413; fill-rule:nonzero; stroke:none; stroke-width:1.66683; stroke-linecap:butt; stroke-linejoin:miter; stroke-dasharray:none;" >
  <path d="M0 1.46643 C0 1.46643 0 0.488811 0 0.488811 C0 0.488811 0.83487 0 0.83487 0 C0.83487 0 50.2486 28.3513 50.2486 28.3513 C50.2486 28.3513 48.5778 29.3289 48.5778 29.3289 C48.5778 29.3289 0 1.46643 0 1.46643 Z" />
 </g>
 <g transform="translate(486.829, 5)" style="fill:none; stroke:#161413; stroke-width:1.66683; stroke-linecap:butt; stroke-linejoin:miter; stroke-dasharray:none;" >
  <path d="M0 0 C0 0 3.83411 0 3.83411 0 C3.83411 0 3.83411 60.0264 3.83411 60.0264 C3.83411 60.0264 0 60.0264 0 60.0264 " />
 </g>
 <g transform="translate(499.212, 59.131)" style="fill:#161413; fill-rule:evenodd; stroke:none; stroke-width:1.66683; stroke-linecap:butt; stroke-linejoin:miter; stroke-dasharray:none;" >
  <path d="M0 0.38577 C0 0.38577 0 13.8634 0 13.8634 C0 13.8634 2.17322 13.8634 2.17322 13.8634 C2.17322 13.8634 2.17322 6.43002 2.17322 6.43002 C2.17322 3.6785 3.62072 1.87792 5.84606 1.87792 C7.55316 1.87792 8.64076 2.90716 8.64076 4.52727 C8.64076 4.52727 8.64076 13.8634 8.64076 13.8634 C8.64076 13.8634 10.7884 13.8634 10.7884 13.8634 C10.7884 13.8634 10.7884 3.6785 10.7884 3.6785 C10.7884 1.44072 9.10687 0 6.49311 0 C4.47526 0 3.18116 0.771442 1.9913 2.64936 C1.9913 2.64936 1.9913 0.38577 1.9913 0.38577 C1.9913 0.38577 0 0.38577 0 0.38577 Z" />
 </g>
 <g transform="translate(22.7337, 5)" style="fill:none; stroke:#161413; stroke-width:1.66683; stroke-linecap:butt; stroke-linejoin:miter; stroke-dasharray:none;" >
  <path d="M3.8345 60.0264 C3.8345 60.0264 0 60.0264 0 60.0264 C0 60.0264 0 0 0 0 C0 0 3.8345 0 3.8345 0 " />
 </g>
</svg>
