<?xml version="1.0" encoding="UTF-8" standalone="no"?>
<!-- Created with Inkscape (http://www.inkscape.org/) -->
<svg
   xmlns:svg="http://www.w3.org/2000/svg"
   xmlns="http://www.w3.org/2000/svg"
   version="1.0"
   width="729"
   height="449"
   id="svg2">
  <defs
     id="defs4" />
  <g
     transform="translate(78.785713,-445.00504)"
     id="layer1">
    <rect
       width="35.798645"
       height="35.988213"
       ry="0"
       x="-59.949417"
       y="514.67706"
       style="opacity:1;fill:none;fill-opacity:1;fill-rule:nonzero;stroke:#000000;stroke-width:0.95718604;stroke-linecap:round;stroke-linejoin:miter;stroke-miterlimit:4;stroke-dasharray:none;stroke-dashoffset:0;stroke-opacity:1"
       id="rect2221" />
    <path
       d="M 117.21976,73.287056 L 95.517617,85.816791 L 95.517617,60.757321 L 117.21976,73.287056 z "
       transform="matrix(1.1940831,0,0,1.0778878,-89.433088,453.55345)"
       style="opacity:1;fill:none;fill-opacity:1;fill-rule:nonzero;stroke:#000000;stroke-width:1;stroke-linecap:round;stroke-linejoin:miter;stroke-miterlimit:4;stroke-dasharray:none;stroke-dashoffset:0;stroke-opacity:1"
       id="path2223" />
    <path
       d="M 54.766116,87.543636 L 103.27325,87.543636"
       transform="translate(-78.785713,445.00504)"
       style="fill:none;fill-rule:evenodd;stroke:#000000;stroke-width:1px;stroke-linecap:butt;stroke-linejoin:miter;stroke-opacity:1"
       id="path2225" />
    <path
       d="M 103.44711,123.5328 L 72.326045,123.5328 L 72.326045,87.543636"
       transform="translate(-78.785713,445.00504)"
       style="fill:none;fill-rule:evenodd;stroke:#000000;stroke-width:1px;stroke-linecap:butt;stroke-linejoin:miter;stroke-opacity:1"
       id="path2227" />
    <path
       d="M 75.281674 87.369774 A 2.9556317 2.9556317 0 1 1  69.37041,87.369774 A 2.9556317 2.9556317 0 1 1  75.281674 87.369774 z"
       transform="translate(-78.611852,445.1789)"
       style="opacity:1;fill:#000000;fill-opacity:1;fill-rule:nonzero;stroke:none;stroke-width:1;stroke-linecap:round;stroke-linejoin:miter;stroke-miterlimit:4;stroke-dasharray:none;stroke-dashoffset:0;stroke-opacity:1"
       id="path2229" />
    <path
       d="M 117.21976,73.287056 L 95.517617,85.816791 L 95.517617,60.757321 L 117.21976,73.287056 z "
       transform="matrix(1.1940831,0,0,1.0778878,-89.433088,489.55345)"
       style="opacity:1;fill:none;fill-opacity:1;fill-rule:nonzero;stroke:#000000;stroke-width:1;stroke-linecap:round;stroke-linejoin:miter;stroke-miterlimit:4;stroke-dasharray:none;stroke-dashoffset:0;stroke-opacity:1"
       id="path2231" />
    <path
       d="M 139.43627 123.18507 A 4.5203776 4.5203776 0 1 1  130.39552,123.18507 A 4.5203776 4.5203776 0 1 1  139.43627 123.18507 z"
       transform="translate(-78.959574,445.1789)"
       style="opacity:1;fill:none;fill-opacity:1;fill-rule:nonzero;stroke:#000000;stroke-width:1;stroke-linecap:round;stroke-linejoin:miter;stroke-miterlimit:4;stroke-dasharray:none;stroke-dashoffset:0;stroke-opacity:1"
       id="path2233" />
    <path
       d="M 129.35235,87.369775 L 249.66394,87.369775 C 249.66394,72.070035 267.74545,77.254116 267.74545,87.022054 C 267.74545,96.831797 284.7838,101.296 284.7838,87.369775 C 284.7838,87.369775 339.02834,87.022054 339.02834,87.022054 L 339.02834,114.14432 L 466.29436,114.14432"
       transform="translate(-78.785713,445.00504)"
       style="fill:none;fill-rule:evenodd;stroke:#000000;stroke-width:1px;stroke-linecap:butt;stroke-linejoin:miter;stroke-opacity:1"
       id="path2235" />
    <path
       d="M 60.302835,568.37482 L 170.87823,568.37482 C 170.87823,553.07507 188.95974,558.25916 188.95974,568.02709 C 188.95974,577.83684 205.99809,582.30104 205.99809,568.37482 C 205.99809,568.37482 241.46568,568.02709 241.46568,568.02709 L 241.46568,577.23087 L 387.16092,577.23087"
       style="fill:none;fill-rule:evenodd;stroke:#000000;stroke-width:1px;stroke-linecap:butt;stroke-linejoin:miter;stroke-opacity:1"
       id="path2237" />
    <path
       d="M 75.281674 87.369774 A 2.9556317 2.9556317 0 1 1  69.37041,87.369774 A 2.9556317 2.9556317 0 1 1  75.281674 87.369774 z"
       transform="translate(62.985488,444.89423)"
       style="opacity:1;fill:#000000;fill-opacity:1;fill-rule:nonzero;stroke:none;stroke-width:1;stroke-linecap:round;stroke-linejoin:miter;stroke-miterlimit:4;stroke-dasharray:none;stroke-dashoffset:0;stroke-opacity:1"
       id="path2241" />
    <path
       d="M 75.281674 87.369774 A 2.9556317 2.9556317 0 1 1  69.37041,87.369774 A 2.9556317 2.9556317 0 1 1  75.281674 87.369774 z"
       transform="translate(45.114258,480.98462)"
       style="opacity:1;fill:#000000;fill-opacity:1;fill-rule:nonzero;stroke:none;stroke-width:1;stroke-linecap:round;stroke-linejoin:miter;stroke-miterlimit:4;stroke-dasharray:none;stroke-dashoffset:0;stroke-opacity:1"
       id="path2243" />
    <path
       d="M 75.281674 87.369774 A 2.9556317 2.9556317 0 1 1  69.37041,87.369774 A 2.9556317 2.9556317 0 1 1  75.281674 87.369774 z"
       transform="translate(223.23366,471.48302)"
       style="opacity:1;fill:#000000;fill-opacity:1;fill-rule:nonzero;stroke:none;stroke-width:1;stroke-linecap:round;stroke-linejoin:miter;stroke-miterlimit:4;stroke-dasharray:none;stroke-dashoffset:0;stroke-opacity:1"
       id="path2245" />
    <path
       d="M 75.281674 87.369774 A 2.9556317 2.9556317 0 1 1  69.37041,87.369774 A 2.9556317 2.9556317 0 1 1  75.281674 87.369774 z"
       transform="translate(241.1626,489.9311)"
       style="opacity:1;fill:#000000;fill-opacity:1;fill-rule:nonzero;stroke:none;stroke-width:1;stroke-linecap:round;stroke-linejoin:miter;stroke-miterlimit:4;stroke-dasharray:none;stroke-dashoffset:0;stroke-opacity:1"
       id="path2247" />
    <rect
       width="35.798645"
       height="35.988213"
       ry="0"
       x="-59.949417"
       y="586.67706"
       style="opacity:1;fill:none;fill-opacity:1;fill-rule:nonzero;stroke:#000000;stroke-width:0.95718604;stroke-linecap:round;stroke-linejoin:miter;stroke-miterlimit:4;stroke-dasharray:none;stroke-dashoffset:0;stroke-opacity:1"
       id="rect2275" />
    <path
       d="M 117.21976,73.287056 L 95.517617,85.816791 L 95.517617,60.757321 L 117.21976,73.287056 z "
       transform="matrix(1.1940831,0,0,1.0778878,-89.433088,525.55345)"
       style="opacity:1;fill:none;fill-opacity:1;fill-rule:nonzero;stroke:#000000;stroke-width:1;stroke-linecap:round;stroke-linejoin:miter;stroke-miterlimit:4;stroke-dasharray:none;stroke-dashoffset:0;stroke-opacity:1"
       id="path2277" />
    <path
       d="M -24.019597,604.54868 L 24.487537,604.54868"
       style="fill:none;fill-rule:evenodd;stroke:#000000;stroke-width:1px;stroke-linecap:butt;stroke-linejoin:miter;stroke-opacity:1"
       id="path2279" />
    <path
       d="M 24.661397,640.53784 L -6.459668,640.53784 L -6.459668,604.54868"
       style="fill:none;fill-rule:evenodd;stroke:#000000;stroke-width:1px;stroke-linecap:butt;stroke-linejoin:miter;stroke-opacity:1"
       id="path2281" />
    <path
       d="M 75.281674 87.369774 A 2.9556317 2.9556317 0 1 1  69.37041,87.369774 A 2.9556317 2.9556317 0 1 1  75.281674 87.369774 z"
       transform="translate(-78.611852,517.1789)"
       style="opacity:1;fill:#000000;fill-opacity:1;fill-rule:nonzero;stroke:none;stroke-width:1;stroke-linecap:round;stroke-linejoin:miter;stroke-miterlimit:4;stroke-dasharray:none;stroke-dashoffset:0;stroke-opacity:1"
       id="path2283" />
    <path
       d="M 117.21976,73.287056 L 95.517617,85.816791 L 95.517617,60.757321 L 117.21976,73.287056 z "
       transform="matrix(1.1940831,0,0,1.0778878,-89.433088,561.55345)"
       style="opacity:1;fill:none;fill-opacity:1;fill-rule:nonzero;stroke:#000000;stroke-width:1;stroke-linecap:round;stroke-linejoin:miter;stroke-miterlimit:4;stroke-dasharray:none;stroke-dashoffset:0;stroke-opacity:1"
       id="path2285" />
    <path
       d="M 139.43627 123.18507 A 4.5203776 4.5203776 0 1 1  130.39552,123.18507 A 4.5203776 4.5203776 0 1 1  139.43627 123.18507 z"
       transform="translate(-78.959574,517.1789)"
       style="opacity:1;fill:none;fill-opacity:1;fill-rule:nonzero;stroke:#000000;stroke-width:1;stroke-linecap:round;stroke-linejoin:miter;stroke-miterlimit:4;stroke-dasharray:none;stroke-dashoffset:0;stroke-opacity:1"
       id="path2287" />
    <path
       d="M 50.566637,604.37482 L 170.87823,604.37482 C 170.87823,589.07507 188.95974,594.25916 188.95974,604.02709 C 188.95974,613.83684 205.99809,618.30104 205.99809,604.37482 C 205.99809,604.37482 241.63027,604.02709 241.63027,604.02709 L 241.63027,594.74753 L 387.25311,594.74753"
       style="fill:none;fill-rule:evenodd;stroke:#000000;stroke-width:1px;stroke-linecap:butt;stroke-linejoin:miter;stroke-opacity:1"
       id="path2289" />
    <path
       d="M 60.302835,640.37482 L 170.87823,640.37482 C 170.87823,625.07507 188.95974,630.25916 188.95974,640.02709 C 188.95974,649.83684 205.99809,654.30104 205.99809,640.37482 C 205.99809,640.37482 259.34814,640.02709 259.34814,640.02709 L 259.34814,612.62999 L 387.61806,612.62999"
       style="fill:none;fill-rule:evenodd;stroke:#000000;stroke-width:1px;stroke-linecap:butt;stroke-linejoin:miter;stroke-opacity:1"
       id="path2291" />
    <path
       d="M 75.281674 87.369774 A 2.9556317 2.9556317 0 1 1  69.37041,87.369774 A 2.9556317 2.9556317 0 1 1  75.281674 87.369774 z"
       transform="translate(27.47976,516.89423)"
       style="opacity:1;fill:#000000;fill-opacity:1;fill-rule:nonzero;stroke:none;stroke-width:1;stroke-linecap:round;stroke-linejoin:miter;stroke-miterlimit:4;stroke-dasharray:none;stroke-dashoffset:0;stroke-opacity:1"
       id="path2293" />
    <path
       d="M 75.281674 87.369774 A 2.9556317 2.9556317 0 1 1  69.37041,87.369774 A 2.9556317 2.9556317 0 1 1  75.281674 87.369774 z"
       transform="translate(9.6085299,552.98462)"
       style="opacity:1;fill:#000000;fill-opacity:1;fill-rule:nonzero;stroke:none;stroke-width:1;stroke-linecap:round;stroke-linejoin:miter;stroke-miterlimit:4;stroke-dasharray:none;stroke-dashoffset:0;stroke-opacity:1"
       id="path2295" />
    <path
       d="M 75.281674 87.369774 A 2.9556317 2.9556317 0 1 1  69.37041,87.369774 A 2.9556317 2.9556317 0 1 1  75.281674 87.369774 z"
       transform="translate(259.32571,507.39324)"
       style="opacity:1;fill:#000000;fill-opacity:1;fill-rule:nonzero;stroke:none;stroke-width:1;stroke-linecap:round;stroke-linejoin:miter;stroke-miterlimit:4;stroke-dasharray:none;stroke-dashoffset:0;stroke-opacity:1"
       id="path2301" />
    <path
       d="M 75.281674 87.369774 A 2.9556317 2.9556317 0 1 1  69.37041,87.369774 A 2.9556317 2.9556317 0 1 1  75.281674 87.369774 z"
       transform="translate(277.39422,525.00393)"
       style="opacity:1;fill:#000000;fill-opacity:1;fill-rule:nonzero;stroke:none;stroke-width:1;stroke-linecap:round;stroke-linejoin:miter;stroke-miterlimit:4;stroke-dasharray:none;stroke-dashoffset:0;stroke-opacity:1"
       id="path2303" />
    <path
       d="M 497.28125,123.25 C 497.16645,123.25 497.05134,123.2739 496.9375,123.28125 L 466.46875,123.28125 L 466.46875,159.25 L 497.28125,159.25 L 497.28125,159.125 C 502.62625,159.125 506.96874,151.08185 506.96875,141.1875 C 506.96875,131.29316 502.62625,123.25 497.28125,123.25 z "
       transform="translate(-78.785713,445.00504)"
       style="opacity:1;fill:none;fill-opacity:1;fill-rule:nonzero;stroke:#000000;stroke-width:1;stroke-linecap:round;stroke-linejoin:miter;stroke-miterlimit:4;stroke-dasharray:none;stroke-dashoffset:0;stroke-opacity:1"
       id="rect2305" />
    <path
       d="M 466.48072,104.25157 L 466.48072,177.73826"
       transform="translate(-78.785713,445.00504)"
       style="fill:none;fill-rule:evenodd;stroke:#000000;stroke-width:1px;stroke-linecap:butt;stroke-linejoin:miter;stroke-opacity:1"
       id="path2310" />
    <path
       d="M 583.26066,212.72432 C 594.12391,232.37402 583.26066,249.30791 583.26066,249.30791 C 583.26066,249.30791 622.17097,253.92112 633.74282,230.93624 C 622.07004,208.60804 583.26066,212.72432 583.26066,212.72432 z "
       transform="translate(-78.785713,445.00504)"
       style="fill:none;fill-rule:evenodd;stroke:#000000;stroke-width:1px;stroke-linecap:butt;stroke-linejoin:miter;stroke-opacity:1"
       id="path2318" />
    <path
       d="M 506.41914,140.67541 L 550.19165,140.67541 L 550.19165,221.83028 L 586.61549,221.83028"
       transform="translate(-78.785713,445.00504)"
       style="fill:none;fill-rule:evenodd;stroke:#000000;stroke-width:1px;stroke-linecap:butt;stroke-linejoin:miter;stroke-opacity:1"
       id="path2320" />
    <rect
       width="36.104328"
       height="36.104328"
       x="672.88245"
       y="212.88408"
       transform="translate(-78.785713,445.00504)"
       style="opacity:1;fill:none;fill-opacity:1;fill-rule:nonzero;stroke:#000000;stroke-width:1;stroke-linecap:round;stroke-linejoin:miter;stroke-miterlimit:4;stroke-dasharray:none;stroke-dashoffset:0;stroke-opacity:1"
       id="rect2322" />
    <path
       d="M 633.58307,231.09599 L 672.56296,231.09599"
       transform="translate(-78.785713,445.00504)"
       style="fill:none;fill-rule:evenodd;stroke:#000000;stroke-width:1px;stroke-linecap:butt;stroke-linejoin:miter;stroke-opacity:1"
       id="path2324" />
    <path
       d="M 462.35698,14.384439 L 373.48169,14.384439 L 373.48169,49.831808 L 378.61899,54.969107 L 369.11499,64.473112 L 378.10526,73.463387 L 369.62872,81.939931 L 374.50915,86.820366 L 374.50915,114.56178"
       transform="translate(-78.785713,445.00504)"
       style="fill:none;fill-rule:evenodd;stroke:#000000;stroke-width:1px;stroke-linecap:butt;stroke-linejoin:miter;stroke-opacity:1"
       id="path2326" />
    <path
       d="M 312.69598,459.38948 L 312.69598,494.83685 L 317.83328,499.97415 L 308.32928,509.47815 L 317.31955,518.46843 L 308.84301,526.94497 L 313.72344,531.82541 L 313.72344,576.51991"
       style="fill:none;fill-rule:evenodd;stroke:#000000;stroke-width:1px;stroke-linecap:butt;stroke-linejoin:miter;stroke-opacity:1"
       id="path2328" />
    <path
       d="M 330.69598,459.38948 L 330.69598,494.83685 L 335.83328,499.97415 L 326.32928,509.47815 L 335.31955,518.46843 L 326.84301,526.94497 L 331.72344,531.82541 L 331.72344,593.98673"
       style="fill:none;fill-rule:evenodd;stroke:#000000;stroke-width:1px;stroke-linecap:butt;stroke-linejoin:miter;stroke-opacity:1"
       id="path2330" />
    <path
       d="M 348.69598,459.38948 L 348.69598,494.83685 L 353.83328,499.97415 L 344.32928,509.47815 L 353.31955,518.46843 L 344.84301,526.94497 L 349.72344,531.82541 L 349.72344,612.48101"
       style="fill:none;fill-rule:evenodd;stroke:#000000;stroke-width:1px;stroke-linecap:butt;stroke-linejoin:miter;stroke-opacity:1"
       id="path2332" />
    <text
       x="389.36276"
       y="464.59091"
       style="font-size:16.71467972px;font-style:normal;font-weight:normal;fill:#000000;fill-opacity:1;stroke:none;stroke-width:1px;stroke-linecap:butt;stroke-linejoin:miter;stroke-opacity:1;font-family:FreeSans"
       id="text2334"
       xml:space="preserve"><tspan
         x="389.36276"
         y="464.59091"
         id="tspan2336">+ 5V</tspan></text>
    <path
       d="M 387.50865,735.14936 L 260.24263,735.14936 L 260.24263,708.02709 C 260.24263,708.02709 205.99809,708.37482 205.99809,708.37482 C 205.99809,722.30104 188.95974,717.83684 188.95974,708.02709 C 188.95974,698.25916 170.87823,693.07507 170.87823,708.37482 L 135.30757,708.37482 L 135.30757,532.44374"
       style="fill:none;fill-rule:evenodd;stroke:#000000;stroke-width:1px;stroke-linecap:butt;stroke-linejoin:miter;stroke-opacity:1"
       id="path2410" />
    <path
       d="M 387.16092,753.23087 L 241.46568,753.23087 L 241.46568,744.02709 C 241.46568,744.02709 205.99809,744.37482 205.99809,744.37482 C 205.99809,758.30104 188.95974,753.83684 188.95974,744.02709 C 188.95974,734.25916 170.87823,729.07507 170.87823,744.37482 L 116.79679,744.37482 L 116.79679,567.75246"
       style="fill:none;fill-rule:evenodd;stroke:#000000;stroke-width:1px;stroke-linecap:butt;stroke-linejoin:miter;stroke-opacity:1"
       id="path2412" />
    <path
       d="M 75.281674 87.369774 A 2.9556317 2.9556317 0 1 1  69.37041,87.369774 A 2.9556317 2.9556317 0 1 1  75.281674 87.369774 z"
       transform="translate(223.23366,647.48302)"
       style="opacity:1;fill:#000000;fill-opacity:1;fill-rule:nonzero;stroke:none;stroke-width:1;stroke-linecap:round;stroke-linejoin:miter;stroke-miterlimit:4;stroke-dasharray:none;stroke-dashoffset:0;stroke-opacity:1"
       id="path2418" />
    <path
       d="M 75.281674 87.369774 A 2.9556317 2.9556317 0 1 1  69.37041,87.369774 A 2.9556317 2.9556317 0 1 1  75.281674 87.369774 z"
       transform="translate(241.1626,665.9311)"
       style="opacity:1;fill:#000000;fill-opacity:1;fill-rule:nonzero;stroke:none;stroke-width:1;stroke-linecap:round;stroke-linejoin:miter;stroke-miterlimit:4;stroke-dasharray:none;stroke-dashoffset:0;stroke-opacity:1"
       id="path2420" />
    <path
       d="M 387.25311,770.74753 L 241.63027,770.74753 L 241.63027,780.02709 C 241.63027,780.02709 205.99809,780.37482 205.99809,780.37482 C 205.99809,794.30104 188.95974,789.83684 188.95974,780.02709 C 188.95974,770.25916 170.87823,765.07507 170.87823,780.37482 L 99.292672,780.37482 L 99.292672,604.47353"
       style="fill:none;fill-rule:evenodd;stroke:#000000;stroke-width:1px;stroke-linecap:butt;stroke-linejoin:miter;stroke-opacity:1"
       id="path2424" />
    <path
       d="M 387.61806,788.62999 L 259.34814,788.62999 L 259.34814,816.02709 C 259.34814,816.02709 205.99809,816.37482 205.99809,816.37482 C 205.99809,830.30104 188.95974,825.83684 188.95974,816.02709 C 188.95974,806.25916 170.87823,801.07507 170.87823,816.37482 L 82.194242,816.37482 L 82.194242,639.78225"
       style="fill:none;fill-rule:evenodd;stroke:#000000;stroke-width:1px;stroke-linecap:butt;stroke-linejoin:miter;stroke-opacity:1"
       id="path2426" />
    <path
       d="M 75.281674 87.369774 A 2.9556317 2.9556317 0 1 1  69.37041,87.369774 A 2.9556317 2.9556317 0 1 1  75.281674 87.369774 z"
       transform="translate(259.32571,683.39324)"
       style="opacity:1;fill:#000000;fill-opacity:1;fill-rule:nonzero;stroke:none;stroke-width:1;stroke-linecap:round;stroke-linejoin:miter;stroke-miterlimit:4;stroke-dasharray:none;stroke-dashoffset:0;stroke-opacity:1"
       id="path2432" />
    <path
       d="M 75.281674 87.369774 A 2.9556317 2.9556317 0 1 1  69.37041,87.369774 A 2.9556317 2.9556317 0 1 1  75.281674 87.369774 z"
       transform="translate(277.39422,701.00393)"
       style="opacity:1;fill:#000000;fill-opacity:1;fill-rule:nonzero;stroke:none;stroke-width:1;stroke-linecap:round;stroke-linejoin:miter;stroke-miterlimit:4;stroke-dasharray:none;stroke-dashoffset:0;stroke-opacity:1"
       id="path2434" />
    <path
       d="M 418.49554,744.25504 C 418.38074,744.25504 418.26563,744.27894 418.15179,744.28629 L 387.68304,744.28629 L 387.68304,780.25504 L 418.49554,780.25504 L 418.49554,780.13004 C 423.84054,780.13004 428.18303,772.08689 428.18304,762.19254 C 428.18304,752.2982 423.84054,744.25504 418.49554,744.25504 z "
       style="opacity:1;fill:none;fill-opacity:1;fill-rule:nonzero;stroke:#000000;stroke-width:1;stroke-linecap:round;stroke-linejoin:miter;stroke-miterlimit:4;stroke-dasharray:none;stroke-dashoffset:0;stroke-opacity:1"
       id="path2436" />
    <path
       d="M 387.69501,725.25661 L 387.69501,798.7433"
       style="fill:none;fill-rule:evenodd;stroke:#000000;stroke-width:1px;stroke-linecap:butt;stroke-linejoin:miter;stroke-opacity:1"
       id="path2438" />
    <path
       d="M 427.63343,762.83532 L 471.40594,762.83532 L 471.40594,684.96493 L 507.90419,684.96493"
       style="fill:none;fill-rule:evenodd;stroke:#000000;stroke-width:1px;stroke-linecap:butt;stroke-linejoin:miter;stroke-opacity:1"
       id="path2440" />
    <path
       d="M 383.57127,635.38948 L 294.69598,635.38948 L 294.69598,670.83685 L 299.83328,675.97415 L 290.32928,685.47815 L 299.31955,694.46843 L 290.84301,702.94497 L 295.72344,707.82541 L 295.72344,735.56682"
       style="fill:none;fill-rule:evenodd;stroke:#000000;stroke-width:1px;stroke-linecap:butt;stroke-linejoin:miter;stroke-opacity:1"
       id="path2442" />
    <path
       d="M 312.69598,635.38948 L 312.69598,670.83685 L 317.83328,675.97415 L 308.32928,685.47815 L 317.31955,694.46843 L 308.84301,702.94497 L 313.72344,707.82541 L 313.72344,752.51991"
       style="fill:none;fill-rule:evenodd;stroke:#000000;stroke-width:1px;stroke-linecap:butt;stroke-linejoin:miter;stroke-opacity:1"
       id="path2444" />
    <path
       d="M 330.69598,635.38948 L 330.69598,670.83685 L 335.83328,675.97415 L 326.32928,685.47815 L 335.31955,694.46843 L 326.84301,702.94497 L 331.72344,707.82541 L 331.72344,769.98673"
       style="fill:none;fill-rule:evenodd;stroke:#000000;stroke-width:1px;stroke-linecap:butt;stroke-linejoin:miter;stroke-opacity:1"
       id="path2446" />
    <path
       d="M 348.69598,635.38948 L 348.69598,670.83685 L 353.83328,675.97415 L 344.32928,685.47815 L 353.31955,694.46843 L 344.84301,702.94497 L 349.72344,707.82541 L 349.72344,788.48101"
       style="fill:none;fill-rule:evenodd;stroke:#000000;stroke-width:1px;stroke-linecap:butt;stroke-linejoin:miter;stroke-opacity:1"
       id="path2448" />
    <text
       x="389.36276"
       y="640.59094"
       style="font-size:16.71467972px;font-style:normal;font-weight:normal;fill:#000000;fill-opacity:1;stroke:none;stroke-width:1px;stroke-linecap:butt;stroke-linejoin:miter;stroke-opacity:1;font-family:FreeSans"
       id="text2450"
       xml:space="preserve"><tspan
         x="389.36276"
         y="640.59094"
         id="tspan2452">+ 5V</tspan></text>
    <text
       x="77.162064"
       y="878.08606"
       style="font-size:24.75729179px;font-style:normal;font-weight:normal;fill:#000000;fill-opacity:1;stroke:none;stroke-width:1px;stroke-linecap:butt;stroke-linejoin:miter;stroke-opacity:1;font-family:FreeSans"
       id="text2454"
       xml:space="preserve"><tspan
         x="77.162064"
         y="878.08606"
         id="tspan2456">Simplified programmable logic device</tspan></text>
  </g>
</svg>
