<svg xmlns:rdf="http://www.w3.org/1999/02/22-rdf-syntax-ns#" xmlns="http://www.w3.org/2000/svg" height="496" width="474" version="1.0" xmlns:cc="http://creativecommons.org/ns#" xmlns:xlink="http://www.w3.org/1999/xlink" xmlns:dc="http://purl.org/dc/elements/1.1/"><defs><linearGradient id="SiL"><stop style="stop-color:#ffb9b9;" offset="0"/><stop style="stop-color:#ff5353;" offset="1"/></linearGradient><linearGradient id="OL"><stop style="stop-color:#e1f1ff;" offset="0"/><stop style="stop-color:#b0daff;" offset="1"/></linearGradient><radialGradient id="Si" xlink:href="#SiL" gradientUnits="userSpaceOnUse" cy="419.4" cx="366.1" gradientTransform="matrix(0.2717627,1.4946921,-1.0778383,0.1959709,719.90099,-214.92877)" r="9.5"/><radialGradient id="O" xlink:href="#OL" gradientUnits="userSpaceOnUse" cy="418.2" cx="366.9" gradientTransform="matrix(0.4790421,1.2455089,-0.9333455,0.3589792,581.56935,-190.67308)" r="9.5"/><path id="g" d="M382,420.5a9.5,9.5,0,1,1,-19,0,9.5,9.5,0,1,1,19,0z"/>
</defs>
<g style="fill:#828282" transform="translate(1.6406298,1.4308079)"><use xlink:href="#g" transform="matrix(0.7746711,0,0,0.7746711,106.43501,138.32111)"/><use xlink:href="#g" transform="matrix(0.7746711,0,0,0.7746711,-248.20784,140.96509)"/><use xlink:href="#g" transform="matrix(0.7746711,0,0,0.7746711,-262.8507,69.536517)"/><use xlink:href="#g" transform="matrix(0.7746711,0,0,0.7746711,-213.92213,88.465088)"/><use xlink:href="#g" transform="matrix(0.7746711,0,0,0.7746711,-197.13641,134.89366)"/><use xlink:href="#g" transform="matrix(0.7746711,0,0,0.7746711,-121.77927,112.03652)"/><use xlink:href="#g" transform="matrix(0.7746711,0,0,0.7746711,-135.3507,65.250802)"/>
<use xlink:href="#g" transform="matrix(0.7746711,0,0,0.7746711,-185.3507,54.536517)"/>
<use xlink:href="#g" transform="matrix(0.7746711,0,0,0.7746711,-92.850699,53.822231)"/>
<use xlink:href="#g" transform="matrix(0.7746711,0,0,0.7746711,-75.350699,98.822231)"/>
<use xlink:href="#g" transform="matrix(0.7746711,0,0,0.7746711,-32.136413,117.03652)"/>
<use xlink:href="#g" transform="matrix(0.7746711,0,0,0.7746711,7.8635871,85.965088)"/>
<use xlink:href="#g" transform="matrix(0.7746711,0,0,0.7746711,13.577873,37.393659)"/>
<use xlink:href="#g" transform="matrix(0.7746711,0,0,0.7746711,-197.49356,6.3222308)"/>
<use xlink:href="#g" transform="matrix(0.7746711,0,0,0.7746711,-248.92213,-3.6777693)"/>
<use xlink:href="#g" transform="matrix(0.7746711,0,0,0.7746711,-259.99356,-51.892055)"/>
<use xlink:href="#g" transform="matrix(0.7746711,0,0,0.7746711,-215.3507,-67.606341)"/>
<use xlink:href="#g" transform="matrix(0.7746711,0,0,0.7746711,-177.13641,-39.034912)"/>
<use xlink:href="#g" transform="matrix(0.7746711,0,0,0.7746711,-132.8507,-55.106341)"/>
<use xlink:href="#g" transform="matrix(0.7746711,0,0,0.7746711,-87.493556,-33.320626)"/>
<use xlink:href="#g" transform="matrix(0.7746711,0,0,0.7746711,-67.136413,12.393659)"/>
<use xlink:href="#g" transform="matrix(0.7746711,0,0,0.7746711,-19.27927,7.0365165)"/>
<use xlink:href="#g" transform="matrix(0.7746711,0,0,0.7746711,-9.9935557,-44.392055)"/>
<use xlink:href="#g" transform="matrix(0.7746711,0,0,0.7746711,-53.207842,-69.392055)"/>
<use xlink:href="#g" transform="matrix(0.7746711,0,0,0.7746711,1.4350157,-118.67777)"/>
<use xlink:href="#g" transform="matrix(0.7746711,0,0,0.7746711,-42.850699,-120.10634)"/>
<use xlink:href="#g" transform="matrix(0.7746711,0,0,0.7746711,-73.564984,-158.32063)"/>
<use xlink:href="#g" transform="matrix(0.7746711,0,0,0.7746711,-121.77927,-148.32063)"/>
<use xlink:href="#g" transform="matrix(0.7746711,0,0,0.7746711,-140.70784,-103.32063)"/>
<use xlink:href="#g" transform="matrix(0.7746711,0,0,0.7746711,-187.8507,-108.67777)"/>
<use xlink:href="#g" transform="matrix(0.7746711,0,0,0.7746711,-204.27927,-157.96348)"/>
<use xlink:href="#g" transform="matrix(0.7746711,0,0,0.7746711,-253.92213,-160.10634)"/>
<use xlink:href="#g" transform="matrix(0.7746711,0,0,0.7746711,-268.20784,-212.2492)"/>
<use xlink:href="#g" transform="matrix(0.7746711,0,0,0.7746711,-225.3507,-241.17777)"/>
<use xlink:href="#g" transform="matrix(0.7746711,0,0,0.7746711,-162.8507,-225.46348)"/>
<use xlink:href="#g" transform="matrix(0.7746711,0,0,0.7746711,-162.13641,-181.53491)"/>
<use xlink:href="#g" transform="matrix(0.7746711,0,0,0.7746711,-239.63641,-274.39206)"/>
<use xlink:href="#g" transform="matrix(0.7746711,0,0,0.7746711,-193.56498,-305.82063)"/>
<use xlink:href="#g" transform="matrix(0.7746711,0,0,0.7746711,-144.99356,-290.10634)"/>
<use xlink:href="#g" transform="matrix(0.7746711,0,0,0.7746711,-123.92213,-253.67777)"/>
<use xlink:href="#g" transform="matrix(0.7746711,0,0,0.7746711,-76.422127,-242.96348)"/>
<use xlink:href="#g" transform="matrix(0.7746711,0,0,0.7746711,-45.707842,-279.03491)"/>
<use xlink:href="#g" transform="matrix(0.7746711,0,0,0.7746711,-2.4935557,-260.82063)"/>
<use xlink:href="#g" transform="matrix(0.7746711,0,0,0.7746711,-6.4221272,-211.89206)"/>
<use xlink:href="#g" transform="matrix(0.7746711,0,0,0.7746711,-52.136413,-205.46348)"/>
<use xlink:href="#g" transform="matrix(0.7746711,0,0,0.7746711,78.577873,-302.96348)"/>
<use xlink:href="#g" transform="matrix(0.7746711,0,0,0.7746711,49.649301,-268.32063)"/>
<use xlink:href="#g" transform="matrix(0.7746711,0,0,0.7746711,73.577873,-222.60634)"/>
<use xlink:href="#g" transform="matrix(0.7746711,0,0,0.7746711,37.149301,-192.60634)"/>
<use xlink:href="#g" transform="matrix(0.7746711,0,0,0.7746711,38.577873,-143.67777)"/>
<use xlink:href="#g" transform="matrix(0.7746711,0,0,0.7746711,84.292159,-122.2492)"/>
<use xlink:href="#g" transform="matrix(0.7746711,0,0,0.7746711,73.22073,-74.749198)"/>
<use xlink:href="#g" transform="matrix(0.7746711,0,0,0.7746711,24.649301,-74.749198)"/>
<use xlink:href="#g" transform="matrix(0.7746711,0,0,0.7746711,87.149302,-26.534912)"/>
<use xlink:href="#g" transform="matrix(0.7746711,0,0,0.7746711,65.72073,22.750802)"/>
</g>
<g style="fill:#828282;" transform="translate(1.4768354,1.8264663)"><use xlink:href="#g" transform="matrix(1.0986842,0,0,1.0986842,-14.259865,-42.645144)"/><use xlink:href="#g" transform="matrix(1.0986842,0,0,1.0986842,-36.513575,-97.316537)"/><use xlink:href="#g" transform="matrix(1.0986842,0,0,1.0986842,-43.837181,-141.51071)"/><use xlink:href="#g" transform="matrix(1.0986842,0,0,1.0986842,-83.23313,-110.19598)"/><use xlink:href="#g" transform="matrix(1.0986842,0,0,1.0986842,-33.230579,-189.99803)"/><use xlink:href="#g" transform="matrix(1.0986842,0,0,1.0986842,-71.363838,-212.22139)"/><use xlink:href="#g" transform="matrix(1.0986842,0,0,1.0986842,-34.49327,-233.68713)"/><use xlink:href="#g" transform="matrix(1.0986842,0,0,1.0986842,-64.29277,-266.51709)"/><use xlink:href="#g" transform="matrix(1.0986842,0,0,1.0986842,-78.939982,-305.6605)"/><use xlink:href="#g" transform="matrix(1.0986842,0,0,1.0986842,-69.090994,-346.57168)"/><use xlink:href="#g" transform="matrix(1.0986842,0,0,1.0986842,-54.443783,-385.21001)"/><use xlink:href="#g" transform="matrix(1.0986842,0,0,1.0986842,-65.302922,-430.66688)"/><use xlink:href="#g" transform="matrix(1.0986842,0,0,1.0986842,-100.9108,-410.21129)"/><use xlink:href="#g" transform="matrix(1.0986842,0,0,1.0986842,-143.58974,-413.74682)"/><use xlink:href="#g" transform="matrix(1.0986842,0,0,1.0986842,-179.19762,-438.49556)"/><use xlink:href="#g" transform="matrix(1.0986842,0,0,1.0986842,-182.22808,-398.84707)"/><use xlink:href="#g" transform="matrix(1.0986842,0,0,1.0986842,-123.38669,-376.11864)"/><use xlink:href="#g" transform="matrix(1.0986842,0,0,1.0986842,-109.74963,-336.21761)"/><use xlink:href="#g" transform="matrix(1.0986842,0,0,1.0986842,-149.65066,-344.55137)"/><use xlink:href="#g" transform="matrix(1.0986842,0,0,1.0986842,-195.36006,-356.42067)"/><use xlink:href="#g" transform="matrix(1.0986842,0,0,1.0986842,-219.60372,-381.1694)"/><use xlink:href="#g" transform="matrix(1.0986842,0,0,1.0986842,-252.68622,-409.20114)"/><use xlink:href="#g" transform="matrix(1.0986842,0,0,1.0986842,-180.96539,-315.25695)"/><use xlink:href="#g" transform="matrix(1.0986842,0,0,1.0986842,-265.56566,-377.12879)"/><use xlink:href="#g" transform="matrix(1.0986842,0,0,1.0986842,-275.16211,-340.7633)"/><use xlink:href="#g" transform="matrix(1.0986842,0,0,1.0986842,-316.83091,-369.30011)"/><use xlink:href="#g" transform="matrix(1.0986842,0,0,1.0986842,-309.5073,-310.9638)"/><use xlink:href="#g" transform="matrix(1.0986842,0,0,1.0986842,-266.82836,-296.31659)"/><use xlink:href="#g" transform="matrix(1.0986842,0,0,1.0986842,-218.0885,-297.0742)"/><use xlink:href="#g" transform="matrix(1.0986842,0,0,1.0986842,-288.79917,-436.72779)"/><use xlink:href="#g" transform="matrix(1.0986842,0,0,1.0986842,-344.86264,-429.90926)"/><use xlink:href="#g" transform="matrix(1.0986842,0,0,1.0986842,-382.74336,-414.2519)"/><use xlink:href="#g" transform="matrix(1.0986842,0,0,1.0986842,-346.12533,-393.54377)"/><use xlink:href="#g" transform="matrix(1.0986842,0,0,1.0986842,-369.35884,-363.74427)"/><use xlink:href="#g" transform="matrix(1.0986842,0,0,1.0986842,-381.22813,-324.60086)"/><use xlink:href="#g" transform="matrix(1.0986842,0,0,1.0986842,-386.02636,-275.10339)"/><use xlink:href="#g" transform="matrix(1.0986842,0,0,1.0986842,-351.68117,-299.34705)"/><use xlink:href="#g" transform="matrix(1.0986842,0,0,1.0986842,-316.07329,-266.26455)"/><use xlink:href="#g" transform="matrix(1.0986842,0,0,1.0986842,-249.40322,-259.9511)"/><use xlink:href="#g" transform="matrix(1.0986842,0,0,1.0986842,-285.0111,-239.74805)"/><use xlink:href="#g" transform="matrix(1.0986842,0,0,1.0986842,-327.94258,-225.85845)"/><use xlink:href="#g" transform="matrix(1.0986842,0,0,1.0986842,-358.75224,-201.36225)"/><use xlink:href="#g" transform="matrix(1.0986842,0,0,1.0986842,-320.36644,-184.69473)"/><use xlink:href="#g" transform="matrix(1.0986842,0,0,1.0986842,-277.94003,-189.24042)"/><use xlink:href="#g" transform="matrix(1.0986842,0,0,1.0986842,-246.6253,-214.99931)"/><use xlink:href="#g" transform="matrix(1.0986842,0,0,1.0986842,-196.11768,-192.01834)"/><use xlink:href="#g" transform="matrix(1.0986842,0,0,1.0986842,-235.51363,-171.31021)"/><use xlink:href="#g" transform="matrix(1.0986842,0,0,1.0986842,-198.39052,-144.79371)"/><use xlink:href="#g" transform="matrix(1.0986842,0,0,1.0986842,-202.43113,-104.3876)"/><use xlink:href="#g" transform="matrix(1.0986842,0,0,1.0986842,-296.37532,-146.0564)"/><use xlink:href="#g" transform="matrix(1.0986842,0,0,1.0986842,-344.35756,-140.50056)"/><use xlink:href="#g" transform="matrix(1.0986842,0,0,1.0986842,-377.18752,-119.79243)"/><use xlink:href="#g" transform="matrix(1.0986842,0,0,1.0986842,-388.2992,-163.98661)"/><use xlink:href="#g" transform="matrix(1.0986842,0,0,1.0986842,-316.83091,-104.3876)"/><use xlink:href="#g" transform="matrix(1.0986842,0,0,1.0986842,-321.88167,-67.517037)"/><use xlink:href="#g" transform="matrix(1.0986842,0,0,1.0986842,-359.00478,-47.061448)"/><use xlink:href="#g" transform="matrix(1.0986842,0,0,1.0986842,-280.21288,-78.376177)"/><use xlink:href="#g" transform="matrix(1.0986842,0,0,1.0986842,-239.80677,-83.174401)"/><use xlink:href="#g" transform="matrix(1.0986842,0,0,1.0986842,-200.9159,-59.183279)"/><use xlink:href="#g" transform="matrix(1.0986842,0,0,1.0986842,-254.70652,-43.020838)"/><use xlink:href="#g" transform="matrix(1.0986842,0,0,1.0986842,-384.51113,-17.514486)"/><use xlink:href="#g" transform="matrix(1.0986842,0,0,1.0986842,-341.07457,7.7393277)"/><use xlink:href="#g" transform="matrix(1.0986842,0,0,1.0986842,-295.6177,5.9715607)"/><use xlink:href="#g" transform="matrix(1.0986842,0,0,1.0986842,-322.13421,-29.13124)"/><use xlink:href="#g" transform="matrix(1.0986842,0,0,1.0986842,-256.47429,-5.1401173)"/><use xlink:href="#g" transform="matrix(1.0986842,0,0,1.0986842,-218.34103,-22.312711)"/><use xlink:href="#g" transform="matrix(1.0986842,0,0,1.0986842,-145.86259,5.9715607)"/><use xlink:href="#g" transform="matrix(1.0986842,0,0,1.0986842,-176.16716,-26.605859)"/><use xlink:href="#g" transform="matrix(1.0986842,0,0,1.0986842,-135.25599,-36.202308)"/><use xlink:href="#g" transform="matrix(1.0986842,0,0,1.0986842,-113.53771,-77.618562)"/><use xlink:href="#g" transform="matrix(1.0986842,0,0,1.0986842,-120.35624,-116.2569)"/><use xlink:href="#g" transform="matrix(1.0986842,0,0,1.0986842,-164.04533,-121.5602)"/><use xlink:href="#g" transform="matrix(1.0986842,0,0,1.0986842,-136.26614,-156.15792)"/><use xlink:href="#g" transform="matrix(1.0986842,0,0,1.0986842,-105.96156,-187.72519)"/><use xlink:href="#g" transform="matrix(1.0986842,0,0,1.0986842,-148.64051,-197.0691)"/><use xlink:href="#g" transform="matrix(1.0986842,0,0,1.0986842,-177.68239,-232.42444)"/><use xlink:href="#g" transform="matrix(1.0986842,0,0,1.0986842,-110.00217,-229.39398)"/><use xlink:href="#g" transform="matrix(1.0986842,0,0,1.0986842,-104.44633,-272.83054)"/><use xlink:href="#g" transform="matrix(1.0986842,0,0,1.0986842,-143.84228,-257.93079)"/><use xlink:href="#g" transform="matrix(1.0986842,0,0,1.0986842,-183.49077,-272.83054)"/><use xlink:href="#g" transform="matrix(1.0986842,0,0,1.0986842,-244.43844,-439.47885)"/></g><g style="stroke-linejoin:miter;stroke:#000000;stroke-linecap:butt;stroke-width:1px;fill:none">
<path d="M27,48l21,4,17-21,29-11,26,6,22,9,15,19,7,19-21,13-18,15-33-8-29-7v-19l-15-15"/><path d="M63,86l-24,13-19,15,8,24,6,28,24-3,26,6,15-19,27-6,8-22-9-21"/><path d="M34,166l-11,22"/><path d="M84,169l9,27,7,21-19,19-8,23-23,2-22,13-7,25,19,24,25-1,26,11,22-16-2-30-23-10-15-18"/><path d="M40,323l-8,20"/><path d="M91,333l1,25,12,22-17,15-13,20h-24l-25-19"/><path d="M74,415l13,19,3,27-22,9-28-2-16-24"/><path d="M90,461l23,8"/><path d="M104,380l24,4,25,7,2,29,11,18-13,20"/><path d="M166,438l25,2,21-15-4-23-12-22-27-1-16,12"/><path d="M212,425l21,11,23,8,7,25"/><path d="M256,444l18-18,22-13v-29l7-20-15-19-19-12-23,8-26-2-14,18-10,23"/><path d="M220,339l-10-22-10-25,13-21,22-14-3-27,13-24-20-18-10-20-24-3-26,13-5,25-13,20,16,24-8,25,18,19,27,1"/><path d="M155,272h-24l-20,15"/><path d="M147,223h-23l-24-6"/><path d="M165,178l-23-12-16-22"/><path d="M215,168l13-21,8-26-22-15-3-24h-21l-26-9"/><path d="M211,82l17-19,14-17-12-23"/><path d="M242,46l24,2,19,16v22l-3,28-23,4-23,3"/><path d="M285,64l23-12,30,6,17,19,7,27-22,12-15,18-27-9-16-11"/><path d="M325,134l5,23-3,26-23,7-14,18-25-4-20,2"/><path d="M290,208l9,25,14,20-10,22-25,8-18-18-25-8"/><path d="M278,283l-5,25-4,25"/><path d="M313,253l25-3,23,1,15,21-1,28-10,22-11,27-28,3-23,12"/><path d="M354,349l18,16"/><path d="M361,251l14-23-3-25-26-7-19-13"/><path d="M338,58l5-26,24-9"/><path d="M142,35l23-13"/></g><g style="fill:url(#O)">
<use xlink:href="#g" transform="matrix(1.0986842,0,0,1.0986842,-14.259865,-42.645144)"/><use xlink:href="#g" transform="matrix(1.0986842,0,0,1.0986842,-36.513575,-97.316537)"/>
<use xlink:href="#g" transform="matrix(1.0986842,0,0,1.0986842,-43.837181,-141.51071)"/><use xlink:href="#g" transform="matrix(1.0986842,0,0,1.0986842,-83.23313,-110.19598)"/><use xlink:href="#g" transform="matrix(1.0986842,0,0,1.0986842,-33.230579,-189.99803)"/><use xlink:href="#g" transform="matrix(1.0986842,0,0,1.0986842,-71.363838,-212.22139)"/><use xlink:href="#g" transform="matrix(1.0986842,0,0,1.0986842,-34.49327,-233.68713)"/><use xlink:href="#g" transform="matrix(1.0986842,0,0,1.0986842,-64.29277,-266.51709)"/><use xlink:href="#g" transform="matrix(1.0986842,0,0,1.0986842,-78.939982,-305.6605)"/><use xlink:href="#g" transform="matrix(1.0986842,0,0,1.0986842,-69.090994,-346.57168)"/><use xlink:href="#g" transform="matrix(1.0986842,0,0,1.0986842,-54.443783,-385.21001)"/><use xlink:href="#g" transform="matrix(1.0986842,0,0,1.0986842,-65.302922,-430.66688)"/><use xlink:href="#g" transform="matrix(1.0986842,0,0,1.0986842,-100.9108,-410.21129)"/><use xlink:href="#g" transform="matrix(1.0986842,0,0,1.0986842,-143.58974,-413.74682)"/><use xlink:href="#g" transform="matrix(1.0986842,0,0,1.0986842,-179.19762,-438.49556)"/><use xlink:href="#g" transform="matrix(1.0986842,0,0,1.0986842,-182.22808,-398.84707)"/><use xlink:href="#g" transform="matrix(1.0986842,0,0,1.0986842,-123.38669,-376.11864)"/><use xlink:href="#g" transform="matrix(1.0986842,0,0,1.0986842,-109.74963,-336.21761)"/><use xlink:href="#g" transform="matrix(1.0986842,0,0,1.0986842,-149.65066,-344.55137)"/><use xlink:href="#g" transform="matrix(1.0986842,0,0,1.0986842,-195.36006,-356.42067)"/><use xlink:href="#g" transform="matrix(1.0986842,0,0,1.0986842,-219.60372,-381.1694)"/><use xlink:href="#g" transform="matrix(1.0986842,0,0,1.0986842,-252.68622,-409.20114)"/><use xlink:href="#g" transform="matrix(1.0986842,0,0,1.0986842,-180.96539,-315.25695)"/><use xlink:href="#g" transform="matrix(1.0986842,0,0,1.0986842,-265.56566,-377.12879)"/><use xlink:href="#g" transform="matrix(1.0986842,0,0,1.0986842,-275.16211,-340.7633)"/><use xlink:href="#g" transform="matrix(1.0986842,0,0,1.0986842,-316.83091,-369.30011)"/><use xlink:href="#g" transform="matrix(1.0986842,0,0,1.0986842,-309.5073,-310.9638)"/><use xlink:href="#g" transform="matrix(1.0986842,0,0,1.0986842,-266.82836,-296.31659)"/><use xlink:href="#g" transform="matrix(1.0986842,0,0,1.0986842,-218.0885,-297.0742)"/><use xlink:href="#g" transform="matrix(1.0986842,0,0,1.0986842,-288.79917,-436.72779)"/><use xlink:href="#g" transform="matrix(1.0986842,0,0,1.0986842,-344.86264,-429.90926)"/><use xlink:href="#g" transform="matrix(1.0986842,0,0,1.0986842,-382.74336,-414.2519)"/><use xlink:href="#g" transform="matrix(1.0986842,0,0,1.0986842,-346.12533,-393.54377)"/><use xlink:href="#g" transform="matrix(1.0986842,0,0,1.0986842,-369.35884,-363.74427)"/><use xlink:href="#g" transform="matrix(1.0986842,0,0,1.0986842,-381.22813,-324.60086)"/><use xlink:href="#g" transform="matrix(1.0986842,0,0,1.0986842,-386.02636,-275.10339)"/><use xlink:href="#g" transform="matrix(1.0986842,0,0,1.0986842,-351.68117,-299.34705)"/><use xlink:href="#g" transform="matrix(1.0986842,0,0,1.0986842,-316.07329,-266.26455)"/><use xlink:href="#g" transform="matrix(1.0986842,0,0,1.0986842,-249.40322,-259.9511)"/><use xlink:href="#g" transform="matrix(1.0986842,0,0,1.0986842,-285.0111,-239.74805)"/><use xlink:href="#g" transform="matrix(1.0986842,0,0,1.0986842,-327.94258,-225.85845)"/><use xlink:href="#g" transform="matrix(1.0986842,0,0,1.0986842,-358.75224,-201.36225)"/><use xlink:href="#g" transform="matrix(1.0986842,0,0,1.0986842,-320.36644,-184.69473)"/><use xlink:href="#g" transform="matrix(1.0986842,0,0,1.0986842,-277.94003,-189.24042)"/><use xlink:href="#g" transform="matrix(1.0986842,0,0,1.0986842,-246.6253,-214.99931)"/><use xlink:href="#g" transform="matrix(1.0986842,0,0,1.0986842,-196.11768,-192.01834)"/><use xlink:href="#g" transform="matrix(1.0986842,0,0,1.0986842,-235.51363,-171.31021)"/><use xlink:href="#g" transform="matrix(1.0986842,0,0,1.0986842,-198.39052,-144.79371)"/><use xlink:href="#g" transform="matrix(1.0986842,0,0,1.0986842,-202.43113,-104.3876)"/><use xlink:href="#g" transform="matrix(1.0986842,0,0,1.0986842,-296.37532,-146.0564)"/><use xlink:href="#g" transform="matrix(1.0986842,0,0,1.0986842,-344.35756,-140.50056)"/><use xlink:href="#g" transform="matrix(1.0986842,0,0,1.0986842,-377.18752,-119.79243)"/><use xlink:href="#g" transform="matrix(1.0986842,0,0,1.0986842,-388.2992,-163.98661)"/><use xlink:href="#g" transform="matrix(1.0986842,0,0,1.0986842,-316.83091,-104.3876)"/><use xlink:href="#g" transform="matrix(1.0986842,0,0,1.0986842,-321.88167,-67.517037)"/><use xlink:href="#g" transform="matrix(1.0986842,0,0,1.0986842,-359.00478,-47.061448)"/><use xlink:href="#g" transform="matrix(1.0986842,0,0,1.0986842,-280.21288,-78.376177)"/><use xlink:href="#g" transform="matrix(1.0986842,0,0,1.0986842,-239.80677,-83.174401)"/><use xlink:href="#g" transform="matrix(1.0986842,0,0,1.0986842,-200.9159,-59.183279)"/><use xlink:href="#g" transform="matrix(1.0986842,0,0,1.0986842,-254.70652,-43.020838)"/><use xlink:href="#g" transform="matrix(1.0986842,0,0,1.0986842,-384.51113,-17.514486)"/><use xlink:href="#g" transform="matrix(1.0986842,0,0,1.0986842,-341.07457,7.7393277)"/><use xlink:href="#g" transform="matrix(1.0986842,0,0,1.0986842,-295.6177,5.9715607)"/><use xlink:href="#g" transform="matrix(1.0986842,0,0,1.0986842,-322.13421,-29.13124)"/><use xlink:href="#g" transform="matrix(1.0986842,0,0,1.0986842,-256.47429,-5.1401173)"/><use xlink:href="#g" transform="matrix(1.0986842,0,0,1.0986842,-218.34103,-22.312711)"/><use xlink:href="#g" transform="matrix(1.0986842,0,0,1.0986842,-145.86259,5.9715607)"/><use xlink:href="#g" transform="matrix(1.0986842,0,0,1.0986842,-176.16716,-26.605859)"/><use xlink:href="#g" transform="matrix(1.0986842,0,0,1.0986842,-135.25599,-36.202308)"/><use xlink:href="#g" transform="matrix(1.0986842,0,0,1.0986842,-113.53771,-77.618562)"/><use xlink:href="#g" transform="matrix(1.0986842,0,0,1.0986842,-120.35624,-116.2569)"/><use xlink:href="#g" transform="matrix(1.0986842,0,0,1.0986842,-164.04533,-121.5602)"/><use xlink:href="#g" transform="matrix(1.0986842,0,0,1.0986842,-136.26614,-156.15792)"/><use xlink:href="#g" transform="matrix(1.0986842,0,0,1.0986842,-105.96156,-187.72519)"/><use xlink:href="#g" transform="matrix(1.0986842,0,0,1.0986842,-148.64051,-197.0691)"/><use xlink:href="#g" transform="matrix(1.0986842,0,0,1.0986842,-177.68239,-232.42444)"/><use xlink:href="#g" transform="matrix(1.0986842,0,0,1.0986842,-110.00217,-229.39398)"/><use xlink:href="#g" transform="matrix(1.0986842,0,0,1.0986842,-104.44633,-272.83054)"/>
<use xlink:href="#g" transform="matrix(1.0986842,0,0,1.0986842,-143.84228,-257.93079)"/>
<use xlink:href="#g" transform="matrix(1.0986842,0,0,1.0986842,-183.49077,-272.83054)"/>
<use xlink:href="#g" transform="matrix(1.0986842,0,0,1.0986842,-244.43844,-439.47885)"/></g><g style="fill:url(#Si)"><use xlink:href="#g" transform="matrix(0.7746711,0,0,0.7746711,106.43501,138.32111)"/><use xlink:href="#g" transform="matrix(0.7746711,0,0,0.7746711,-248.20784,140.96509)"/><use xlink:href="#g" transform="matrix(0.7746711,0,0,0.7746711,-262.8507,69.536517)"/><use xlink:href="#g" transform="matrix(0.7746711,0,0,0.7746711,-213.92213,88.465088)"/><use xlink:href="#g" transform="matrix(0.7746711,0,0,0.7746711,-197.13641,134.89366)"/><use xlink:href="#g" transform="matrix(0.7746711,0,0,0.7746711,-121.77927,112.03652)"/><use xlink:href="#g" transform="matrix(0.7746711,0,0,0.7746711,-135.3507,65.250802)"/><use xlink:href="#g" transform="matrix(0.7746711,0,0,0.7746711,-185.3507,54.536517)"/><use xlink:href="#g" transform="matrix(0.7746711,0,0,0.7746711,-92.850699,53.822231)"/><use xlink:href="#g" transform="matrix(0.7746711,0,0,0.7746711,-75.350699,98.822231)"/><use xlink:href="#g" transform="matrix(0.7746711,0,0,0.7746711,-32.136413,117.03652)"/><use xlink:href="#g" transform="matrix(0.7746711,0,0,0.7746711,7.8635871,85.965088)"/><use xlink:href="#g" transform="matrix(0.7746711,0,0,0.7746711,13.577873,37.393659)"/><use xlink:href="#g" transform="matrix(0.7746711,0,0,0.7746711,-197.49356,6.3222308)"/><use xlink:href="#g" transform="matrix(0.7746711,0,0,0.7746711,-248.92213,-3.6777693)"/><use xlink:href="#g" transform="matrix(0.7746711,0,0,0.7746711,-259.99356,-51.892055)"/><use xlink:href="#g" transform="matrix(0.7746711,0,0,0.7746711,-215.3507,-67.606341)"/><use xlink:href="#g" transform="matrix(0.7746711,0,0,0.7746711,-177.13641,-39.034912)"/><use xlink:href="#g" transform="matrix(0.7746711,0,0,0.7746711,-132.8507,-55.106341)"/><use xlink:href="#g" transform="matrix(0.7746711,0,0,0.7746711,-87.493556,-33.320626)"/><use xlink:href="#g" transform="matrix(0.7746711,0,0,0.7746711,-67.136413,12.393659)"/><use xlink:href="#g" transform="matrix(0.7746711,0,0,0.7746711,-19.27927,7.0365165)"/><use xlink:href="#g" transform="matrix(0.7746711,0,0,0.7746711,-9.9935557,-44.392055)"/><use xlink:href="#g" transform="matrix(0.7746711,0,0,0.7746711,-53.207842,-69.392055)"/><use xlink:href="#g" transform="matrix(0.7746711,0,0,0.7746711,1.4350157,-118.67777)"/><use xlink:href="#g" transform="matrix(0.7746711,0,0,0.7746711,-42.850699,-120.10634)"/><use xlink:href="#g" transform="matrix(0.7746711,0,0,0.7746711,-73.564984,-158.32063)"/><use xlink:href="#g" transform="matrix(0.7746711,0,0,0.7746711,-121.77927,-148.32063)"/><use xlink:href="#g" transform="matrix(0.7746711,0,0,0.7746711,-140.70784,-103.32063)"/><use xlink:href="#g" transform="matrix(0.7746711,0,0,0.7746711,-187.8507,-108.67777)"/><use xlink:href="#g" transform="matrix(0.7746711,0,0,0.7746711,-204.27927,-157.96348)"/><use xlink:href="#g" transform="matrix(0.7746711,0,0,0.7746711,-253.92213,-160.10634)"/><use xlink:href="#g" transform="matrix(0.7746711,0,0,0.7746711,-268.20784,-212.2492)"/><use xlink:href="#g" transform="matrix(0.7746711,0,0,0.7746711,-225.3507,-241.17777)"/><use xlink:href="#g" transform="matrix(0.7746711,0,0,0.7746711,-162.8507,-225.46348)"/><use xlink:href="#g" transform="matrix(0.7746711,0,0,0.7746711,-162.13641,-181.53491)"/><use xlink:href="#g" transform="matrix(0.7746711,0,0,0.7746711,-239.63641,-274.39206)"/><use xlink:href="#g" transform="matrix(0.7746711,0,0,0.7746711,-193.56498,-305.82063)"/><use xlink:href="#g" transform="matrix(0.7746711,0,0,0.7746711,-144.99356,-290.10634)"/><use xlink:href="#g" transform="matrix(0.7746711,0,0,0.7746711,-123.92213,-253.67777)"/><use xlink:href="#g" transform="matrix(0.7746711,0,0,0.7746711,-76.422127,-242.96348)"/><use xlink:href="#g" transform="matrix(0.7746711,0,0,0.7746711,-45.707842,-279.03491)"/><use xlink:href="#g" transform="matrix(0.7746711,0,0,0.7746711,-2.4935557,-260.82063)"/><use xlink:href="#g" transform="matrix(0.7746711,0,0,0.7746711,-6.4221272,-211.89206)"/><use xlink:href="#g" transform="matrix(0.7746711,0,0,0.7746711,-52.136413,-205.46348)"/><use xlink:href="#g" transform="matrix(0.7746711,0,0,0.7746711,78.577873,-302.96348)"/><use xlink:href="#g" transform="matrix(0.7746711,0,0,0.7746711,49.649301,-268.32063)"/><use xlink:href="#g" transform="matrix(0.7746711,0,0,0.7746711,73.577873,-222.60634)"/>
<use xlink:href="#g" transform="matrix(0.7746711,0,0,0.7746711,37.149301,-192.60634)"/>
<use xlink:href="#g" transform="matrix(0.7746711,0,0,0.7746711,38.577873,-143.67777)"/>
<use xlink:href="#g" transform="matrix(0.7746711,0,0,0.7746711,84.292159,-122.2492)"/>
<use xlink:href="#g" transform="matrix(0.7746711,0,0,0.7746711,73.22073,-74.749198)"/>
<use xlink:href="#g" transform="matrix(0.7746711,0,0,0.7746711,24.649301,-74.749198)"/>
<use xlink:href="#g" transform="matrix(0.7746711,0,0,0.7746711,87.149302,-26.534912)"/>
<use xlink:href="#g" transform="matrix(0.7746711,0,0,0.7746711,65.72073,22.750802)"/></g>
<text y="431" x="420" xml:space="preserve" style="font-size:32px;writing-mode:lr-tb;fill:#000000;text-anchor:start;line-height:100%;font-stretch:normal;font-family:Bitstream Vera Sans;font-variant:normal;font-weight:normal;font-style:normal;text-align:start;"><tspan y="431" x="420">O</tspan></text><text y="476" x="419.6875" xml:space="preserve" style="font-size:32px;writing-mode:lr-tb;fill:#000000;text-anchor:start;line-height:125%;font-stretch:normal;font-family:Bitstream Vera Sans;font-variant:normal;font-weight:normal;font-style:normal;text-align:start;"><tspan y="476" x="419.6875">Si</tspan></text></svg>
