<svg version="1.1" xmlns="http://www.w3.org/2000/svg" xmlns:xlink="http://www.w3.org/1999/xlink" width="220" height="187"><defs/><g transform="scale(1,1) translate(-131,-110)"><g><text fill="#000000" stroke="none" font-family="sans-serif" font-size="12px" font-style="normal" font-weight="normal" text-decoration="normal" x="204" y="162" text-anchor="start" dominant-baseline="alphabetic">MT1</text></g><g><text fill="#000000" stroke="none" font-family="sans-serif" font-size="12px" font-style="normal" font-weight="normal" text-decoration="normal" x="272" y="213" text-anchor="start" dominant-baseline="alphabetic">G</text></g><g><text fill="#000000" stroke="none" font-family="sans-serif" font-size="12px" font-style="normal" font-weight="normal" text-decoration="normal" x="201" y="244" text-anchor="start" dominant-baseline="alphabetic">MT2</text></g><path fill="none" stroke="#000000" paint-order="fill stroke markers" d=" M 240 160 L 240 192" stroke-linecap="round" stroke-miterlimit="10" stroke-width="3" stroke-dasharray=""/><path fill="none" stroke="#000000" paint-order="fill stroke markers" d=" M 240 208 L 240 240" stroke-linecap="round" stroke-miterlimit="10" stroke-width="3" stroke-dasharray=""/><path fill="none" stroke="#000000" paint-order="fill stroke markers" d=" M 256 192 L 224 192" stroke-linecap="round" stroke-miterlimit="10" stroke-width="3" stroke-dasharray=""/><path fill="none" stroke="#000000" paint-order="fill stroke markers" d=" M 256 208 L 224 208" stroke-linecap="round" stroke-miterlimit="10" stroke-width="3" stroke-dasharray=""/><path fill="#000000" stroke="none" paint-order="stroke fill markers" d=" M 232 192 L 224 208 L 240 208 Z"/><path fill="#000000" stroke="none" paint-order="stroke fill markers" d=" M 248 208 L 256 192 L 240 192 Z"/><path fill="none" stroke="#000000" paint-order="fill stroke markers" d=" M 240 208 L 256 224" stroke-linecap="round" stroke-miterlimit="10" stroke-width="3" stroke-dasharray=""/><path fill="none" stroke="#000000" paint-order="fill stroke markers" d=" M 256 224 L 272 224" stroke-linecap="round" stroke-miterlimit="10" stroke-width="3" stroke-dasharray=""/><path fill="#000000" stroke="none" paint-order="stroke fill markers" d=" M 243 160 A 3 3 0 1 1 242.99999999995774 159.99998407846124 Z"/><path fill="#000000" stroke="none" paint-order="stroke fill markers" d=" M 243 240 A 3 3 0 1 1 242.99999999995774 239.99998407846124 Z"/><path fill="#000000" stroke="none" paint-order="stroke fill markers" d=" M 275 224 A 3 3 0 1 1 274.99999999995777 223.99998407846124 Z"/></g></svg>