<svg version="1.1" xmlns="http://www.w3.org/2000/svg" xmlns:xlink="http://www.w3.org/1999/xlink" width="203" height="173"><defs/><g transform="scale(1,1) translate(-165,-94)"><path fill="none" stroke="#000000" paint-order="fill stroke markers" d=" M 256 144 L 256 168" stroke-linecap="round" stroke-miterlimit="10" stroke-width="3" stroke-dasharray=""/><path fill="none" stroke="#000000" paint-order="fill stroke markers" d=" M 256 184 L 256 208" stroke-linecap="round" stroke-miterlimit="10" stroke-width="3" stroke-dasharray=""/><path fill="#000000" stroke="none" paint-order="stroke fill markers" d=" M 264 168 L 248 168 L 256 184 Z"/><path fill="none" stroke="#000000" paint-order="fill stroke markers" d=" M 256 184 L 280 208" stroke-linecap="round" stroke-miterlimit="10" stroke-width="3" stroke-dasharray=""/><path fill="none" stroke="#000000" paint-order="fill stroke markers" d=" M 280 208 L 288 208" stroke-linecap="round" stroke-miterlimit="10" stroke-width="3" stroke-dasharray=""/><path fill="none" stroke="#000000" paint-order="fill stroke markers" d=" M 264 184 L 248 184" stroke-linecap="round" stroke-miterlimit="10" stroke-width="3" stroke-dasharray=""/><g><text fill="#000000" stroke="none" font-family="sans-serif" font-size="12px" font-style="normal" font-weight="normal" text-decoration="normal" x="235" y="145" text-anchor="start" dominant-baseline="alphabetic">A</text></g><g><text fill="#000000" stroke="none" font-family="sans-serif" font-size="12px" font-style="normal" font-weight="normal" text-decoration="normal" x="289" y="195" text-anchor="start" dominant-baseline="alphabetic">G</text></g><g><text fill="#000000" stroke="none" font-family="sans-serif" font-size="12px" font-style="normal" font-weight="normal" text-decoration="normal" x="236" y="214" text-anchor="start" dominant-baseline="alphabetic">C</text></g><path fill="#000000" stroke="none" paint-order="stroke fill markers" d=" M 259 144 A 3 3 0 1 1 258.99999999995777 143.99998407846124 Z"/><path fill="#000000" stroke="none" paint-order="stroke fill markers" d=" M 259 208 A 3 3 0 1 1 258.99999999995777 207.99998407846124 Z"/><path fill="#000000" stroke="none" paint-order="stroke fill markers" d=" M 291 208 A 3 3 0 1 1 290.99999999995777 207.99998407846124 Z"/></g></svg>