<?xml version="1.0" encoding="UTF-8" standalone="no"?>
<!-- Created with Inkscape (http://www.inkscape.org/) -->

<svg
   xmlns:dc="http://purl.org/dc/elements/1.1/"
   xmlns:cc="http://creativecommons.org/ns#"
   xmlns:rdf="http://www.w3.org/1999/02/22-rdf-syntax-ns#"
   xmlns:svg="http://www.w3.org/2000/svg"
   xmlns="http://www.w3.org/2000/svg"
   xmlns:xlink="http://www.w3.org/1999/xlink"
   xmlns:sodipodi="http://sodipodi.sourceforge.net/DTD/sodipodi-0.dtd"
   xmlns:inkscape="http://www.inkscape.org/namespaces/inkscape"
   id="svg1354"
   sodipodi:version="0.32"
   inkscape:version="0.47 r22583"
   width="1550pt"
   height="1650pt"
   sodipodi:docname="Diagrama ferro-carboni.svg"
   version="1.0"
   x="0.00000000"
   y="0.00000000"
   inkscape:export-filename="D:\zzz_priv\imgs\wikipedia\zelazowegiel.png"
   inkscape:export-xdpi="150.00000"
   inkscape:export-ydpi="150.00000">
  <metadata
     id="metadata1359">
    <rdf:RDF>
      <cc:Work
         rdf:about="">
        <dc:format>image/svg+xml</dc:format>
        <dc:type
           rdf:resource="http://purl.org/dc/dcmitype/StillImage" />
      </cc:Work>
    </rdf:RDF>
  </metadata>
  <defs
     id="defs1357">
    <inkscape:perspective
       sodipodi:type="inkscape:persp3d"
       inkscape:vp_x="0 : 1031.25 : 1"
       inkscape:vp_y="0 : 1000 : 0"
       inkscape:vp_z="1937.5 : 1031.25 : 1"
       inkscape:persp3d-origin="968.75 : 687.5 : 1"
       id="perspective119" />
    <marker
       inkscape:stockid="Arrow2Mend"
       orient="auto"
       refY="0"
       refX="0"
       id="Arrow2Mend"
       style="overflow:visible">
      <path
         sodipodi:nodetypes="cccc"
         id="path2204"
         style="font-size:12px;fill-rule:evenodd;stroke-width:0.625;stroke-linejoin:round"
         d="M 8.7185878,4.0337352 L -2.2072895,0.016013256 L 8.7185884,-4.0017078 C 6.97309,-1.6296469 6.9831476,1.6157441 8.7185878,4.0337352 z "
         transform="matrix(-0.6,0,0,-0.6,3,0)" />
    </marker>
    <marker
       inkscape:stockid="Arrow2Lend"
       orient="auto"
       refY="0"
       refX="0"
       id="Arrow2Lend"
       style="overflow:visible">
      <path
         sodipodi:nodetypes="cccc"
         id="path2207"
         style="font-size:12px;fill-rule:evenodd;stroke-width:0.625;stroke-linejoin:round"
         d="M 8.7185878,4.0337352 L -2.2072895,0.016013256 L 8.7185884,-4.0017078 C 6.97309,-1.6296469 6.9831476,1.6157441 8.7185878,4.0337352 z "
         transform="matrix(-1.1,0,0,-1.1,5.5,0)" />
    </marker>
    <marker
       inkscape:stockid="Arrow1Mend"
       orient="auto"
       refY="0"
       refX="0"
       id="marker3096"
       style="overflow:visible">
      <path
         id="path2453"
         d="M 0,0 L 5,-5 L -12.5,0 L 5,5 L 0,0 z "
         style="fill-rule:evenodd;stroke:#000000;stroke-width:1pt;marker-start:none"
         transform="scale(-0.400000,-0.400000)" />
    </marker>
    <marker
       inkscape:stockid="Arrow2Lstart"
       orient="auto"
       refY="0"
       refX="0"
       id="marker3099"
       style="overflow:visible">
      <path
         id="path2444"
         style="font-size:12px;fill-rule:evenodd;stroke-width:0.625;stroke-linejoin:round"
         d="M 8.7185878,4.0337352 L -2.2072895,0.016013256 L 8.7185884,-4.0017078 C 6.97309,-1.6296469 6.9831476,1.6157441 8.7185878,4.0337352 z "
         transform="matrix(1.100000,0.000000,0.000000,1.100000,-5.500000,0.000000)" />
    </marker>
    <marker
       inkscape:stockid="Arrow2Lend"
       orient="auto"
       refY="0"
       refX="0"
       id="marker1701"
       style="overflow:visible">
      <path
         id="path2441"
         style="font-size:12px;fill-rule:evenodd;stroke-width:0.625;stroke-linejoin:round"
         d="M 8.7185878,4.0337352 L -2.2072895,0.016013256 L 8.7185884,-4.0017078 C 6.97309,-1.6296469 6.9831476,1.6157441 8.7185878,4.0337352 z "
         transform="matrix(-1.100000,0.000000,0.000000,-1.100000,5.500000,0.000000)" />
    </marker>
    <marker
       style="overflow:visible"
       id="Arrow1Lend"
       refX="0"
       refY="0"
       orient="auto"
       inkscape:stockid="Arrow1Lend">
      <path
         transform="scale(-0.8,-0.8)"
         style="fill-rule:evenodd;stroke:#000000;stroke-width:1pt;marker-start:none"
         d="M 0,0 L 5,-5 L -12.5,0 L 5,5 L 0,0 z "
         id="path9195" />
    </marker>
    <marker
       style="overflow:visible"
       id="Arrow2Lstart"
       refX="0"
       refY="0"
       orient="auto"
       inkscape:stockid="Arrow2Lstart">
      <path
         transform="matrix(1.1,0,0,1.1,-5.5,0)"
         d="M 8.7185878,4.0337352 L -2.2072895,0.016013256 L 8.7185884,-4.0017078 C 6.97309,-1.6296469 6.9831476,1.6157441 8.7185878,4.0337352 z "
         style="font-size:12px;fill-rule:evenodd;stroke-width:0.625;stroke-linejoin:round"
         id="path9180" />
    </marker>
    <marker
       style="overflow:visible"
       id="TriangleInM"
       refX="0"
       refY="0"
       orient="auto"
       inkscape:stockid="TriangleInM">
      <path
         transform="scale(-0.4,-0.4)"
         style="fill-rule:evenodd;stroke:#000000;stroke-width:1pt;marker-start:none"
         d="M 5.77,0 L -2.88,5 L -2.88,-5 L 5.77,0 z "
         id="path9103" />
    </marker>
    <marker
       style="overflow:visible"
       id="marker1692"
       refX="0"
       refY="0"
       orient="auto"
       inkscape:stockid="Arrow2Mend">
      <path
         transform="matrix(-0.6,0,0,-0.6,3,0)"
         d="M 8.7185878,4.0337352 L -2.2072895,0.016013256 L 8.7185884,-4.0017078 C 6.97309,-1.6296469 6.9831476,1.6157441 8.7185878,4.0337352 z "
         style="font-size:12px;fill-rule:evenodd;stroke-width:0.625;stroke-linejoin:round"
         id="path9171" />
    </marker>
    <marker
       style="overflow:visible"
       id="Arrow2Mstart"
       refX="0"
       refY="0"
       orient="auto"
       inkscape:stockid="Arrow2Mstart">
      <path
         transform="matrix(0.6,0,0,0.6,-3,0)"
         d="M 8.7185878,4.0337352 L -2.2072895,0.016013256 L 8.7185884,-4.0017078 C 6.97309,-1.6296469 6.9831476,1.6157441 8.7185878,4.0337352 z "
         style="font-size:12px;fill-rule:evenodd;stroke-width:0.625;stroke-linejoin:round"
         id="path9174" />
    </marker>
    <marker
       style="overflow:visible"
       id="Arrow1Mend"
       refX="0"
       refY="0"
       orient="auto"
       inkscape:stockid="Arrow1Mend">
      <path
         transform="scale(-0.4,-0.4)"
         style="fill-rule:evenodd;stroke:#000000;stroke-width:1pt;marker-start:none"
         d="M 0,0 L 5,-5 L -12.5,0 L 5,5 L 0,0 z "
         id="path9189" />
    </marker>
    <marker
       style="overflow:visible"
       id="Arrow1Lstart"
       refX="0"
       refY="0"
       orient="auto"
       inkscape:stockid="Arrow1Lstart">
      <path
         transform="scale(0.8,0.8)"
         style="fill-rule:evenodd;stroke:#000000;stroke-width:1pt;marker-start:none"
         d="M 0,0 L 5,-5 L -12.5,0 L 5,5 L 0,0 z "
         id="path9198" />
    </marker>
    <marker
       style="overflow:visible"
       id="Tail"
       refX="0"
       refY="0"
       orient="auto"
       inkscape:stockid="Tail">
      <g
         transform="scale(-1.2,-1.2)"
         id="g9150">
        <path
           style="fill:none;fill-rule:evenodd;stroke:#000000;stroke-width:0.80000001;stroke-linecap:round;marker-start:none;marker-end:none"
           d="M -3.8048674,-3.9585227 L 0.54352094,-0.00068114835"
           id="path9152" />
        <path
           style="fill:none;fill-rule:evenodd;stroke:#000000;stroke-width:0.80000001;stroke-linecap:round;marker-start:none;marker-end:none"
           d="M -1.2866832,-3.9585227 L 3.0617053,-0.00068114835"
           id="path9154" />
        <path
           style="fill:none;fill-rule:evenodd;stroke:#000000;stroke-width:0.80000001;stroke-linecap:round;marker-start:none;marker-end:none"
           d="M 1.3053582,-3.9585227 L 5.6537466,-0.00068114835"
           id="path9156" />
        <path
           style="fill:none;fill-rule:evenodd;stroke:#000000;stroke-width:0.80000001;stroke-linecap:round;marker-start:none;marker-end:none"
           d="M -3.8048674,4.1775838 L 0.54352094,0.21974226"
           id="path9158" />
        <path
           style="fill:none;fill-rule:evenodd;stroke:#000000;stroke-width:0.80000001;stroke-linecap:round;marker-start:none;marker-end:none"
           d="M -1.2866832,4.1775838 L 3.0617053,0.21974226"
           id="path9160" />
        <path
           style="fill:none;fill-rule:evenodd;stroke:#000000;stroke-width:0.80000001;stroke-linecap:round;marker-start:none;marker-end:none"
           d="M 1.3053582,4.1775838 L 5.6537466,0.21974226"
           id="path9162" />
      </g>
    </marker>
    <inkscape:perspective
       id="perspective2969"
       inkscape:persp3d-origin="0.5 : 0.33333333 : 1"
       inkscape:vp_z="1 : 0.5 : 1"
       inkscape:vp_y="0 : 1000 : 0"
       inkscape:vp_x="0 : 0.5 : 1"
       sodipodi:type="inkscape:persp3d" />
    <inkscape:perspective
       id="perspective2998"
       inkscape:persp3d-origin="0.5 : 0.33333333 : 1"
       inkscape:vp_z="1 : 0.5 : 1"
       inkscape:vp_y="0 : 1000 : 0"
       inkscape:vp_x="0 : 0.5 : 1"
       sodipodi:type="inkscape:persp3d" />
    <inkscape:perspective
       id="perspective3025"
       inkscape:persp3d-origin="0.5 : 0.33333333 : 1"
       inkscape:vp_z="1 : 0.5 : 1"
       inkscape:vp_y="0 : 1000 : 0"
       inkscape:vp_x="0 : 0.5 : 1"
       sodipodi:type="inkscape:persp3d" />
    <inkscape:perspective
       id="perspective3025-5"
       inkscape:persp3d-origin="0.5 : 0.33333333 : 1"
       inkscape:vp_z="1 : 0.5 : 1"
       inkscape:vp_y="0 : 1000 : 0"
       inkscape:vp_x="0 : 0.5 : 1"
       sodipodi:type="inkscape:persp3d" />
    <inkscape:perspective
       id="perspective3061"
       inkscape:persp3d-origin="0.5 : 0.33333333 : 1"
       inkscape:vp_z="1 : 0.5 : 1"
       inkscape:vp_y="0 : 1000 : 0"
       inkscape:vp_x="0 : 0.5 : 1"
       sodipodi:type="inkscape:persp3d" />
    <inkscape:perspective
       id="perspective3061-8"
       inkscape:persp3d-origin="0.5 : 0.33333333 : 1"
       inkscape:vp_z="1 : 0.5 : 1"
       inkscape:vp_y="0 : 1000 : 0"
       inkscape:vp_x="0 : 0.5 : 1"
       sodipodi:type="inkscape:persp3d" />
  </defs>
  <sodipodi:namedview
     inkscape:window-height="999"
     inkscape:window-width="1280"
     inkscape:pageshadow="2"
     inkscape:pageopacity="1"
     borderopacity="1.0"
     bordercolor="#666666"
     pagecolor="#ffffff"
     id="base"
     inkscape:zoom="0.61580177"
     inkscape:cx="965.86442"
     inkscape:cy="1055.0506"
     inkscape:window-x="0"
     inkscape:window-y="0"
     inkscape:current-layer="g1588"
     fill="#3cb371"
     showgrid="false"
     inkscape:window-maximized="1" />
  <g
     inkscape:groupmode="layer"
     id="layer1"
     inkscape:label="wykres_inc"
     style="display:inline" />
  <g
     inkscape:groupmode="layer"
     id="layer2"
     inkscape:label="strzalki"
     style="display:inline" />
  <g
     id="g1588">
    <text
       xml:space="preserve"
       style="font-size:40px;font-style:normal;font-weight:normal;fill:#800000;fill-opacity:1;stroke:none;font-family:Bitstream Vera Sans"
       x="794.1405"
       y="2016.2164"
       id="text2938"><tspan
         sodipodi:role="line"
         id="tspan2940"
         x="794.1405"
         y="2016.2164">2,1</tspan></text>
    <text
       xml:space="preserve"
       style="font-size:40px;font-style:normal;font-weight:normal;fill:#800000;fill-opacity:1;stroke:none;font-family:Bitstream Vera Sans"
       x="1543.5626"
       y="2016.2164"
       id="text2942"><tspan
         sodipodi:role="line"
         id="tspan2944"
         x="1543.5626"
         y="2016.2164">6,67</tspan></text>
    <text
       xml:space="preserve"
       style="font-size:40px;font-style:normal;font-weight:normal;fill:#000000;fill-opacity:1;stroke:none;font-family:Bitstream Vera Sans"
       x="551.00092"
       y="2014.6149"
       id="text2956"><tspan
         sodipodi:role="line"
         id="tspan2958"
         x="551.00092"
         y="2014.6149">acers</tspan></text>
    <text
       xml:space="preserve"
       style="font-size:40px;font-style:normal;font-weight:normal;writing-mode:lr-tb;fill:#000000;fill-opacity:1;stroke:none;font-family:Bitstream Vera Sans"
       x="1128.6099"
       y="2014.6086"
       id="text3047"><tspan
         sodipodi:role="line"
         id="tspan3049"
         x="1128.6099"
         y="2014.6086">foses</tspan></text>
    <path
       id="text3744"
       d="M 328.60082,1559.2241 L 349.70433,1559.2241 L 349.70433,1564.3129 L 321.32684,1564.3129 L 321.32684,1559.2241 C 323.62178,1556.8493 326.7449,1553.6663 330.6962,1549.6751 C 334.66744,1545.664 337.16194,1543.0797 338.17972,1541.9222 C 340.11543,1539.747 341.46246,1537.9111 342.22082,1536.4143 C 342.99907,1534.8977 343.38822,1533.411 343.38824,1531.9541 C 343.38822,1529.5794 342.55006,1527.6437 340.87378,1526.1469 C 339.21741,1524.6503 337.05218,1523.9019 334.37809,1523.9019 C 332.48225,1523.9019 330.47667,1524.2312 328.36134,1524.8897 C 326.26595,1525.5483 324.0209,1526.5461 321.62618,1527.8831 L 321.62618,1521.7766 C 324.06081,1520.7988 326.3358,1520.0604 328.45115,1519.5614 C 330.56647,1519.0626 332.50221,1518.8131 334.25835,1518.8131 C 338.88813,1518.8131 342.58,1519.9706 345.33396,1522.2854 C 348.08786,1524.6004 349.46483,1527.6936 349.46486,1531.565 C 349.46483,1533.401 349.1156,1535.1471 348.41717,1536.8035 C 347.73863,1538.4399 346.49138,1540.3756 344.67541,1542.6107 C 344.17648,1543.1894 342.58998,1544.8657 339.91589,1547.6396 C 337.24176,1550.3935 333.47007,1554.255 328.60082,1559.2241 M 375.35782,1523.6025 C 372.24466,1523.6026 369.89983,1525.1392 368.32332,1528.2124 C 366.76673,1531.2657 365.98845,1535.8656 365.98846,1542.012 C 365.98845,1548.1385 366.76673,1552.7384 368.32332,1555.8116 C 369.89983,1558.8649 372.24466,1560.3915 375.35782,1560.3915 C 378.4909,1560.3915 380.83573,1558.8649 382.39233,1555.8116 C 383.96882,1552.7384 384.75709,1548.1385 384.75712,1542.012 C 384.75709,1535.8656 383.96882,1531.2657 382.39233,1528.2124 C 380.83573,1525.1392 378.4909,1523.6026 375.35782,1523.6025 M 375.35782,1518.8131 C 380.36676,1518.8131 384.18834,1520.7988 386.82257,1524.77 C 389.47669,1528.7213 390.80376,1534.4686 390.8038,1542.012 C 390.80376,1549.5354 389.47669,1555.2828 386.82257,1559.254 C 384.18834,1563.2053 380.36676,1565.181 375.35782,1565.181 C 370.34884,1565.181 366.51728,1563.2053 363.86314,1559.254 C 361.22894,1555.2828 359.91184,1549.5354 359.91184,1542.012 C 359.91184,1534.4686 361.22894,1528.7213 363.86314,1524.77 C 366.51728,1520.7988 370.34884,1518.8131 375.35782,1518.8131 M 414.39184,1523.6025 C 411.27868,1523.6026 408.93385,1525.1392 407.35733,1528.2124 C 405.80075,1531.2657 405.02247,1535.8656 405.02248,1542.012 C 405.02247,1548.1385 405.80075,1552.7384 407.35733,1555.8116 C 408.93385,1558.8649 411.27868,1560.3915 414.39184,1560.3915 C 417.52491,1560.3915 419.86974,1558.8649 421.42634,1555.8116 C 423.00284,1552.7384 423.7911,1548.1385 423.79113,1542.012 C 423.7911,1535.8656 423.00284,1531.2657 421.42634,1528.2124 C 419.86974,1525.1392 417.52491,1523.6026 414.39184,1523.6025 M 414.39184,1518.8131 C 419.40078,1518.8131 423.22236,1520.7988 425.85658,1524.77 C 428.5107,1528.7213 429.83778,1534.4686 429.83781,1542.012 C 429.83778,1549.5354 428.5107,1555.2828 425.85658,1559.254 C 423.22236,1563.2053 419.40078,1565.181 414.39184,1565.181 C 409.38286,1565.181 405.5513,1563.2053 402.89716,1559.254 C 400.26295,1555.2828 398.94586,1549.5354 398.94586,1542.012 C 398.94586,1534.4686 400.26295,1528.7213 402.89716,1524.77 C 405.5513,1520.7988 409.38286,1518.8131 414.39184,1518.8131"
       style="font-size:61.30495834px;font-style:normal;font-weight:normal;fill:#000000;fill-opacity:1;stroke:none;stroke-width:1px;stroke-linecap:butt;stroke-linejoin:miter;stroke-opacity:1;display:inline;font-family:Bitstream Vera Sans"
       transform="scale(0.971069,1.029793)" />
    <path
       id="text3752"
       d="M 340.00569,1336.2902 L 324.73932,1360.1477 L 340.00569,1360.1477 L 340.00569,1336.2902 M 338.41919,1331.0218 L 346.02244,1331.0218 L 346.02244,1360.1477 L 352.3984,1360.1477 L 352.3984,1365.1766 L 346.02244,1365.1766 L 346.02244,1375.7134 L 340.00569,1375.7134 L 340.00569,1365.1766 L 319.83014,1365.1766 L 319.83014,1359.3394 L 338.41919,1331.0218 M 375.35782,1335.0031 C 372.24466,1335.0031 369.89983,1336.5397 368.32332,1339.6129 C 366.76673,1342.6662 365.98845,1347.2661 365.98846,1353.4125 C 365.98845,1359.539 366.76673,1364.1389 368.32332,1367.2121 C 369.89983,1370.2654 372.24466,1371.792 375.35782,1371.792 C 378.4909,1371.792 380.83573,1370.2654 382.39233,1367.2121 C 383.96882,1364.1389 384.75709,1359.539 384.75712,1353.4125 C 384.75709,1347.2661 383.96882,1342.6662 382.39233,1339.6129 C 380.83573,1336.5397 378.4909,1335.0031 375.35782,1335.0031 M 375.35782,1330.2136 C 380.36676,1330.2137 384.18834,1332.1993 386.82257,1336.1705 C 389.47669,1340.1218 390.80376,1345.8691 390.8038,1353.4125 C 390.80376,1360.9359 389.47669,1366.6833 386.82257,1370.6545 C 384.18834,1374.6058 380.36676,1376.5815 375.35782,1376.5815 C 370.34884,1376.5815 366.51728,1374.6058 363.86314,1370.6545 C 361.22894,1366.6833 359.91184,1360.9359 359.91184,1353.4125 C 359.91184,1345.8691 361.22894,1340.1218 363.86314,1336.1705 C 366.51728,1332.1993 370.34884,1330.2137 375.35782,1330.2136 M 414.39184,1335.0031 C 411.27868,1335.0031 408.93385,1336.5397 407.35733,1339.6129 C 405.80075,1342.6662 405.02247,1347.2661 405.02248,1353.4125 C 405.02247,1359.539 405.80075,1364.1389 407.35733,1367.2121 C 408.93385,1370.2654 411.27868,1371.792 414.39184,1371.792 C 417.52491,1371.792 419.86974,1370.2654 421.42634,1367.2121 C 423.00284,1364.1389 423.7911,1359.539 423.79113,1353.4125 C 423.7911,1347.2661 423.00284,1342.6662 421.42634,1339.6129 C 419.86974,1336.5397 417.52491,1335.0031 414.39184,1335.0031 M 414.39184,1330.2136 C 419.40078,1330.2137 423.22236,1332.1993 425.85658,1336.1705 C 428.5107,1340.1218 429.83778,1345.8691 429.83781,1353.4125 C 429.83778,1360.9359 428.5107,1366.6833 425.85658,1370.6545 C 423.22236,1374.6058 419.40078,1376.5815 414.39184,1376.5815 C 409.38286,1376.5815 405.5513,1374.6058 402.89716,1370.6545 C 400.26295,1366.6833 398.94586,1360.9359 398.94586,1353.4125 C 398.94586,1345.8691 400.26295,1340.1218 402.89716,1336.1705 C 405.5513,1332.1993 409.38286,1330.2137 414.39184,1330.2136"
       style="font-size:61.30495834px;font-style:normal;font-weight:normal;fill:#000000;fill-opacity:1;stroke:none;stroke-width:1px;stroke-linecap:butt;stroke-linejoin:miter;stroke-opacity:1;display:inline;font-family:Bitstream Vera Sans"
       transform="scale(0.971069,1.029793)" />
    <path
       id="text3756"
       d="M 337.07216,1166.0777 C 334.35812,1166.0777 332.20287,1167.0056 330.6064,1168.8615 C 329.02986,1170.7175 328.2416,1173.2619 328.24161,1176.4947 C 328.2416,1179.7076 329.02986,1182.252 330.6064,1184.1279 C 332.20287,1185.9838 334.35812,1186.9118 337.07216,1186.9118 C 339.78616,1186.9118 341.93143,1185.9838 343.50798,1184.1279 C 345.10443,1182.252 345.90268,1179.7076 345.9027,1176.4947 C 345.90268,1173.2619 345.10443,1170.7175 343.50798,1168.8615 C 341.93143,1167.0056 339.78616,1166.0777 337.07216,1166.0777 M 349.07572,1147.1294 L 349.07572,1152.6373 C 347.55903,1151.9189 346.02241,1151.3701 344.46587,1150.9909 C 342.92923,1150.6118 341.40259,1150.4222 339.88596,1150.4221 C 335.89473,1150.4222 332.84146,1151.7692 330.72614,1154.4632 C 328.63074,1157.1573 327.43338,1161.2284 327.13405,1166.6763 C 328.31144,1164.9402 329.78819,1163.6131 331.56429,1162.6951 C 333.34036,1161.7572 335.29605,1161.2882 337.43137,1161.2882 C 341.92145,1161.2882 345.46364,1162.6552 348.05796,1165.3892 C 350.67216,1168.1032 351.97928,1171.8051 351.97932,1176.4947 C 351.97928,1181.0846 350.62227,1184.7665 347.90829,1187.5404 C 345.19424,1190.3143 341.5822,1191.7012 337.07216,1191.7012 C 331.90353,1191.7012 327.95223,1189.7256 325.21827,1185.7743 C 322.48428,1181.803 321.1173,1176.0557 321.1173,1168.5323 C 321.1173,1161.4678 322.7936,1155.8402 326.14622,1151.6494 C 329.49883,1147.4388 333.99891,1145.3334 339.64649,1145.3334 C 341.16312,1145.3334 342.68976,1145.4831 344.2264,1145.7824 C 345.78294,1146.0818 347.39938,1146.5308 349.07572,1147.1294 M 375.35782,1150.1228 C 372.24466,1150.1228 369.89983,1151.6595 368.32332,1154.7327 C 366.76673,1157.786 365.98845,1162.3858 365.98846,1168.5323 C 365.98845,1174.6588 366.76673,1179.2586 368.32332,1182.3319 C 369.89983,1185.3851 372.24466,1186.9118 375.35782,1186.9118 C 378.4909,1186.9118 380.83573,1185.3851 382.39233,1182.3319 C 383.96882,1179.2586 384.75709,1174.6588 384.75712,1168.5323 C 384.75709,1162.3858 383.96882,1157.786 382.39233,1154.7327 C 380.83573,1151.6595 378.4909,1150.1228 375.35782,1150.1228 M 375.35782,1145.3334 C 380.36676,1145.3334 384.18834,1147.319 386.82257,1151.2902 C 389.47669,1155.2416 390.80376,1160.9889 390.8038,1168.5323 C 390.80376,1176.0557 389.47669,1181.803 386.82257,1185.7743 C 384.18834,1189.7256 380.36676,1191.7012 375.35782,1191.7012 C 370.34884,1191.7012 366.51728,1189.7256 363.86314,1185.7743 C 361.22894,1181.803 359.91184,1176.0557 359.91184,1168.5323 C 359.91184,1160.9889 361.22894,1155.2416 363.86314,1151.2902 C 366.51728,1147.319 370.34884,1145.3334 375.35782,1145.3334 M 414.39184,1150.1228 C 411.27868,1150.1228 408.93385,1151.6595 407.35733,1154.7327 C 405.80075,1157.786 405.02247,1162.3858 405.02248,1168.5323 C 405.02247,1174.6588 405.80075,1179.2586 407.35733,1182.3319 C 408.93385,1185.3851 411.27868,1186.9118 414.39184,1186.9118 C 417.52491,1186.9118 419.86974,1185.3851 421.42634,1182.3319 C 423.00284,1179.2586 423.7911,1174.6588 423.79113,1168.5323 C 423.7911,1162.3858 423.00284,1157.786 421.42634,1154.7327 C 419.86974,1151.6595 417.52491,1150.1228 414.39184,1150.1228 M 414.39184,1145.3334 C 419.40078,1145.3334 423.22236,1147.319 425.85658,1151.2902 C 428.5107,1155.2416 429.83778,1160.9889 429.83781,1168.5323 C 429.83778,1176.0557 428.5107,1181.803 425.85658,1185.7743 C 423.22236,1189.7256 419.40078,1191.7012 414.39184,1191.7012 C 409.38286,1191.7012 405.5513,1189.7256 402.89716,1185.7743 C 400.26295,1181.803 398.94586,1176.0557 398.94586,1168.5323 C 398.94586,1160.9889 400.26295,1155.2416 402.89716,1151.2902 C 405.5513,1147.319 409.38286,1145.3334 414.39184,1145.3334"
       style="font-size:61.30495834px;font-style:normal;font-weight:normal;fill:#000000;fill-opacity:1;stroke:none;stroke-width:1px;stroke-linecap:butt;stroke-linejoin:miter;stroke-opacity:1;display:inline;font-family:Bitstream Vera Sans"
       transform="scale(0.971069,1.029793)" />
    <path
       id="text3760"
       d="M 336.32381,978.6346 C 333.45012,978.63462 331.18511,979.40293 329.52877,980.93952 C 327.89237,982.47615 327.07417,984.59149 327.07418,987.28554 C 327.07417,989.97962 327.89237,992.09496 329.52877,993.63156 C 331.18511,995.16818 333.45012,995.93649 336.32381,995.93649 C 339.19745,995.93649 341.46246,995.16818 343.11884,993.63156 C 344.77516,992.075 345.60334,989.95966 345.60336,987.28554 C 345.60334,984.59149 344.77516,982.47615 343.11884,980.93952 C 341.48242,979.40293 339.21741,978.63462 336.32381,978.6346 M 330.27712,976.06027 C 327.68283,975.4217 325.65729,974.21436 324.20051,972.43825 C 322.76367,970.66219 322.04525,968.49696 322.04526,965.94256 C 322.04525,962.37046 323.31246,959.54669 325.84688,957.47122 C 328.40125,955.39583 331.89355,954.35812 336.32381,954.35808 C 340.77398,954.35812 344.26628,955.39583 346.80073,957.47122 C 349.33511,959.54669 350.60232,962.37046 350.60235,965.94256 C 350.60232,968.49696 349.87392,970.66219 348.41717,972.43825 C 346.9803,974.21436 344.97472,975.4217 342.40042,976.06027 C 345.31397,976.7388 347.57898,978.06587 349.19545,980.0415 C 350.83181,982.01717 351.65001,984.43184 351.65004,987.28554 C 351.65001,991.61601 350.32293,994.93869 347.66881,997.25359 C 345.03459,999.56849 341.25292,1000.7259 336.32381,1000.7259 C 331.39465,1000.7259 327.603,999.56849 324.94886,997.25359 C 322.31466,994.93869 320.99756,991.61601 320.99757,987.28554 C 320.99756,984.43184 321.81576,982.01717 323.45216,980.0415 C 325.08855,978.06587 327.36353,976.7388 330.27712,976.06027 M 328.062,966.5113 C 328.06199,968.82624 328.78041,970.63226 330.21726,971.92937 C 331.67403,973.22654 333.70955,973.87511 336.32381,973.87508 C 338.91807,973.87511 340.9436,973.22654 342.40042,971.92937 C 343.87714,970.63226 344.61551,968.82624 344.61554,966.5113 C 344.61551,964.19644 343.87714,962.39042 342.40042,961.09324 C 340.9436,959.79614 338.91807,959.14757 336.32381,959.14753 C 333.70955,959.14757 331.67403,959.79614 330.21726,961.09324 C 328.78041,962.39042 328.06199,964.19644 328.062,966.5113 M 375.35782,959.14753 C 372.24466,959.14757 369.89983,960.68418 368.32332,963.75737 C 366.76673,966.81068 365.98845,971.41054 365.98846,977.55697 C 365.98845,983.68349 366.76673,988.28336 368.32332,991.35658 C 369.89983,994.40986 372.24466,995.93649 375.35782,995.93649 C 378.4909,995.93649 380.83573,994.40986 382.39233,991.35658 C 383.96882,988.28336 384.75709,983.68349 384.75712,977.55697 C 384.75709,971.41054 383.96882,966.81068 382.39233,963.75737 C 380.83573,960.68418 378.4909,959.14757 375.35782,959.14753 M 375.35782,954.35808 C 380.36676,954.35812 384.18834,956.34374 386.82257,960.31495 C 389.47669,964.26629 390.80376,970.01362 390.8038,977.55697 C 390.80376,985.08042 389.47669,990.82775 386.82257,994.79899 C 384.18834,998.75029 380.36676,1000.7259 375.35782,1000.7259 C 370.34884,1000.7259 366.51728,998.75029 363.86314,994.79899 C 361.22894,990.82775 359.91184,985.08042 359.91184,977.55697 C 359.91184,970.01362 361.22894,964.26629 363.86314,960.31495 C 366.51728,956.34374 370.34884,954.35812 375.35782,954.35808 M 414.39184,959.14753 C 411.27868,959.14757 408.93385,960.68418 407.35733,963.75737 C 405.80075,966.81068 405.02247,971.41054 405.02248,977.55697 C 405.02247,983.68349 405.80075,988.28336 407.35733,991.35658 C 408.93385,994.40986 411.27868,995.93649 414.39184,995.93649 C 417.52491,995.93649 419.86974,994.40986 421.42634,991.35658 C 423.00284,988.28336 423.7911,983.68349 423.79113,977.55697 C 423.7911,971.41054 423.00284,966.81068 421.42634,963.75737 C 419.86974,960.68418 417.52491,959.14757 414.39184,959.14753 M 414.39184,954.35808 C 419.40078,954.35812 423.22236,956.34374 425.85658,960.31495 C 428.5107,964.26629 429.83778,970.01362 429.83781,977.55697 C 429.83778,985.08042 428.5107,990.82775 425.85658,994.79899 C 423.22236,998.75029 419.40078,1000.7259 414.39184,1000.7259 C 409.38286,1000.7259 405.5513,998.75029 402.89716,994.79899 C 400.26295,990.82775 398.94586,985.08042 398.94586,977.55697 C 398.94586,970.01362 400.26295,964.26629 402.89716,960.31495 C 405.5513,956.34374 409.38286,954.35812 414.39184,954.35808"
       style="font-size:61.30495834px;font-style:normal;font-weight:normal;fill:#000000;fill-opacity:1;stroke:none;stroke-width:1px;stroke-linecap:butt;stroke-linejoin:miter;stroke-opacity:1;display:inline;font-family:Bitstream Vera Sans"
       transform="scale(0.971069,1.029793)" />
    <path
       id="text3764"
       d="M 285.40596,807.85713 L 295.2842,807.85713 L 295.2842,773.76224 L 284.53787,775.91749 L 284.53787,770.40962 L 295.22433,768.25437 L 301.27101,768.25437 L 301.27101,807.85713 L 311.14925,807.85713 L 311.14925,812.94592 L 285.40596,812.94592 L 285.40596,807.85713 M 336.32379,772.2356 C 333.21063,772.23564 330.8658,773.77225 329.28929,776.84544 C 327.73271,779.89875 326.95442,784.49861 326.95443,790.64505 C 326.95442,796.77157 327.73271,801.37143 329.28929,804.44465 C 330.8658,807.49793 333.21063,809.02456 336.32379,809.02456 C 339.45687,809.02456 341.8017,807.49793 343.3583,804.44465 C 344.9348,801.37143 345.72306,796.77157 345.72309,790.64505 C 345.72306,784.49861 344.9348,779.89875 343.3583,776.84544 C 341.8017,773.77225 339.45687,772.23564 336.32379,772.2356 M 336.32379,767.44615 C 341.33274,767.44619 345.15431,769.43182 347.78854,773.40303 C 350.44266,777.35436 351.76973,783.10169 351.76977,790.64505 C 351.76973,798.16849 350.44266,803.91582 347.78854,807.88707 C 345.15431,811.83836 341.33274,813.81401 336.32379,813.81401 C 331.31481,813.81401 327.48326,811.83836 324.82911,807.88707 C 322.19491,803.91582 320.87781,798.16849 320.87782,790.64505 C 320.87781,783.10169 322.19491,777.35436 324.82911,773.40303 C 327.48326,769.43182 331.31481,767.44619 336.32379,767.44615 M 375.35781,772.2356 C 372.24465,772.23564 369.89982,773.77225 368.3233,776.84544 C 366.76672,779.89875 365.98844,784.49861 365.98845,790.64505 C 365.98844,796.77157 366.76672,801.37143 368.3233,804.44465 C 369.89982,807.49793 372.24465,809.02456 375.35781,809.02456 C 378.49089,809.02456 380.83572,807.49793 382.39231,804.44465 C 383.96881,801.37143 384.75708,796.77157 384.7571,790.64505 C 384.75708,784.49861 383.96881,779.89875 382.39231,776.84544 C 380.83572,773.77225 378.49089,772.23564 375.35781,772.2356 M 375.35781,767.44615 C 380.36675,767.44619 384.18833,769.43182 386.82255,773.40303 C 389.47667,777.35436 390.80375,783.10169 390.80379,790.64505 C 390.80375,798.16849 389.47667,803.91582 386.82255,807.88707 C 384.18833,811.83836 380.36675,813.81401 375.35781,813.81401 C 370.34883,813.81401 366.51727,811.83836 363.86313,807.88707 C 361.22893,803.91582 359.91183,798.16849 359.91183,790.64505 C 359.91183,783.10169 361.22893,777.35436 363.86313,773.40303 C 366.51727,769.43182 370.34883,767.44619 375.35781,767.44615 M 414.39183,772.2356 C 411.27867,772.23564 408.93384,773.77225 407.35732,776.84544 C 405.80074,779.89875 405.02246,784.49861 405.02247,790.64505 C 405.02246,796.77157 405.80074,801.37143 407.35732,804.44465 C 408.93384,807.49793 411.27867,809.02456 414.39183,809.02456 C 417.5249,809.02456 419.86974,807.49793 421.42633,804.44465 C 423.00283,801.37143 423.7911,796.77157 423.79112,790.64505 C 423.7911,784.49861 423.00283,779.89875 421.42633,776.84544 C 419.86974,773.77225 417.5249,772.23564 414.39183,772.2356 M 414.39183,767.44615 C 419.40077,767.44619 423.22235,769.43182 425.85657,773.40303 C 428.51069,777.35436 429.83777,783.10169 429.8378,790.64505 C 429.83777,798.16849 428.51069,803.91582 425.85657,807.88707 C 423.22235,811.83836 419.40077,813.81401 414.39183,813.81401 C 409.38285,813.81401 405.55129,811.83836 402.89715,807.88707 C 400.26295,803.91582 398.94585,798.16849 398.94585,790.64505 C 398.94585,783.10169 400.26295,777.35436 402.89715,773.40303 C 405.55129,769.43182 409.38285,767.44619 414.39183,767.44615"
       style="font-size:61.30495834px;font-style:normal;font-weight:normal;fill:#000000;fill-opacity:1;stroke:none;stroke-width:1px;stroke-linecap:butt;stroke-linejoin:miter;stroke-opacity:1;display:inline;font-family:Bitstream Vera Sans"
       transform="scale(0.971069,1.029793)" />
    <path
       id="text3768"
       d="M 285.40596,618.91359 L 295.2842,618.91359 L 295.2842,584.81869 L 284.53787,586.97395 L 284.53787,581.46608 L 295.22433,579.31083 L 301.27101,579.31083 L 301.27101,618.91359 L 311.14925,618.91359 L 311.14925,624.00238 L 285.40596,624.00238 L 285.40596,618.91359 M 328.60081,618.91359 L 349.70432,618.91359 L 349.70432,624.00238 L 321.32683,624.00238 L 321.32683,618.91359 C 323.62177,616.53883 326.74488,613.35584 330.69619,609.36462 C 334.66742,605.35348 337.16193,602.76917 338.17971,601.6117 C 340.11542,599.43652 341.46245,597.60056 342.2208,596.10383 C 342.99906,594.58721 343.38821,593.10048 343.38823,591.64366 C 343.38821,589.26893 342.55005,587.33319 340.87377,585.83645 C 339.2174,584.33979 337.05217,583.59144 334.37808,583.5914 C 332.48224,583.59144 330.47666,583.92071 328.36133,584.57922 C 326.26594,585.23781 324.02089,586.23561 321.62617,587.57263 L 321.62617,581.46608 C 324.0608,580.48828 326.33579,579.7499 328.45114,579.25096 C 330.56646,578.7521 332.5022,578.50265 334.25834,578.50261 C 338.88812,578.50265 342.57999,579.6601 345.33395,581.97496 C 348.08785,584.2899 349.46481,587.38308 349.46485,591.25452 C 349.46481,593.0905 349.11558,594.83666 348.41715,596.49298 C 347.73862,598.1294 346.49137,600.06513 344.6754,602.30019 C 344.17647,602.87893 342.58996,604.55524 339.91588,607.32911 C 337.24175,610.08306 333.47006,613.94455 328.60081,618.91359 M 375.35781,583.29206 C 372.24465,583.2921 369.89982,584.82871 368.3233,587.9019 C 366.76672,590.95521 365.98844,595.55507 365.98845,601.7015 C 365.98844,607.82803 366.76672,612.42789 368.3233,615.50111 C 369.89982,618.55439 372.24465,620.08102 375.35781,620.08102 C 378.49089,620.08102 380.83572,618.55439 382.39231,615.50111 C 383.96881,612.42789 384.75708,607.82803 384.7571,601.7015 C 384.75708,595.55507 383.96881,590.95521 382.39231,587.9019 C 380.83572,584.82871 378.49089,583.2921 375.35781,583.29206 M 375.35781,578.50261 C 380.36675,578.50265 384.18833,580.48828 386.82255,584.45948 C 389.47667,588.41082 390.80375,594.15815 390.80379,601.7015 C 390.80375,609.22495 389.47667,614.97228 386.82255,618.94352 C 384.18833,622.89482 380.36675,624.87047 375.35781,624.87047 C 370.34883,624.87047 366.51727,622.89482 363.86313,618.94352 C 361.22893,614.97228 359.91183,609.22495 359.91183,601.7015 C 359.91183,594.15815 361.22893,588.41082 363.86313,584.45948 C 366.51727,580.48828 370.34883,578.50265 375.35781,578.50261 M 414.39183,583.29206 C 411.27867,583.2921 408.93384,584.82871 407.35732,587.9019 C 405.80074,590.95521 405.02246,595.55507 405.02247,601.7015 C 405.02246,607.82803 405.80074,612.42789 407.35732,615.50111 C 408.93384,618.55439 411.27867,620.08102 414.39183,620.08102 C 417.5249,620.08102 419.86974,618.55439 421.42633,615.50111 C 423.00283,612.42789 423.7911,607.82803 423.79112,601.7015 C 423.7911,595.55507 423.00283,590.95521 421.42633,587.9019 C 419.86974,584.82871 417.5249,583.2921 414.39183,583.29206 M 414.39183,578.50261 C 419.40077,578.50265 423.22235,580.48828 425.85657,584.45948 C 428.51069,588.41082 429.83777,594.15815 429.8378,601.7015 C 429.83777,609.22495 428.51069,614.97228 425.85657,618.94352 C 423.22235,622.89482 419.40077,624.87047 414.39183,624.87047 C 409.38285,624.87047 405.55129,622.89482 402.89715,618.94352 C 400.26295,614.97228 398.94585,609.22495 398.94585,601.7015 C 398.94585,594.15815 400.26295,588.41082 402.89715,584.45948 C 405.55129,580.48828 409.38285,578.50265 414.39183,578.50261"
       style="font-size:61.30495834px;font-style:normal;font-weight:normal;fill:#000000;fill-opacity:1;stroke:none;stroke-width:1px;stroke-linecap:butt;stroke-linejoin:miter;stroke-opacity:1;display:inline;font-family:Bitstream Vera Sans"
       transform="scale(0.971069,1.029793)" />
    <path
       id="text3772"
       d="M 285.40596,438.0966 L 295.2842,438.0966 L 295.2842,404.00171 L 284.53787,406.15696 L 284.53787,400.64909 L 295.22433,398.49384 L 301.27101,398.49384 L 301.27101,438.0966 L 311.14925,438.0966 L 311.14925,443.18539 L 285.40596,443.18539 L 285.40596,438.0966 M 340.00568,403.76224 L 324.73931,427.61968 L 340.00568,427.61968 L 340.00568,403.76224 M 338.41918,398.49384 L 346.02243,398.49384 L 346.02243,427.61968 L 352.39838,427.61968 L 352.39838,432.6486 L 346.02243,432.6486 L 346.02243,443.18539 L 340.00568,443.18539 L 340.00568,432.6486 L 319.83013,432.6486 L 319.83013,426.81146 L 338.41918,398.49384 M 375.35781,402.47507 C 372.24465,402.47511 369.89982,404.01172 368.3233,407.08492 C 366.76672,410.13822 365.98844,414.73809 365.98845,420.88452 C 365.98844,427.01104 366.76672,431.6109 368.3233,434.68412 C 369.89982,437.7374 372.24465,439.26404 375.35781,439.26403 C 378.49089,439.26404 380.83572,437.7374 382.39231,434.68412 C 383.96881,431.6109 384.75708,427.01104 384.7571,420.88452 C 384.75708,414.73809 383.96881,410.13822 382.39231,407.08492 C 380.83572,404.01172 378.49089,402.47511 375.35781,402.47507 M 375.35781,397.68562 C 380.36675,397.68567 384.18833,399.67129 386.82255,403.6425 C 389.47667,407.59383 390.80375,413.34116 390.80379,420.88452 C 390.80375,428.40796 389.47667,434.15529 386.82255,438.12654 C 384.18833,442.07784 380.36675,444.05348 375.35781,444.05348 C 370.34883,444.05348 366.51727,442.07784 363.86313,438.12654 C 361.22893,434.15529 359.91183,428.40796 359.91183,420.88452 C 359.91183,413.34116 361.22893,407.59383 363.86313,403.6425 C 366.51727,399.67129 370.34883,397.68567 375.35781,397.68562 M 414.39183,402.47507 C 411.27867,402.47511 408.93384,404.01172 407.35732,407.08492 C 405.80074,410.13822 405.02246,414.73809 405.02247,420.88452 C 405.02246,427.01104 405.80074,431.6109 407.35732,434.68412 C 408.93384,437.7374 411.27867,439.26404 414.39183,439.26403 C 417.5249,439.26404 419.86974,437.7374 421.42633,434.68412 C 423.00283,431.6109 423.7911,427.01104 423.79112,420.88452 C 423.7911,414.73809 423.00283,410.13822 421.42633,407.08492 C 419.86974,404.01172 417.5249,402.47511 414.39183,402.47507 M 414.39183,397.68562 C 419.40077,397.68567 423.22235,399.67129 425.85657,403.6425 C 428.51069,407.59383 429.83777,413.34116 429.8378,420.88452 C 429.83777,428.40796 428.51069,434.15529 425.85657,438.12654 C 423.22235,442.07784 419.40077,444.05348 414.39183,444.05348 C 409.38285,444.05348 405.55129,442.07784 402.89715,438.12654 C 400.26295,434.15529 398.94585,428.40796 398.94585,420.88452 C 398.94585,413.34116 400.26295,407.59383 402.89715,403.6425 C 405.55129,399.67129 409.38285,397.68567 414.39183,397.68562"
       style="font-size:61.30495834px;font-style:normal;font-weight:normal;fill:#000000;fill-opacity:1;stroke:none;stroke-width:1px;stroke-linecap:butt;stroke-linejoin:miter;stroke-opacity:1;display:inline;font-family:Bitstream Vera Sans"
       transform="scale(0.971069,1.029793)" />
    <path
       id="text3776"
       d="M 285.40596,243.05809 L 295.2842,243.05809 L 295.2842,208.96319 L 284.53787,211.11845 L 284.53787,205.61058 L 295.22433,203.45533 L 301.27101,203.45533 L 301.27101,243.05809 L 311.14925,243.05809 L 311.14925,248.14688 L 285.40596,248.14688 L 285.40596,243.05809 M 337.07215,223.39141 C 334.35811,223.39144 332.20286,224.31939 330.60639,226.17528 C 329.02985,228.03121 328.24159,230.5756 328.2416,233.80847 C 328.24159,237.0214 329.02985,239.56579 330.60639,241.44165 C 332.20286,243.29757 334.35811,244.22552 337.07215,244.22552 C 339.78614,244.22552 341.93142,243.29757 343.50797,241.44165 C 345.10442,239.56579 345.90266,237.0214 345.90269,233.80847 C 345.90266,230.5756 345.10442,228.03121 343.50797,226.17528 C 341.93142,224.31939 339.78614,223.39144 337.07215,223.39141 M 349.0757,204.44315 L 349.0757,209.95102 C 347.55901,209.23264 346.0224,208.68385 344.46586,208.30464 C 342.92922,207.92552 341.40258,207.73594 339.88595,207.7359 C 335.89472,207.73594 332.84145,209.08297 330.72612,211.777 C 328.63073,214.4711 327.43337,218.54212 327.13404,223.99009 C 328.31143,222.25394 329.78818,220.92687 331.56428,220.00886 C 333.34035,219.07096 335.29604,218.60199 337.43135,218.60196 C 341.92144,218.60199 345.46363,219.96898 348.05795,222.70293 C 350.67215,225.41697 351.97927,229.11881 351.97931,233.80847 C 351.97927,238.39836 350.62226,242.08025 347.90828,244.85413 C 345.19423,247.62802 341.58219,249.01497 337.07215,249.01497 C 331.90352,249.01497 327.95222,247.03932 325.21826,243.08802 C 322.48427,239.11678 321.11729,233.36945 321.11729,225.84601 C 321.11729,218.7816 322.79359,213.154 326.14621,208.96319 C 329.49881,204.75251 333.9989,202.64715 339.64647,202.64711 C 341.16311,202.64715 342.68974,202.79682 344.22639,203.09612 C 345.78293,203.3955 347.39937,203.84451 349.0757,204.44315 M 375.35781,207.43656 C 372.24465,207.4366 369.89982,208.97321 368.3233,212.0464 C 366.76672,215.09971 365.98844,219.69957 365.98845,225.84601 C 365.98844,231.97253 366.76672,236.57239 368.3233,239.64561 C 369.89982,242.69889 372.24465,244.22552 375.35781,244.22552 C 378.49089,244.22552 380.83572,242.69889 382.39231,239.64561 C 383.96881,236.57239 384.75708,231.97253 384.7571,225.84601 C 384.75708,219.69957 383.96881,215.09971 382.39231,212.0464 C 380.83572,208.97321 378.49089,207.4366 375.35781,207.43656 M 375.35781,202.64711 C 380.36675,202.64715 384.18833,204.63278 386.82255,208.60399 C 389.47667,212.55532 390.80375,218.30265 390.80379,225.84601 C 390.80375,233.36945 389.47667,239.11678 386.82255,243.08802 C 384.18833,247.03932 380.36675,249.01497 375.35781,249.01497 C 370.34883,249.01497 366.51727,247.03932 363.86313,243.08802 C 361.22893,239.11678 359.91183,233.36945 359.91183,225.84601 C 359.91183,218.30265 361.22893,212.55532 363.86313,208.60399 C 366.51727,204.63278 370.34883,202.64715 375.35781,202.64711 M 414.39183,207.43656 C 411.27867,207.4366 408.93384,208.97321 407.35732,212.0464 C 405.80074,215.09971 405.02246,219.69957 405.02247,225.84601 C 405.02246,231.97253 405.80074,236.57239 407.35732,239.64561 C 408.93384,242.69889 411.27867,244.22552 414.39183,244.22552 C 417.5249,244.22552 419.86974,242.69889 421.42633,239.64561 C 423.00283,236.57239 423.7911,231.97253 423.79112,225.84601 C 423.7911,219.69957 423.00283,215.09971 421.42633,212.0464 C 419.86974,208.97321 417.5249,207.4366 414.39183,207.43656 M 414.39183,202.64711 C 419.40077,202.64715 423.22235,204.63278 425.85657,208.60399 C 428.51069,212.55532 429.83777,218.30265 429.8378,225.84601 C 429.83777,233.36945 428.51069,239.11678 425.85657,243.08802 C 423.22235,247.03932 419.40077,249.01497 414.39183,249.01497 C 409.38285,249.01497 405.55129,247.03932 402.89715,243.08802 C 400.26295,239.11678 398.94585,233.36945 398.94585,225.84601 C 398.94585,218.30265 400.26295,212.55532 402.89715,208.60399 C 405.55129,204.63278 409.38285,202.64715 414.39183,202.64711"
       style="font-size:61.30495834px;font-style:normal;font-weight:normal;fill:#000000;fill-opacity:1;stroke:none;stroke-width:1px;stroke-linecap:butt;stroke-linejoin:miter;stroke-opacity:1;display:inline;font-family:Bitstream Vera Sans"
       transform="scale(0.971069,1.029793)" />
    <path
       id="text3790"
       d="M 820.79546,1822.2773 L 841.89897,1822.2773 L 841.89897,1827.3661 L 813.52148,1827.3661 L 813.52148,1822.2773 C 815.81642,1819.9025 818.93954,1816.7196 822.89084,1812.7283 C 826.86208,1808.7172 829.35658,1806.1329 830.37436,1804.9754 C 832.31007,1802.8002 833.6571,1800.9643 834.41546,1799.4675 C 835.19372,1797.9509 835.58286,1796.4642 835.58288,1795.0074 C 835.58286,1792.6326 834.74471,1790.6969 833.06842,1789.2002 C 831.41205,1787.7035 829.24682,1786.9551 826.57273,1786.9551 C 824.67689,1786.9551 822.67131,1787.2844 820.55599,1787.9429 C 818.46059,1788.6015 816.21554,1789.5993 813.82082,1790.9363 L 813.82082,1784.8298 C 816.25545,1783.852 818.53044,1783.1136 820.64579,1782.6147 C 822.76111,1782.1158 824.69685,1781.8664 826.453,1781.8663 C 831.08278,1781.8664 834.77464,1783.0238 837.5286,1785.3387 C 840.2825,1787.6536 841.65947,1790.7468 841.6595,1794.6182 C 841.65947,1796.4542 841.31024,1798.2004 840.61181,1799.8567 C 839.93327,1801.4931 838.68602,1803.4288 836.87005,1805.6639 C 836.37112,1806.2426 834.78462,1807.9189 832.11053,1810.6928 C 829.4364,1813.4468 825.66472,1817.3083 820.79546,1822.2773"
       style="font-size:61.30495834px;font-style:normal;font-weight:normal;fill:#000000;fill-opacity:1;stroke:none;stroke-width:1px;stroke-linecap:butt;stroke-linejoin:miter;stroke-opacity:1;display:inline;font-family:Bitstream Vera Sans"
       transform="scale(0.971069,1.029793)" />
    <path
       id="text3794"
       d="M 1194.95,1787.4789 L 1179.6836,1811.3364 L 1194.95,1811.3364 L 1194.95,1787.4789 M 1193.3635,1782.2105 L 1200.9667,1782.2105 L 1200.9667,1811.3364 L 1207.3427,1811.3364 L 1207.3427,1816.3653 L 1200.9667,1816.3653 L 1200.9667,1826.9021 L 1194.95,1826.9021 L 1194.95,1816.3653 L 1174.7744,1816.3653 L 1174.7744,1810.5282 L 1193.3635,1782.2105"
       style="font-size:61.30495834px;font-style:normal;font-weight:normal;fill:#000000;fill-opacity:1;stroke:none;stroke-width:1px;stroke-linecap:butt;stroke-linejoin:miter;stroke-opacity:1;display:inline;font-family:Bitstream Vera Sans"
       transform="scale(0.971069,1.029793)" />
    <path
       id="text3798"
       d="M 1541.331,1802.1016 C 1538.617,1802.1016 1536.4617,1803.0296 1534.8652,1804.8855 C 1533.2887,1806.7414 1532.5004,1809.2858 1532.5005,1812.5186 C 1532.5004,1815.7316 1533.2887,1818.276 1534.8652,1820.1518 C 1536.4617,1822.0077 1538.617,1822.9357 1541.331,1822.9357 C 1544.045,1822.9357 1546.1903,1822.0077 1547.7668,1820.1518 C 1549.3633,1818.276 1550.1615,1815.7316 1550.1616,1812.5186 C 1550.1615,1809.2858 1549.3633,1806.7414 1547.7668,1804.8855 C 1546.1903,1803.0296 1544.045,1802.1016 1541.331,1802.1016 M 1553.3346,1783.1533 L 1553.3346,1788.6612 C 1551.8179,1787.9428 1550.2813,1787.394 1548.7247,1787.0148 C 1547.1881,1786.6357 1545.6614,1786.4461 1544.1448,1786.4461 C 1540.1536,1786.4461 1537.1003,1787.7931 1534.985,1790.4872 C 1532.8896,1793.1813 1531.6922,1797.2523 1531.3929,1802.7003 C 1532.5703,1800.9641 1534.047,1799.637 1535.8231,1798.719 C 1537.5992,1797.7811 1539.5549,1797.3122 1541.6902,1797.3121 C 1546.1803,1797.3122 1549.7225,1798.6792 1552.3168,1801.4131 C 1554.931,1804.1271 1556.2381,1807.829 1556.2382,1812.5186 C 1556.2381,1817.1085 1554.8811,1820.7904 1552.1671,1823.5643 C 1549.4531,1826.3382 1545.841,1827.7251 1541.331,1827.7251 C 1536.1624,1827.7251 1532.2111,1825.7495 1529.4771,1821.7982 C 1526.7431,1817.827 1525.3761,1812.0796 1525.3762,1804.5562 C 1525.3761,1797.4918 1527.0525,1791.8642 1530.4051,1787.6734 C 1533.7577,1783.4627 1538.2578,1781.3573 1543.9053,1781.3573 C 1545.422,1781.3573 1546.9486,1781.507 1548.4852,1781.8063 C 1550.0418,1782.1057 1551.6582,1782.5547 1553.3346,1783.1533"
       style="font-size:61.30495834px;font-style:normal;font-weight:normal;fill:#000000;fill-opacity:1;stroke:none;stroke-width:1px;stroke-linecap:butt;stroke-linejoin:miter;stroke-opacity:1;display:inline;font-family:Bitstream Vera Sans"
       transform="scale(0.971069,1.029793)" />
    <path
       id="text3804"
       d="M 442.07527,1786.1769 C 438.96211,1786.1769 436.61728,1787.7135 435.04077,1790.7867 C 433.48418,1793.84 432.7059,1798.4399 432.70591,1804.5863 C 432.7059,1810.7129 433.48418,1815.3127 435.04077,1818.3859 C 436.61728,1821.4392 438.96211,1822.9658 442.07527,1822.9658 C 445.20835,1822.9658 447.55318,1821.4392 449.10977,1818.3859 C 450.68627,1815.3127 451.47454,1810.7129 451.47457,1804.5863 C 451.47454,1798.4399 450.68627,1793.84 449.10977,1790.7867 C 447.55318,1787.7135 445.20835,1786.1769 442.07527,1786.1769 M 442.07527,1781.3874 C 447.08421,1781.3875 450.90579,1783.3731 453.54002,1787.3443 C 456.19414,1791.2956 457.52121,1797.043 457.52125,1804.5863 C 457.52121,1812.1098 456.19414,1817.8571 453.54002,1821.8284 C 450.90579,1825.7796 447.08421,1827.7553 442.07527,1827.7553 C 437.06629,1827.7553 433.23473,1825.7796 430.58059,1821.8284 C 427.94639,1817.8571 426.62929,1812.1098 426.62929,1804.5863 C 426.62929,1797.043 427.94639,1791.2956 430.58059,1787.3443 C 433.23473,1783.3731 437.06629,1781.3875 442.07527,1781.3874"
       style="font-size:61.30495834px;font-style:normal;font-weight:normal;fill:#000000;fill-opacity:1;stroke:none;stroke-width:1px;stroke-linecap:butt;stroke-linejoin:miter;stroke-opacity:1;display:inline;font-family:Bitstream Vera Sans"
       transform="scale(0.971069,1.029793)" />
    <g
       transform="matrix(2.1606556,0,0,1.2639943,2.9575957,1747.5293)"
       id="g3488">
      <path
         style="fill:none;stroke:#000000;stroke-width:1.36638069px;stroke-linecap:butt;stroke-linejoin:miter;stroke-opacity:1;marker-end:none;display:inline"
         d="m 282.48229,106.36774 0,-58.999997"
         id="path3490" />
      <path
         id="path3492"
         style="fill:#000000;fill-opacity:1;fill-rule:evenodd;stroke:#000000;stroke-width:1.36637533px;stroke-linecap:butt;stroke-linejoin:round;stroke-opacity:1;display:inline"
         d="m 282.52826,52.243995 -4.2948,2.66902 4.24883,-18.716 4.24883,18.716 -4.20286,-2.66902 z"
         sodipodi:nodetypes="ccccc" />
    </g>
    <g
       id="g3571"
       style="display:inline">
      <path
         style="fill:none;fill-opacity:0.75;fill-rule:evenodd;stroke:#000000;stroke-width:2.25806808px;stroke-linecap:butt;stroke-linejoin:miter;marker-end:none;stroke-opacity:1;display:inline"
         d="M 534.46475,476.51943 L 497.76305,389.66808"
         id="path3514"
         sodipodi:nodetypes="cc" />
      <path
         id="path3516"
         style="fill:#000000;fill-opacity:1;fill-rule:evenodd;stroke:#000000;stroke-width:2.25805926px;stroke-linecap:butt;stroke-linejoin:round;stroke-opacity:1;display:inline"
         d="M 502.42162,400.19074 L 496.40426,409.65509 L 487.29985,365.47199 L 513.25658,402.36758 L 502.42162,400.19074 z "
         sodipodi:nodetypes="ccccc" />
    </g>
    <g
       id="g3562"
       style="display:inline">
      <path
         style="fill:none;fill-opacity:0.75;fill-rule:evenodd;stroke:#000000;stroke-width:2.25806546px;stroke-linecap:butt;stroke-linejoin:miter;marker-end:none;stroke-opacity:1;display:inline"
         d="M 569.76881,236.58678 L 510.37709,315.17318"
         id="path3522"
         sodipodi:nodetypes="cc" />
      <path
         id="path3524"
         style="fill:#000000;fill-opacity:1;fill-rule:evenodd;stroke:#000000;stroke-width:2.25805664px;stroke-linecap:butt;stroke-linejoin:round;stroke-opacity:1;display:inline"
         d="M 517.14604,305.86673 L 528.35181,306.32808 L 494.68764,336.35736 L 513.59728,295.40055 L 517.14604,305.86673 z "
         sodipodi:nodetypes="ccccc" />
    </g>
    <g
       id="g3589"
       style="display:inline">
      <path
         style="fill:none;fill-opacity:0.75;fill-rule:evenodd;stroke:#000000;stroke-width:2.25806713px;stroke-linecap:butt;stroke-linejoin:miter;marker-end:none;stroke-opacity:1;display:inline"
         d="M 226.64391,1116.3824 L 448.11628,1085.6778"
         id="path3530"
         sodipodi:nodetypes="cc" />
      <path
         id="path3532"
         style="fill:#000000;fill-opacity:1;fill-rule:evenodd;stroke:#000000;stroke-width:2.25805831px;stroke-linecap:butt;stroke-linejoin:round;stroke-opacity:1;display:inline"
         d="M 436.73535,1087.3816 L 429.20377,1079.0715 L 474.21993,1082 L 431.76534,1097.2525 L 436.73535,1087.3816 z "
         sodipodi:nodetypes="ccccc" />
    </g>
    <g
       id="g3580"
       style="display:inline">
      <path
         style="fill:none;fill-opacity:0.75;fill-rule:evenodd;stroke:#000000;stroke-width:2.25806999px;stroke-linecap:butt;stroke-linejoin:miter;marker-end:none;stroke-opacity:1;display:inline"
         d="M 227.11567,912.30882 L 451.86594,974.86307"
         id="path3538"
         sodipodi:nodetypes="cc" />
      <path
         id="path3540"
         style="fill:#000000;fill-opacity:1;fill-rule:evenodd;stroke:#000000;stroke-width:2.25806093px;stroke-linecap:butt;stroke-linejoin:round;stroke-opacity:1;display:inline"
         d="M 440.66998,972.20236 L 436.77828,961.68394 L 477.45959,981.17927 L 432.37911,979.50966 L 440.66998,972.20236 z "
         sodipodi:nodetypes="ccccc" />
    </g>
    <path
       sodipodi:nodetypes="cc"
       id="path3546"
       d="M 227.38053,330.24317 L 444.01555,353.67275"
       style="fill:none;fill-opacity:0.75;fill-rule:evenodd;stroke:#000000;stroke-width:2.25806499px;stroke-linecap:butt;stroke-linejoin:miter;marker-end:none;stroke-opacity:1;display:inline" />
    <path
       sodipodi:nodetypes="ccccc"
       d="M 432.54245,352.7806 L 427.06654,342.99303 L 470.27904,355.9432 L 425.4852,361.28531 L 432.54245,352.7806 z "
       style="fill:#000000;fill-opacity:1;fill-rule:evenodd;stroke:#000000;stroke-width:2.25805616px;stroke-linecap:butt;stroke-linejoin:round;stroke-opacity:1;display:inline"
       id="path3548" />
    <g
       id="g3482">
      <path
         id="path2601"
         style="fill:#000000;fill-opacity:1;fill-rule:evenodd;stroke:#000000;stroke-width:3.54414177px;stroke-linecap:butt;stroke-linejoin:round;stroke-opacity:1;display:inline"
         d="M 1688.0937,1780.9067 L 1678.6343,1765.6853 L 1744.9667,1780.7438 L 1678.6343,1795.8023 L 1688.0937,1780.9067 z "
         sodipodi:nodetypes="ccccc" />
      <path
         style="fill:none;fill-opacity:0.75;fill-rule:evenodd;stroke:#000000;stroke-width:8.73684502;stroke-linecap:butt;stroke-linejoin:miter;marker-end:none;stroke-miterlimit:4;stroke-dasharray:none;stroke-opacity:1;display:inline"
         d="M 459.95077,1780.4167 L 1696.3727,1780.3852"
         id="path1364"
         sodipodi:nodetypes="cc" />
    </g>
    <g
       id="g3477">
      <path
         id="path2592"
         style="fill:#000000;fill-opacity:1;fill-rule:evenodd;stroke:#000000;stroke-width:3.54414177px;stroke-linecap:butt;stroke-linejoin:round;stroke-opacity:1;display:inline"
         d="M 462.17258,189.25766 L 446.95114,198.71708 L 462.00965,132.38466 L 477.06817,198.71708 L 462.17258,189.25766 z "
         sodipodi:nodetypes="ccccc" />
      <path
         style="fill:none;fill-opacity:1;fill-rule:evenodd;stroke:#000000;stroke-width:7.20300007;stroke-linecap:butt;stroke-linejoin:miter;marker-end:none;stroke-miterlimit:4;stroke-dasharray:none;stroke-opacity:1;display:inline"
         d="M 459.01594,1784.8245 L 462.05081,181.52812"
         id="path2231" />
    </g>
    <path
       sodipodi:nodetypes="cc"
       id="path2967"
       d="M 1596.0049,1785.0784 L 1596.0049,339.97241"
       style="fill:none;fill-opacity:0.75;fill-rule:evenodd;stroke:#000000;stroke-width:7.20336628;stroke-linecap:butt;stroke-linejoin:miter;stroke-miterlimit:4;stroke-dasharray:none;stroke-opacity:1" />
    <path
       sodipodi:nodetypes="ccc"
       id="path2973"
       d="M 1593.9894,1079.6702 L 499.86092,1079.6702 C 499.86092,1079.6702 464.7801,1078.0934 460.40291,988.02971"
       style="fill:none;fill-opacity:0.75;fill-rule:evenodd;stroke:#000000;stroke-width:7.20336628;stroke-linecap:butt;stroke-linejoin:miter;stroke-miterlimit:4;stroke-dasharray:none;stroke-opacity:1" />
    <path
       sodipodi:nodetypes="cs"
       id="path2975"
       d="M 499.5383,1079.3112 C 499.5383,1079.3112 458.85233,1095.5846 460.25529,1132.5695"
       style="fill:none;fill-opacity:0.75;fill-rule:evenodd;stroke:#000000;stroke-width:7.20336628;stroke-linecap:butt;stroke-linejoin:miter;stroke-miterlimit:4;stroke-dasharray:none;stroke-opacity:1" />
    <path
       sodipodi:nodetypes="cccc"
       id="path2977"
       d="M 1593.199,686.15096 L 828.30712,686.15096 L 614.81377,1078.9407 L 460.48052,906.40439"
       style="fill:none;fill-opacity:0.75;fill-rule:evenodd;stroke:#000000;stroke-width:7.20336628;stroke-linecap:butt;stroke-linejoin:miter;stroke-miterlimit:4;stroke-dasharray:none;stroke-opacity:1" />
    <path
       sodipodi:nodetypes="ccc"
       id="path2980"
       d="m 479.74665,349.16227 c 0,0 474.07958,68.41896 708.23115,335.78523 l 190.4024,-335.80082"
       style="fill:none;stroke:#000000;stroke-width:7.20336628;stroke-linecap:butt;stroke-linejoin:miter;stroke-miterlimit:4;stroke-opacity:1;stroke-dasharray:none"
       inkscape:connector-curvature="0" />
    <path
       sodipodi:nodetypes="ccsccs"
       id="path2982"
       d="M 827.75457,686.70212 L 504.11581,357.29359 C 504.11581,357.29359 496.6114,391.85531 462.38583,428.46849 C 457.80586,433.36795 479.74665,348.75694 479.74665,348.75694 L 465.55232,302.83129 C 465.55232,302.83129 516.77663,327.8719 546.7641,361.61599"
       style="fill:none;fill-opacity:0.75;fill-rule:evenodd;stroke:#000000;stroke-width:7.20336628;stroke-linecap:butt;stroke-linejoin:miter;stroke-miterlimit:4;stroke-dasharray:none;stroke-opacity:1" />
    <path
       id="path2984"
       d="M 613.30581,1080.77 L 613.3033,1763.4513"
       style="fill:none;fill-opacity:0.75;fill-rule:evenodd;stroke:#000000;stroke-width:7.29734755;stroke-linecap:butt;stroke-linejoin:miter;stroke-miterlimit:4;stroke-dasharray:58.37878, 29.18939;stroke-dashoffset:0;stroke-opacity:1" />
    <path
       sodipodi:nodetypes="cc"
       id="path2986"
       d="M 1188.8772,685.8288 L 1188.7714,1782.7124"
       style="fill:none;fill-opacity:0.75;fill-rule:evenodd;stroke:#000000;stroke-width:7.20336628;stroke-linecap:butt;stroke-linejoin:miter;stroke-miterlimit:4;stroke-dasharray:57.62693, 28.813465;stroke-dashoffset:0;stroke-opacity:1" />
    <path
       id="path3726"
       d="M 430.14436,234.68226 L 461.88983,234.68226"
       style="fill:none;fill-opacity:0.75;fill-rule:evenodd;stroke:#000000;stroke-width:7.20336628;stroke-linecap:butt;stroke-linejoin:miter;stroke-miterlimit:4;stroke-dasharray:none;stroke-opacity:1" />
    <path
       id="path3730"
       d="M 430.14436,431.3473 L 461.8898,431.3473"
       style="fill:none;fill-opacity:0.75;fill-rule:evenodd;stroke:#000000;stroke-width:7.20336628;stroke-linecap:butt;stroke-linejoin:miter;stroke-miterlimit:4;stroke-dasharray:none;stroke-opacity:1" />
    <path
       id="path3732"
       d="M 430.14436,619.64358 L 461.8898,619.64358"
       style="fill:none;fill-opacity:0.75;fill-rule:evenodd;stroke:#000000;stroke-width:7.20336628;stroke-linecap:butt;stroke-linejoin:miter;stroke-miterlimit:4;stroke-dasharray:none;stroke-opacity:1" />
    <path
       id="path3734"
       d="M 430.14436,816.30862 L 461.8898,816.30862"
       style="fill:none;fill-opacity:0.75;fill-rule:evenodd;stroke:#000000;stroke-width:7.20336628;stroke-linecap:butt;stroke-linejoin:miter;stroke-miterlimit:4;stroke-dasharray:none;stroke-opacity:1" />
    <path
       id="path3736"
       d="M 430.14436,1006.6971 L 461.8898,1006.6971"
       style="fill:none;fill-opacity:0.75;fill-rule:evenodd;stroke:#000000;stroke-width:7.20336628;stroke-linecap:butt;stroke-linejoin:miter;stroke-miterlimit:4;stroke-dasharray:none;stroke-opacity:1" />
    <path
       id="path3738"
       d="M 430.14436,1203.3622 L 461.8898,1203.3622"
       style="fill:none;fill-opacity:0.75;fill-rule:evenodd;stroke:#000000;stroke-width:7.20336628;stroke-linecap:butt;stroke-linejoin:miter;stroke-miterlimit:4;stroke-dasharray:none;stroke-opacity:1" />
    <path
       id="path3740"
       d="M 430.14436,1391.6585 L 461.88983,1391.6585"
       style="fill:none;fill-opacity:0.75;fill-rule:evenodd;stroke:#000000;stroke-width:7.20336628;stroke-linecap:butt;stroke-linejoin:miter;stroke-miterlimit:4;stroke-dasharray:none;stroke-opacity:1" />
    <path
       id="path3742"
       d="M 430.14436,1588.3235 L 461.88983,1588.3235"
       style="fill:none;fill-opacity:0.75;fill-rule:evenodd;stroke:#000000;stroke-width:7.20336628;stroke-linecap:butt;stroke-linejoin:miter;stroke-miterlimit:4;stroke-dasharray:none;stroke-opacity:1" />
    <path
       id="path3784"
       d="M 1152.8151,1817.1995 L 1152.8151,1783.7246"
       style="fill:none;fill-opacity:0.75;fill-rule:evenodd;stroke:#000000;stroke-width:5.76269293;stroke-linecap:butt;stroke-linejoin:miter;stroke-miterlimit:4;stroke-dasharray:none;stroke-opacity:1" />
    <path
       id="path3786"
       d="M 1498.047,1817.1995 L 1498.047,1783.7246"
       style="fill:none;fill-opacity:0.75;fill-rule:evenodd;stroke:#000000;stroke-width:5.76269293;stroke-linecap:butt;stroke-linejoin:miter;stroke-miterlimit:4;stroke-dasharray:none;stroke-opacity:1" />
    <path
       id="path3788"
       d="M 805.59916,1817.1995 L 805.59916,1783.7246"
       style="fill:none;fill-opacity:0.75;fill-rule:evenodd;stroke:#000000;stroke-width:5.76269293;stroke-linecap:butt;stroke-linejoin:miter;stroke-miterlimit:4;stroke-dasharray:none;stroke-opacity:1" />
    <use
       x="0"
       y="0"
       xlink:href="#path2986"
       id="use2926"
       transform="translate(-360.84316,4.2957519)"
       width="1937.5"
       height="2062.5" />
    <g
       style="display:inline"
       inkscape:label="strzalki"
       id="use2928"
       transform="matrix(0.395501,0,0,0.431967,745.177,1743.604)">
      <g
         transform="matrix(5.463085,0,0,5.463085,-1336.785,-81.52921)"
         id="g3031">
        <path
           style="fill:none;stroke:#000000;stroke-width:1px;stroke-linecap:butt;stroke-linejoin:miter;stroke-opacity:1;marker-end:none;display:inline"
           d="m 282.48229,106.36774 0,-58.999997"
           id="path3033" />
        <path
           id="path3035"
           style="fill:#000000;fill-opacity:1;fill-rule:evenodd;stroke:#000000;stroke-width:0.99999607px;stroke-linecap:butt;stroke-linejoin:round;stroke-opacity:1;display:inline"
           d="m 282.52826,52.243995 -4.2948,2.66902 4.24883,-18.716 4.24883,18.716 -4.20286,-2.66902 z"
           sodipodi:nodetypes="ccccc" />
      </g>
    </g>
    <text
       xml:space="preserve"
       style="font-size:40px;font-style:normal;font-weight:normal;fill:#000000;fill-opacity:1;stroke:none;font-family:Bitstream Vera Sans"
       x="73.027779"
       y="171.29524"
       id="text2930"><tspan
         sodipodi:role="line"
         id="tspan2932"
         x="73.027779"
         y="171.29524">Temperatura [C]</tspan></text>
    <text
       xml:space="preserve"
       style="font-size:40px;font-style:normal;font-weight:normal;fill:#000000;fill-opacity:1;stroke:none;font-family:Bitstream Vera Sans"
       x="1640.9773"
       y="1873.4869"
       id="text2934"><tspan
         sodipodi:role="line"
         id="tspan2936"
         x="1640.9773"
         y="1873.4869">C [%]</tspan></text>
    <g
       style="display:inline"
       inkscape:label="strzalki"
       id="use2946"
       transform="matrix(0.395501,0,0,0.431967,1513.177,1743.604)">
      <g
         transform="matrix(5.463085,0,0,5.463085,-1336.785,-81.52921)"
         id="g3039">
        <path
           style="fill:none;stroke:#000000;stroke-width:1px;stroke-linecap:butt;stroke-linejoin:miter;stroke-opacity:1;marker-end:none;display:inline"
           d="m 282.48229,106.36774 0,-58.999997"
           id="path3041" />
        <path
           id="path3043"
           style="fill:#000000;fill-opacity:1;fill-rule:evenodd;stroke:#000000;stroke-width:0.99999607px;stroke-linecap:butt;stroke-linejoin:round;stroke-opacity:1;display:inline"
           d="m 282.52826,52.243995 -4.2948,2.66902 4.24883,-18.716 4.24883,18.716 -4.20286,-2.66902 z"
           sodipodi:nodetypes="ccccc" />
      </g>
    </g>
    <text
       xml:space="preserve"
       style="font-size:40px;font-style:normal;font-weight:normal;fill:#800000;fill-opacity:1;stroke:none;font-family:Bitstream Vera Sans"
       x="566.85498"
       y="1926.6571"
       id="text2948"><tspan
         sodipodi:role="line"
         id="tspan2950"
         x="566.85498"
         y="1926.6571">0,77</tspan></text>
    <text
       xml:space="preserve"
       style="font-size:40px;font-style:normal;font-weight:normal;fill:#800000;fill-opacity:1;stroke:none;font-family:Bitstream Vera Sans"
       x="1160.7428"
       y="1926.6571"
       id="text2952"><tspan
         sodipodi:role="line"
         id="tspan2954"
         x="1160.7428"
         y="1926.6571">4,3</tspan></text>
    <text
       xml:space="preserve"
       style="font-size:40px;font-style:normal;font-weight:normal;writing-mode:lr-tb;fill:#008000;fill-opacity:1;stroke:none;font-family:Bitstream Vera Sans"
       x="-1605.7649"
       y="544.54645"
       id="text2993"
       transform="matrix(0,-1,1,0,0,0)"><tspan
         sodipodi:role="line"
         id="tspan2995"
         x="-1605.7649"
         y="544.54645"> + perlita</tspan></text>
    <text
       xml:space="preserve"
       style="font-size:40px;font-style:normal;font-weight:normal;writing-mode:lr-tb;fill:#008000;fill-opacity:1;stroke:none;font-family:Bitstream Vera Sans"
       x="620.82507"
       y="1466.5289"
       id="text2997"><tspan
         sodipodi:role="line"
         id="tspan2999"
         x="620.82507"
         y="1466.5289">FeC + lederburita + perlita</tspan></text>
    <text
       xml:space="preserve"
       style="font-size:40px;font-style:normal;font-weight:normal;writing-mode:lr-tb;fill:#008000;fill-opacity:1;stroke:none;font-family:Bitstream Vera Sans"
       x="1211.4287"
       y="1606.1844"
       id="text3001"><tspan
         sodipodi:role="line"
         id="tspan3003"
         x="1211.4287"
         y="1606.1844">FeC + lederburita</tspan></text>
    <use
       x="0"
       y="0"
       xlink:href="#g3488"
       id="use3045"
       transform="translate(576,0)"
       width="1937.5"
       height="2062.5" />
    <text
       xml:space="preserve"
       style="font-size:40px;font-style:normal;font-weight:normal;text-align:center;writing-mode:lr-tb;text-anchor:middle;fill:#008000;fill-opacity:1;stroke:none;font-family:Bitstream Vera Sans"
       x="138.03143"
       y="1096.28"
       id="text2944"><tspan
         sodipodi:role="line"
         x="138.03143"
         y="1096.28"
         id="tspan2959"></tspan><tspan
         sodipodi:role="line"
         x="138.03143"
         y="1146.28"
         id="tspan2969">(ferrita)</tspan></text>
    <text
       xml:space="preserve"
       style="font-size:40px;font-style:normal;font-weight:normal;writing-mode:lr-tb;fill:#008000;fill-opacity:1;stroke:none;font-family:Bitstream Vera Sans"
       x="100.68176"
       y="912.77936"
       id="text2949"><tspan
         sodipodi:role="line"
         id="tspan2951"
         x="100.68176"
         y="912.77936"> +  </tspan></text>
    <text
       xml:space="preserve"
       style="font-size:40px;font-style:normal;font-weight:normal;text-align:center;writing-mode:lr-tb;text-anchor:middle;fill:#008000;fill-opacity:1;stroke:none;font-family:Bitstream Vera Sans"
       x="625.20117"
       y="698.42468"
       id="text2953"><tspan
         sodipodi:role="line"
         id="tspan2955"
         x="631.56836"
         y="698.42468"> </tspan><tspan
         sodipodi:role="line"
         x="625.20117"
         y="748.42468"
         id="tspan2957">(austenita)</tspan></text>
    <text
       xml:space="preserve"
       style="font-size:40px;font-style:normal;font-weight:normal;text-align:center;writing-mode:lr-tb;text-anchor:middle;fill:#008000;fill-opacity:1;stroke:none;font-family:Bitstream Vera Sans"
       x="1747.6938"
       y="1151.7897"
       id="text3001-4"><tspan
         sodipodi:role="line"
         id="tspan3003-6"
         x="1754.061"
         y="1151.7897">FeC </tspan><tspan
         sodipodi:role="line"
         x="1747.6938"
         y="1201.7897"
         id="tspan2988">(cementita)</tspan><tspan
         sodipodi:role="line"
         x="1747.6938"
         y="1251.7897"
         id="tspan2986">+ grafit</tspan></text>
    <text
       xml:space="preserve"
       style="font-size:40px;font-style:normal;font-weight:normal;text-align:center;writing-mode:lr-tb;text-anchor:middle;fill:#008000;fill-opacity:1;stroke:none;font-family:Bitstream Vera Sans"
       x="998.72089"
       y="871.44989"
       id="text3001-3"><tspan
         sodipodi:role="line"
         id="tspan3003-5"
         x="998.72089"
         y="871.44989"> + FeC</tspan><tspan
         sodipodi:role="line"
         x="998.72089"
         y="921.44989"
         id="tspan3015">+ lederburita</tspan></text>
    <text
       xml:space="preserve"
       style="font-size:40px;font-style:normal;font-weight:normal;writing-mode:lr-tb;fill:#008000;fill-opacity:1;stroke:none;font-family:Bitstream Vera Sans"
       x="1206.5594"
       y="895.2135"
       id="text3001-6"><tspan
         sodipodi:role="line"
         id="tspan3003-7"
         x="1206.5594"
         y="895.2135">FeC + lederburita</tspan></text>
    <text
       xml:space="preserve"
       style="font-size:40px;font-style:normal;font-weight:normal;writing-mode:lr-tb;fill:#008000;fill-opacity:1;stroke:none;font-family:Bitstream Vera Sans"
       x="796.08899"
       y="601.28772"
       id="text3001-1"><tspan
         sodipodi:role="line"
         id="tspan3003-1"
         x="796.08899"
         y="601.28772"> + lquid</tspan></text>
    <text
       xml:space="preserve"
       style="font-size:40px;font-style:normal;font-weight:normal;writing-mode:lr-tb;fill:#008000;fill-opacity:1;stroke:none;font-family:Bitstream Vera Sans"
       x="1071.4088"
       y="478.86615"
       id="text3001-1-0"><tspan
         sodipodi:role="line"
         id="tspan3003-1-9"
         x="1071.4088"
         y="478.86615">lquid</tspan></text>
    <text
       xml:space="preserve"
       style="font-size:40px;font-style:normal;font-weight:normal;writing-mode:lr-tb;fill:#008000;fill-opacity:1;stroke:none;font-family:Bitstream Vera Sans"
       x="1305.2504"
       y="616.89758"
       id="text3001-1-9"><tspan
         sodipodi:role="line"
         id="tspan3003-1-8"
         x="1305.2504"
         y="616.89758">lquid + FeC</tspan></text>
    <text
       xml:space="preserve"
       style="font-size:40px;font-style:normal;font-weight:normal;writing-mode:lr-tb;fill:#008000;fill-opacity:1;stroke:none;font-family:Bitstream Vera Sans"
       x="495.28922"
       y="518.17188"
       id="text3089"><tspan
         sodipodi:role="line"
         id="tspan3091"
         x="495.28922"
         y="518.17188"> + </tspan></text>
    <text
       xml:space="preserve"
       style="font-size:40px;font-style:normal;font-weight:normal;writing-mode:lr-tb;fill:#008000;fill-opacity:1;stroke:none;font-family:Bitstream Vera Sans"
       x="186.7484"
       y="334.67126"
       id="text3093"><tspan
         sodipodi:role="line"
         id="tspan3095"
         x="186.7484"
         y="334.67126"></tspan></text>
    <text
       xml:space="preserve"
       style="font-size:40px;font-style:normal;font-weight:normal;writing-mode:lr-tb;fill:#008000;fill-opacity:1;stroke:none;font-family:Bitstream Vera Sans"
       x="513.15216"
       y="220.99831"
       id="text3097"><tspan
         sodipodi:role="line"
         id="tspan3099"
         x="513.15216"
         y="220.99831"> + lquid</tspan></text>
  </g>
</svg>
