<?xml version="1.0" encoding="UTF-8" standalone="no"?>
<svg xmlns:svg="http://www.w3.org/2000/svg" xmlns="http://www.w3.org/2000/svg" version="1.0" width="604.00403" height="397.00201" xml:space="preserve">
<g transform="translate(50,50.00001)">
<polygon points="8.003,78.999 0,73.999 128.501,0 128.501,8.999 8.003,78.999" />
<polygon points="8.003,217.998 0,222.998 0,73.999 8.003,78.999 8.003,217.998" />
<polygon points="128.501,287.998 128.501,297.002 0,222.998 8.003,217.998 128.501,287.998" />
<polygon points="130.503,259.004 126.504,265.996 27.5,209.004 31.504,202.002 130.503,259.004" />
<polygon points="249.004,217.998 257.002,222.998 128.501,297.002 128.501,287.998 249.004,217.998" />
<polygon points="249.004,78.999 253.003,76.499 257.002,78.999 257.002,222.998 249.004,217.998 249.004,78.999" />
<polygon points="128.501,8.999 128.501,0 253.003,72.002 253.003,76.499 249.004,78.999 128.501,8.999" />
<polygon points="377.5,0 377.5,9.502 257.002,78.999 253.003,76.499 253.003,72.002 377.5,0" />
<polygon points="504.004,73.003 502.002,76.499 500,80 377.5,9.502 377.5,0 504.004,73.003" />
<rect width="8" height="114.241" x="74.973" y="5.8800001" transform="matrix(0.4967,0.8679,-0.8679,0.4967,94.4467,-36.8604)" />
<rect width="8" height="113.999" x="223.50101" y="91.499001" />
<rect width="8" height="128.814" x="429.22101" y="2.346" transform="matrix(0.4967,-0.8679,0.8679,0.4967,160.1349,409.6382)" />
</g>
</svg>
